LXGWWenKaiLite-Bold.ufo
<glyph name="quotesingle" format="1">
  <advance width="350" height="350"/>
  <unicode hex="0027"/>
  <outline>
    <contour>
      <point x="176" y="470" type="qcurve" smooth="yes"/>
      <point x="141" y="470"/>
      <point x="138" y="492" type="qcurve" smooth="yes"/>
      <point x="132" y="703" type="line" smooth="yes"/>
      <point x="132" y="718"/>
      <point x="161" y="731"/>
      <point x="175" y="731" type="qcurve" smooth="yes"/>
      <point x="218" y="731"/>
      <point x="218" y="704" type="qcurve" smooth="yes"/>
      <point x="212" y="492" type="line" smooth="yes"/>
      <point x="212" y="470"/>
    </contour>
  </outline>
</glyph>
<glyph name="bar" format="1">
  <advance width="350" height="350"/>
  <unicode hex="007C"/>
  <outline>
    <contour>
      <point x="215" y="-23" type="line"/>
      <point x="134" y="-23" type="line"/>
      <point x="134" y="724" type="line"/>
      <point x="215" y="724" type="line"/>
    </contour>
  </outline>
</glyph>
<glyph name="brokenbar" format="1">
  <advance width="350" height="350"/>
  <unicode hex="00A6"/>
  <outline>
    <contour>
      <point x="215" y="-22" type="line"/>
      <point x="134" y="-22" type="line"/>
      <point x="134" y="273" type="line"/>
      <point x="215" y="273" type="line"/>
    </contour>
    <contour>
      <point x="215" y="428" type="line"/>
      <point x="134" y="428" type="line"/>
      <point x="134" y="723" type="line"/>
      <point x="215" y="723" type="line"/>
    </contour>
  </outline>
</glyph>
<glyph name="logicalnot" format="1">
  <advance width="590" height="590"/>
  <unicode hex="00AC"/>
  <outline>
    <contour>
      <point x="462" y="94"/>
      <point x="438" y="107"/>
      <point x="438" y="121" type="qcurve" smooth="yes"/>
      <point x="438" y="303" type="line"/>
      <point x="70" y="303" type="line" smooth="yes"/>
      <point x="56" y="303"/>
      <point x="43" y="327"/>
      <point x="43" y="355"/>
      <point x="56" y="379"/>
      <point x="70" y="379" type="qcurve" smooth="yes"/>
      <point x="457" y="379" type="line" smooth="yes"/>
      <point x="483" y="379"/>
      <point x="514" y="348"/>
      <point x="514" y="322" type="qcurve" smooth="yes"/>
      <point x="514" y="121" type="line" smooth="yes"/>
      <point x="514" y="107"/>
      <point x="490" y="94"/>
    </contour>
  </outline>
</glyph>
<glyph name="uni00AD" format="1">
  <advance width="500" height="500"/>
  <unicode hex="00AD"/>
  <outline>
    <contour>
      <point x="65" y="211" type="qcurve" smooth="yes"/>
      <point x="52" y="211"/>
      <point x="39" y="244"/>
      <point x="39" y="265" type="qcurve" smooth="yes"/>
      <point x="39" y="291"/>
      <point x="60" y="291" type="qcurve" smooth="yes"/>
      <point x="90" y="289"/>
      <point x="250" y="289" type="qcurve" smooth="yes"/>
      <point x="393" y="289"/>
      <point x="431" y="291" type="qcurve" smooth="yes"/>
      <point x="444" y="291"/>
      <point x="457" y="258"/>
      <point x="457" y="238" type="qcurve" smooth="yes"/>
      <point x="457" y="212"/>
      <point x="437" y="212" type="qcurve" smooth="yes"/>
      <point x="359" y="214" type="line"/>
      <point x="83" y="214"/>
    </contour>
  </outline>
</glyph>
<glyph name="ae" format="1">
  <advance width="900" height="900"/>
  <unicode hex="00E6"/>
  <outline>
    <contour>
      <point x="132" y="127" type="qcurve" smooth="yes"/>
      <point x="132" y="49"/>
      <point x="240" y="49" type="qcurve" smooth="yes"/>
      <point x="300" y="49"/>
      <point x="394" y="133"/>
      <point x="404" y="211" type="qcurve"/>
      <point x="282" y="205"/>
      <point x="194" y="180" type="qcurve" smooth="yes"/>
      <point x="155" y="170"/>
      <point x="132" y="147"/>
    </contour>
    <contour>
      <point x="473" y="371" type="qcurve"/>
      <point x="477" y="377"/>
      <point x="490" y="395" type="qcurve" smooth="yes"/>
      <point x="569" y="492"/>
      <point x="675" y="492" type="qcurve" smooth="yes"/>
      <point x="739" y="492"/>
      <point x="777" y="469" type="qcurve" smooth="yes"/>
      <point x="847" y="428"/>
      <point x="847" y="340" type="qcurve" smooth="yes"/>
      <point x="847" y="310"/>
      <point x="840" y="288" type="qcurve" smooth="yes"/>
      <point x="818" y="221"/>
      <point x="648" y="199" type="qcurve" smooth="yes"/>
      <point x="591" y="192"/>
      <point x="521" y="192" type="qcurve" smooth="yes"/>
      <point x="489" y="193" type="line"/>
      <point x="489" y="147"/>
      <point x="524" y="80"/>
      <point x="576" y="50"/>
      <point x="600" y="50" type="qcurve" smooth="yes"/>
      <point x="733" y="50"/>
      <point x="807" y="129" type="qcurve" smooth="yes"/>
      <point x="821" y="146"/>
      <point x="850" y="146"/>
      <point x="850" y="117"/>
      <point x="820" y="69"/>
      <point x="789" y="42" type="qcurve" smooth="yes"/>
      <point x="714" y="-24"/>
      <point x="600" y="-24" type="qcurve" smooth="yes"/>
      <point x="538" y="-24"/>
      <point x="488" y="13" type="qcurve" smooth="yes"/>
      <point x="451" y="39"/>
      <point x="435" y="71" type="qcurve"/>
      <point x="413" y="36"/>
      <point x="369" y="8" type="qcurve" smooth="yes"/>
      <point x="318" y="-24"/>
      <point x="172" y="-24"/>
      <point x="91" y="21"/>
      <point x="53" y="90"/>
      <point x="53" y="172"/>
      <point x="96" y="229"/>
      <point x="154" y="244" type="qcurve" smooth="yes"/>
      <point x="274" y="275"/>
      <point x="408" y="275" type="qcurve"/>
      <point x="406" y="377"/>
      <point x="348" y="407" type="qcurve" smooth="yes"/>
      <point x="322" y="420"/>
      <point x="245" y="420"/>
      <point x="216" y="408" type="qcurve" smooth="yes"/>
      <point x="168" y="386"/>
      <point x="142" y="342" type="qcurve" smooth="yes"/>
      <point x="136" y="332"/>
      <point x="110" y="332"/>
      <point x="77" y="370"/>
      <point x="77" y="384" type="qcurve" smooth="yes"/>
      <point x="77" y="414"/>
      <point x="196" y="492"/>
      <point x="285" y="492" type="qcurve" smooth="yes"/>
      <point x="397" y="492"/>
      <point x="447" y="422" type="qcurve" smooth="yes"/>
      <point x="466" y="395"/>
    </contour>
    <contour>
      <point x="496" y="256" type="qcurve"/>
      <point x="494" y="258"/>
      <point x="493" y="258" type="qcurve"/>
      <point x="617" y="258"/>
      <point x="706" y="284" type="qcurve" smooth="yes"/>
      <point x="748" y="295"/>
      <point x="769" y="320"/>
      <point x="769" y="341" type="qcurve" smooth="yes"/>
      <point x="769" y="380"/>
      <point x="716" y="420"/>
      <point x="678" y="420" type="qcurve" smooth="yes"/>
      <point x="608" y="420"/>
      <point x="558" y="366" type="qcurve" smooth="yes"/>
      <point x="508" y="312"/>
    </contour>
  </outline>
</glyph>
<glyph name="dcroat" format="1">
  <advance width="583" height="583"/>
  <unicode hex="0111"/>
  <outline>
    <contour>
      <point x="411" y="367" type="line"/>
      <point x="415" y="371"/>
      <point x="399" y="371"/>
      <point x="393" y="378" type="qcurve" smooth="yes"/>
      <point x="362" y="422"/>
      <point x="300" y="422" type="qcurve" smooth="yes"/>
      <point x="271" y="422"/>
      <point x="207" y="383"/>
      <point x="183" y="349" type="qcurve" smooth="yes"/>
      <point x="130" y="274"/>
      <point x="130" y="118"/>
      <point x="180" y="48"/>
      <point x="214" y="48" type="qcurve" smooth="yes"/>
      <point x="283" y="48"/>
      <point x="411" y="186"/>
      <point x="411" y="276" type="qcurve" smooth="yes"/>
    </contour>
    <contour>
      <point x="483" y="597" type="line"/>
      <point x="510" y="599"/>
      <point x="546" y="602" type="qcurve" smooth="yes"/>
      <point x="547" y="602" type="line" smooth="yes"/>
      <point x="562" y="602"/>
      <point x="584" y="569"/>
      <point x="584" y="534"/>
      <point x="567" y="534" type="qcurve" smooth="yes"/>
      <point x="529" y="534" type="line" smooth="yes"/>
      <point x="502" y="534"/>
      <point x="482" y="533" type="qcurve" smooth="yes"/>
      <point x="483" y="533" type="line"/>
      <point x="483" y="185" type="line" smooth="yes"/>
      <point x="483" y="143"/>
      <point x="501" y="62"/>
      <point x="516" y="42" type="qcurve" smooth="yes"/>
      <point x="519" y="36"/>
      <point x="519" y="18"/>
      <point x="488" y="-18"/>
      <point x="471" y="-18" type="qcurve" smooth="yes"/>
      <point x="443" y="-18"/>
      <point x="408" y="90"/>
      <point x="408" y="96" type="qcurve"/>
      <point x="375" y="42"/>
      <point x="275" y="-24"/>
      <point x="138" y="-24"/>
      <point x="44" y="86"/>
      <point x="44" y="186" type="qcurve" smooth="yes"/>
      <point x="44" y="306"/>
      <point x="199" y="492"/>
      <point x="299" y="492" type="qcurve" smooth="yes"/>
      <point x="338" y="492"/>
      <point x="399" y="462"/>
      <point x="405" y="453" type="qcurve"/>
      <point x="405" y="531" type="line"/>
      <point x="378" y="529" type="line"/>
      <point x="373" y="529" type="line" smooth="yes"/>
      <point x="372" y="529"/>
      <point x="313" y="525" type="qcurve"/>
      <point x="312" y="525" type="line" smooth="yes"/>
      <point x="297" y="525"/>
      <point x="276" y="558"/>
      <point x="276" y="593"/>
      <point x="293" y="593" type="qcurve" smooth="yes"/>
      <point x="378" y="593" type="line"/>
      <point x="405" y="595" type="line"/>
      <point x="401" y="699" type="line" smooth="yes"/>
      <point x="401" y="715"/>
      <point x="444" y="715"/>
      <point x="485" y="698"/>
      <point x="485" y="681" type="qcurve" smooth="yes"/>
    </contour>
  </outline>
</glyph>
<glyph name="uni0197" format="1">
  <advance width="375" height="375"/>
  <unicode hex="0197"/>
  <outline>
    <contour>
      <point x="103" y="-12" type="qcurve" smooth="yes"/>
      <point x="92" y="-12"/>
      <point x="65" y="11"/>
      <point x="64" y="27" type="qcurve" smooth="yes"/>
      <point x="64" y="57"/>
      <point x="85" y="57" type="qcurve" smooth="yes"/>
      <point x="142" y="58" type="line"/>
      <point x="144" y="90"/>
      <point x="144" y="376" type="qcurve"/>
      <point x="83" y="373" type="line" smooth="yes"/>
      <point x="69" y="373"/>
      <point x="56" y="403"/>
      <point x="56" y="418" type="qcurve" smooth="yes"/>
      <point x="56" y="448"/>
      <point x="78" y="448" type="qcurve" smooth="yes"/>
      <point x="114" y="446"/>
      <point x="144" y="446" type="qcurve"/>
      <point x="144" y="603"/>
      <point x="142" y="643" type="qcurve"/>
      <point x="105" y="641" type="line" smooth="yes"/>
      <point x="94" y="641"/>
      <point x="67" y="664"/>
      <point x="66" y="680" type="qcurve" smooth="yes"/>
      <point x="66" y="710"/>
      <point x="87" y="710" type="qcurve" smooth="yes"/>
      <point x="187" y="712" type="line"/>
      <point x="275" y="717" type="line" smooth="yes"/>
      <point x="287" y="717"/>
      <point x="309" y="693"/>
      <point x="309" y="676" type="qcurve" smooth="yes"/>
      <point x="309" y="648"/>
      <point x="289" y="648" type="qcurve" smooth="yes"/>
      <point x="232" y="646" type="line"/>
      <point x="232" y="633"/>
      <point x="231" y="621" type="qcurve" smooth="yes"/>
      <point x="230" y="568"/>
      <point x="230" y="446" type="qcurve"/>
      <point x="268" y="446"/>
      <point x="297" y="448" type="qcurve" smooth="yes"/>
      <point x="310" y="448"/>
      <point x="324" y="419"/>
      <point x="324" y="404" type="qcurve" smooth="yes"/>
      <point x="324" y="374"/>
      <point x="303" y="374" type="qcurve" smooth="yes"/>
      <point x="230" y="376" type="line"/>
      <point x="230" y="97"/>
      <point x="232" y="62" type="qcurve"/>
      <point x="259" y="64"/>
      <point x="277" y="64" type="qcurve" smooth="yes"/>
      <point x="289" y="64"/>
      <point x="311" y="40"/>
      <point x="311" y="23" type="qcurve" smooth="yes"/>
      <point x="311" y="-5"/>
      <point x="291" y="-5" type="qcurve" smooth="yes"/>
      <point x="201" y="-8" type="line" smooth="yes"/>
      <point x="148" y="-12"/>
    </contour>
  </outline>
</glyph>
<glyph name="uni0250" format="1">
  <advance width="575" height="575"/>
  <unicode hex="0250"/>
  <outline>
    <contour>
      <point x="174" y="257" type="qcurve"/>
      <point x="296" y="263"/>
      <point x="384" y="288" type="qcurve" smooth="yes"/>
      <point x="423" y="298"/>
      <point x="446" y="321"/>
      <point x="446" y="341" type="qcurve" smooth="yes"/>
      <point x="446" y="419"/>
      <point x="338" y="419" type="qcurve" smooth="yes"/>
      <point x="278" y="419"/>
      <point x="184" y="335"/>
    </contour>
    <contour>
      <point x="293" y="-18" type="qcurve" smooth="yes"/>
      <point x="177" y="-18"/>
      <point x="131" y="46" type="qcurve" smooth="yes"/>
      <point x="90" y="103"/>
      <point x="90" y="196" type="qcurve" smooth="yes"/>
      <point x="90" y="273" type="line" smooth="yes"/>
      <point x="90" y="376"/>
      <point x="56" y="430" type="qcurve" smooth="yes"/>
      <point x="53" y="436"/>
      <point x="53" y="452"/>
      <point x="83" y="487"/>
      <point x="102" y="487" type="qcurve" smooth="yes"/>
      <point x="139" y="487"/>
      <point x="152" y="398" type="qcurve"/>
      <point x="186" y="492"/>
      <point x="333" y="492" type="qcurve" smooth="yes"/>
      <point x="406" y="492"/>
      <point x="487" y="447"/>
      <point x="525" y="378"/>
      <point x="525" y="296"/>
      <point x="482" y="239"/>
      <point x="424" y="224" type="qcurve" smooth="yes"/>
      <point x="304" y="193"/>
      <point x="170" y="193" type="qcurve"/>
      <point x="172" y="91"/>
      <point x="230" y="61" type="qcurve" smooth="yes"/>
      <point x="256" y="48"/>
      <point x="301" y="48" type="qcurve" smooth="yes"/>
      <point x="410" y="54"/>
      <point x="481" y="129" type="qcurve" smooth="yes"/>
      <point x="495" y="146"/>
      <point x="508" y="146" type="qcurve" smooth="yes"/>
      <point x="524" y="146"/>
      <point x="524" y="130" type="qcurve" smooth="yes"/>
      <point x="524" y="117"/>
      <point x="494" y="69"/>
      <point x="463" y="42" type="qcurve" smooth="yes"/>
      <point x="394" y="-18"/>
    </contour>
  </outline>
</glyph>
<glyph name="uni025C" format="1">
  <advance width="500" height="500"/>
  <unicode hex="025C"/>
  <outline>
    <contour>
      <point x="241" y="-24" type="qcurve" smooth="yes"/>
      <point x="193" y="-24"/>
      <point x="104" y="7"/>
      <point x="47" y="50"/>
      <point x="47" y="67" type="qcurve" smooth="yes"/>
      <point x="47" y="90"/>
      <point x="70" y="90" type="qcurve" smooth="yes"/>
      <point x="80" y="90"/>
      <point x="91" y="83" type="qcurve" smooth="yes"/>
      <point x="124" y="64"/>
      <point x="192" y="48"/>
      <point x="241" y="48" type="qcurve" smooth="yes"/>
      <point x="304" y="48"/>
      <point x="380" y="92"/>
      <point x="380" y="166"/>
      <point x="317" y="214"/>
      <point x="259" y="214" type="qcurve" smooth="yes"/>
      <point x="245" y="214"/>
      <point x="181" y="205" type="qcurve" smooth="yes"/>
      <point x="164" y="205"/>
      <point x="145" y="240"/>
      <point x="145" y="257" type="qcurve" smooth="yes"/>
      <point x="145" y="281"/>
      <point x="162" y="281" type="qcurve" smooth="yes"/>
      <point x="360" y="288"/>
      <point x="360" y="365" type="qcurve" smooth="yes"/>
      <point x="360" y="422"/>
      <point x="259" y="422" type="qcurve" smooth="yes"/>
      <point x="193" y="422"/>
      <point x="143" y="375" type="qcurve" smooth="yes"/>
      <point x="125" y="359"/>
      <point x="114" y="359" type="qcurve" smooth="yes"/>
      <point x="100" y="359"/>
      <point x="80" y="398"/>
      <point x="80" y="413" type="qcurve" smooth="yes"/>
      <point x="80" y="434"/>
      <point x="144" y="471"/>
      <point x="228" y="492"/>
      <point x="258" y="492" type="qcurve" smooth="yes"/>
      <point x="343" y="492"/>
      <point x="443" y="421"/>
      <point x="443" y="366" type="qcurve" smooth="yes"/>
      <point x="443" y="324"/>
      <point x="385" y="263"/>
      <point x="370" y="259" type="qcurve"/>
      <point x="389" y="256"/>
      <point x="463" y="185"/>
      <point x="463" y="130" type="qcurve" smooth="yes"/>
      <point x="463" y="60"/>
      <point x="344" y="-24"/>
    </contour>
  </outline>
</glyph>
<glyph name="uni026E" format="1">
  <advance width="650" height="650"/>
  <unicode hex="026E"/>
  <outline>
    <contour>
      <point x="314" y="-168"/>
      <point x="263" y="-147" type="qcurve" smooth="yes"/>
      <point x="151" y="-100"/>
      <point x="151" y="-62" type="qcurve" smooth="yes"/>
      <point x="151" y="-43"/>
      <point x="159" y="-26" type="qcurve" smooth="yes"/>
      <point x="162" y="-18"/>
      <point x="167" y="-14" type="qcurve"/>
      <point x="160" y="-17"/>
      <point x="149" y="-17" type="qcurve" smooth="yes"/>
      <point x="130" y="-17"/>
      <point x="89" y="1"/>
      <point x="89" y="17" type="qcurve" smooth="yes"/>
      <point x="91" y="105" type="line"/>
      <point x="91" y="610"/>
      <point x="88" y="697" type="qcurve" smooth="yes"/>
      <point x="88" y="713"/>
      <point x="114" y="713" type="qcurve" smooth="yes"/>
      <point x="133" y="713"/>
      <point x="174" y="695"/>
      <point x="174" y="679" type="qcurve" smooth="yes"/>
      <point x="174" y="658"/>
      <point x="173" y="643" type="qcurve" smooth="yes"/>
      <point x="172" y="590"/>
      <point x="172" y="471" type="qcurve"/>
      <point x="467" y="481" type="line"/>
      <point x="504" y="487" type="line"/>
      <point x="530" y="487"/>
      <point x="551" y="449" type="qcurve" smooth="yes"/>
      <point x="559" y="436"/>
      <point x="559" y="426" type="qcurve" smooth="yes"/>
      <point x="559" y="414"/>
      <point x="538" y="398"/>
      <point x="529" y="391" type="qcurve" smooth="yes"/>
      <point x="355" y="244" type="line" smooth="yes"/>
      <point x="360" y="245"/>
      <point x="436" y="245"/>
      <point x="536" y="204"/>
      <point x="602" y="118"/>
      <point x="602" y="-14"/>
      <point x="543" y="-113"/>
      <point x="438" y="-168"/>
    </contour>
    <contour>
      <point x="172" y="-10" type="qcurve"/>
      <point x="176" y="-8"/>
      <point x="181" y="-8" type="qcurve" smooth="yes"/>
      <point x="193" y="-8"/>
      <point x="224" y="-37"/>
      <point x="252" y="-55" type="qcurve" smooth="yes"/>
      <point x="316" y="-93"/>
      <point x="361" y="-93" type="qcurve" smooth="yes"/>
      <point x="407" y="-93"/>
      <point x="475" y="-62"/>
      <point x="516" y="2"/>
      <point x="516" y="51" type="qcurve" smooth="yes"/>
      <point x="516" y="99"/>
      <point x="495" y="126" type="qcurve" smooth="yes"/>
      <point x="455" y="177"/>
      <point x="368" y="177" type="qcurve" smooth="yes"/>
      <point x="327" y="177"/>
      <point x="251" y="156"/>
      <point x="232" y="141" type="qcurve" smooth="yes"/>
      <point x="228" y="137"/>
      <point x="220" y="137" type="qcurve" smooth="yes"/>
      <point x="210" y="137"/>
      <point x="183" y="173"/>
      <point x="183" y="191" type="qcurve" smooth="yes"/>
      <point x="183" y="211"/>
      <point x="200" y="219" type="qcurve" smooth="yes"/>
      <point x="245" y="242"/>
      <point x="384" y="368" type="qcurve" smooth="yes"/>
      <point x="429" y="410" type="line"/>
      <point x="172" y="400" type="line"/>
      <point x="172" y="105" type="line"/>
      <point x="175" y="-1" type="line" smooth="yes"/>
      <point x="175" y="-7"/>
    </contour>
  </outline>
</glyph>
<glyph name="uni026F" format="1">
  <advance width="816" height="816"/>
  <unicode hex="026F"/>
  <outline>
    <contour>
      <point x="457" y="-22"/>
      <point x="396" y="37"/>
      <point x="390" y="61" type="qcurve"/>
      <point x="370" y="27"/>
      <point x="284" y="-22"/>
      <point x="235" y="-22" type="qcurve" smooth="yes"/>
      <point x="185" y="-22"/>
      <point x="151" y="7" type="qcurve" smooth="yes"/>
      <point x="86" y="62"/>
      <point x="86" y="173" type="qcurve" smooth="yes"/>
      <point x="86" y="365"/>
      <point x="83" y="471" type="qcurve" smooth="yes"/>
      <point x="83" y="487"/>
      <point x="107" y="487" type="qcurve" smooth="yes"/>
      <point x="126" y="487"/>
      <point x="168" y="470"/>
      <point x="168" y="453" type="qcurve" smooth="yes"/>
      <point x="164" y="365" type="line"/>
      <point x="164" y="177" type="line" smooth="yes"/>
      <point x="164" y="50"/>
      <point x="242" y="50" type="qcurve" smooth="yes"/>
      <point x="270" y="50"/>
      <point x="331" y="92"/>
      <point x="372" y="162"/>
      <point x="372" y="202" type="qcurve" smooth="yes"/>
      <point x="372" y="365" type="line"/>
      <point x="367" y="471" type="line" smooth="yes"/>
      <point x="367" y="487"/>
      <point x="391" y="487" type="qcurve" smooth="yes"/>
      <point x="410" y="487"/>
      <point x="451" y="470"/>
      <point x="451" y="453" type="qcurve" smooth="yes"/>
      <point x="447" y="365" type="line"/>
      <point x="447" y="177" type="line" smooth="yes"/>
      <point x="447" y="50"/>
      <point x="515" y="50" type="qcurve" smooth="yes"/>
      <point x="564" y="50"/>
      <point x="601" y="94" type="qcurve" smooth="yes"/>
      <point x="647" y="150"/>
      <point x="650" y="260" type="qcurve" smooth="yes"/>
      <point x="653" y="365" type="line"/>
      <point x="648" y="471" type="line" smooth="yes"/>
      <point x="648" y="487"/>
      <point x="672" y="487" type="qcurve" smooth="yes"/>
      <point x="691" y="487"/>
      <point x="733" y="470"/>
      <point x="733" y="453" type="qcurve" smooth="yes"/>
      <point x="731" y="365" type="line"/>
      <point x="731" y="114"/>
      <point x="734" y="-2" type="qcurve" smooth="yes"/>
      <point x="734" y="-18"/>
      <point x="710" y="-18" type="qcurve" smooth="yes"/>
      <point x="691" y="-18"/>
      <point x="649" y="-1"/>
      <point x="649" y="15" type="qcurve" smooth="yes"/>
      <point x="650" y="46" type="line"/>
      <point x="641" y="28"/>
      <point x="561" y="-22"/>
    </contour>
  </outline>
</glyph>
<glyph name="uni0294" format="1">
  <advance width="600" height="600"/>
  <unicode hex="0294"/>
  <outline>
    <contour>
      <point x="307" y="-16" type="qcurve" smooth="yes"/>
      <point x="288" y="-16"/>
      <point x="244" y="1"/>
      <point x="244" y="17" type="qcurve" smooth="yes"/>
      <point x="250" y="273"/>
      <point x="253" y="292" type="qcurve" smooth="yes"/>
      <point x="262" y="342"/>
      <point x="329" y="399" type="qcurve" smooth="yes"/>
      <point x="383" y="447" type="line" smooth="yes"/>
      <point x="443" y="500"/>
      <point x="443" y="568" type="qcurve" smooth="yes"/>
      <point x="443" y="602"/>
      <point x="400" y="648"/>
      <point x="353" y="648" type="qcurve" smooth="yes"/>
      <point x="304" y="648"/>
      <point x="223" y="611"/>
      <point x="173" y="560"/>
      <point x="161" y="517" type="qcurve" smooth="yes"/>
      <point x="155" y="500"/>
      <point x="137" y="500" type="qcurve" smooth="yes"/>
      <point x="120" y="500"/>
      <point x="84" y="530"/>
      <point x="84" y="544" type="qcurve" smooth="yes"/>
      <point x="84" y="556"/>
      <point x="87" y="560" type="qcurve" smooth="yes"/>
      <point x="177" y="719"/>
      <point x="350" y="719" type="qcurve" smooth="yes"/>
      <point x="434" y="719"/>
      <point x="528" y="642"/>
      <point x="528" y="581" type="qcurve" smooth="yes"/>
      <point x="528" y="521"/>
      <point x="489" y="446"/>
      <point x="431" y="391"/>
      <point x="372" y="346"/>
      <point x="326" y="291"/>
      <point x="326" y="254" type="qcurve" smooth="yes"/>
      <point x="327" y="127"/>
      <point x="330" y="-1" type="qcurve" smooth="yes"/>
      <point x="330" y="-16"/>
    </contour>
  </outline>
</glyph>
<glyph name="uni0298" format="1">
  <advance width="562" height="562"/>
  <unicode hex="0298"/>
  <outline>
    <contour>
      <point x="267" y="49" type="qcurve" smooth="yes"/>
      <point x="314" y="49"/>
      <point x="388" y="100"/>
      <point x="433" y="189"/>
      <point x="433" y="258" type="qcurve" smooth="yes"/>
      <point x="433" y="326"/>
      <point x="371" y="420"/>
      <point x="231" y="420"/>
      <point x="129" y="287"/>
      <point x="129" y="208" type="qcurve" smooth="yes"/>
      <point x="129" y="49"/>
    </contour>
    <contour>
      <point x="273" y="-24" type="qcurve" smooth="yes"/>
      <point x="164" y="-24"/>
      <point x="50" y="101"/>
      <point x="50" y="207" type="qcurve" smooth="yes"/>
      <point x="50" y="289"/>
      <point x="101" y="377" type="qcurve" smooth="yes"/>
      <point x="121" y="414"/>
      <point x="163" y="460"/>
      <point x="177" y="460" type="qcurve" smooth="yes"/>
      <point x="190" y="460"/>
      <point x="195" y="453" type="qcurve"/>
      <point x="247" y="492"/>
      <point x="371" y="492"/>
      <point x="416" y="462" type="qcurve" smooth="yes"/>
      <point x="512" y="399"/>
      <point x="512" y="245" type="qcurve" smooth="yes"/>
      <point x="512" y="141"/>
      <point x="449" y="62" type="qcurve" smooth="yes"/>
      <point x="381" y="-24"/>
    </contour>
    <contour>
      <point x="258" y="178"/>
      <point x="223" y="223"/>
      <point x="223" y="271"/>
      <point x="257" y="298"/>
      <point x="280" y="298" type="qcurve" smooth="yes"/>
      <point x="304" y="298"/>
      <point x="340" y="253"/>
      <point x="340" y="231" type="qcurve" smooth="yes"/>
      <point x="340" y="208"/>
      <point x="312" y="178"/>
    </contour>
  </outline>
</glyph>
<glyph name="uni02A2" format="1">
  <advance width="600" height="600"/>
  <unicode hex="02A2"/>
  <outline>
    <contour>
      <point x="333" y="-16" type="qcurve" smooth="yes"/>
      <point x="314" y="-16"/>
      <point x="270" y="1"/>
      <point x="270" y="17" type="qcurve" smooth="yes"/>
      <point x="271" y="132" type="line"/>
      <point x="199" y="132"/>
      <point x="145" y="129" type="qcurve" smooth="yes"/>
      <point x="131" y="129"/>
      <point x="118" y="159"/>
      <point x="118" y="174" type="qcurve" smooth="yes"/>
      <point x="118" y="204"/>
      <point x="140" y="204" type="qcurve" smooth="yes"/>
      <point x="170" y="202"/>
      <point x="272" y="202" type="qcurve"/>
      <point x="273" y="257" type="line" smooth="yes"/>
      <point x="273" y="292"/>
      <point x="228" y="346"/>
      <point x="169" y="391"/>
      <point x="111" y="446"/>
      <point x="72" y="521"/>
      <point x="72" y="581" type="qcurve" smooth="yes"/>
      <point x="72" y="642"/>
      <point x="166" y="719"/>
      <point x="250" y="719" type="qcurve" smooth="yes"/>
      <point x="423" y="719"/>
      <point x="513" y="560" type="qcurve" smooth="yes"/>
      <point x="516" y="556"/>
      <point x="516" y="544" type="qcurve" smooth="yes"/>
      <point x="516" y="530"/>
      <point x="480" y="500"/>
      <point x="464" y="500" type="qcurve" smooth="yes"/>
      <point x="445" y="500"/>
      <point x="439" y="517" type="qcurve" smooth="yes"/>
      <point x="427" y="560"/>
      <point x="377" y="611"/>
      <point x="296" y="648"/>
      <point x="247" y="648" type="qcurve" smooth="yes"/>
      <point x="200" y="648"/>
      <point x="157" y="602"/>
      <point x="157" y="568" type="qcurve" smooth="yes"/>
      <point x="157" y="500"/>
      <point x="217" y="446" type="qcurve" smooth="yes"/>
      <point x="271" y="399" type="line" smooth="yes"/>
      <point x="338" y="342"/>
      <point x="348" y="287" type="qcurve" smooth="yes"/>
      <point x="352" y="262"/>
      <point x="352" y="202" type="qcurve"/>
      <point x="440" y="202"/>
      <point x="478" y="204" type="qcurve" smooth="yes"/>
      <point x="491" y="204"/>
      <point x="505" y="175"/>
      <point x="505" y="160" type="qcurve" smooth="yes"/>
      <point x="505" y="130"/>
      <point x="484" y="130" type="qcurve" smooth="yes"/>
      <point x="462" y="130"/>
      <point x="428" y="132" type="qcurve" smooth="yes"/>
      <point x="353" y="132" type="line"/>
      <point x="356" y="-1" type="line" smooth="yes"/>
      <point x="356" y="-16"/>
    </contour>
  </outline>
</glyph>
<glyph name="uni02BD" format="1">
  <advance width="350" height="350"/>
  <unicode hex="02BD"/>
  <outline>
    <contour>
      <point x="217" y="611" type="qcurve"/>
      <point x="208" y="613" type="line"/>
      <point x="163" y="633"/>
      <point x="104" y="709"/>
      <point x="104" y="748" type="qcurve"/>
      <point x="109" y="782"/>
      <point x="139" y="820"/>
      <point x="185" y="820"/>
      <point x="221" y="793"/>
      <point x="221" y="768" type="qcurve" smooth="yes"/>
      <point x="221" y="740"/>
      <point x="194" y="716" type="qcurve" smooth="yes"/>
      <point x="189" y="711"/>
      <point x="176" y="711" type="qcurve" smooth="yes"/>
      <point x="175" y="711" type="line"/>
      <point x="183" y="678"/>
      <point x="228" y="648" type="qcurve" smooth="yes"/>
      <point x="237" y="642"/>
      <point x="237" y="631" type="qcurve" smooth="yes"/>
      <point x="237" y="611"/>
    </contour>
  </outline>
</glyph>
<glyph name="caron" format="1">
  <advance width="588" height="588"/>
  <unicode hex="02C7"/>
  <outline>
    <contour>
      <point x="295" y="563" type="qcurve" smooth="yes"/>
      <point x="263" y="563"/>
      <point x="250" y="573" type="qcurve" smooth="yes"/>
      <point x="129" y="689"/>
      <point x="129" y="713" type="qcurve" smooth="yes"/>
      <point x="129" y="735"/>
      <point x="153" y="735" type="qcurve" smooth="yes"/>
      <point x="163" y="735"/>
      <point x="195" y="708"/>
      <point x="263" y="665"/>
      <point x="295" y="644" type="qcurve"/>
      <point x="327" y="665"/>
      <point x="394" y="708"/>
      <point x="426" y="735"/>
      <point x="436" y="735" type="qcurve" smooth="yes"/>
      <point x="460" y="735"/>
      <point x="460" y="693"/>
      <point x="372" y="608" type="qcurve" smooth="yes"/>
      <point x="352" y="589"/>
      <point x="326" y="563"/>
    </contour>
  </outline>
</glyph>
<glyph name="uni02D0" format="1">
  <advance width="350" height="350"/>
  <unicode hex="02D0"/>
  <outline>
    <contour>
      <point x="255" y="-9" type="line"/>
      <point x="95" y="-9" type="line"/>
      <point x="176" y="139" type="line"/>
    </contour>
    <contour>
      <point x="176" y="368" type="line"/>
      <point x="95" y="515" type="line"/>
      <point x="255" y="515" type="line"/>
    </contour>
  </outline>
</glyph>
<glyph name="dotaccent" format="1">
  <advance width="263" height="263"/>
  <unicode hex="02D9"/>
  <outline>
    <contour>
      <point x="109" y="584"/>
      <point x="75" y="627"/>
      <point x="75" y="650" type="qcurve" smooth="yes"/>
      <point x="75" y="672"/>
      <point x="103" y="704"/>
      <point x="128" y="704" type="qcurve" smooth="yes"/>
      <point x="152" y="704"/>
      <point x="186" y="660"/>
      <point x="186" y="637" type="qcurve" smooth="yes"/>
      <point x="186" y="615"/>
      <point x="157" y="584"/>
    </contour>
  </outline>
</glyph>
<glyph name="uni02E9" format="1">
  <advance width="389" height="389"/>
  <unicode hex="02E9"/>
  <outline>
    <contour>
      <point x="317" y="-16" type="qcurve" smooth="yes"/>
      <point x="298" y="-16"/>
      <point x="259" y="0"/>
      <point x="257" y="10" type="qcurve"/>
      <point x="106" y="3"/>
      <point x="76" y="-2" type="qcurve" smooth="yes"/>
      <point x="58" y="-2"/>
      <point x="40" y="41"/>
      <point x="40" y="55" type="qcurve" smooth="yes"/>
      <point x="40" y="75"/>
      <point x="58" y="75" type="qcurve" smooth="yes"/>
      <point x="75" y="73"/>
      <point x="99" y="73" type="qcurve" smooth="yes"/>
      <point x="240" y="78"/>
      <point x="257" y="80" type="qcurve"/>
      <point x="258" y="106" type="line"/>
      <point x="258" y="590"/>
      <point x="255" y="697" type="qcurve" smooth="yes"/>
      <point x="255" y="713"/>
      <point x="279" y="713" type="qcurve" smooth="yes"/>
      <point x="298" y="713"/>
      <point x="340" y="696"/>
      <point x="340" y="679" type="qcurve" smooth="yes"/>
      <point x="336" y="590" type="line"/>
      <point x="336" y="106" type="line"/>
      <point x="341" y="0" type="line" smooth="yes"/>
      <point x="341" y="-16"/>
    </contour>
  </outline>
</glyph>
<glyph name="grave" format="1">
  <advance width="350" height="350"/>
  <unicode hex="0300"/>
  <unicode hex="02CB"/>
  <unicode hex="0060"/>
  <outline>
    <contour>
      <point x="218" y="558"/>
      <point x="209" y="567" type="qcurve" smooth="yes"/>
      <point x="89" y="670" type="line" smooth="yes"/>
      <point x="79" y="679"/>
      <point x="79" y="709"/>
      <point x="113" y="738"/>
      <point x="130" y="738" type="qcurve" smooth="yes"/>
      <point x="148" y="738"/>
      <point x="157" y="727" type="qcurve" smooth="yes"/>
      <point x="260" y="621" type="line" smooth="yes"/>
      <point x="269" y="612"/>
      <point x="269" y="599" type="qcurve" smooth="yes"/>
      <point x="269" y="585"/>
      <point x="246" y="558"/>
    </contour>
  </outline>
</glyph>
<glyph name="circumflex" format="1">
  <advance width="500" height="500"/>
  <unicode hex="0302"/>
  <unicode hex="02C6"/>
  <outline>
    <contour>
      <point x="391" y="559" type="qcurve" smooth="yes"/>
      <point x="381" y="559"/>
      <point x="344" y="591"/>
      <point x="250" y="650" type="qcurve"/>
      <point x="153" y="588"/>
      <point x="118" y="559"/>
      <point x="108" y="559" type="qcurve" smooth="yes"/>
      <point x="84" y="559"/>
      <point x="84" y="581" type="qcurve" smooth="yes"/>
      <point x="84" y="605"/>
      <point x="199" y="715" type="qcurve" smooth="yes"/>
      <point x="211" y="727"/>
      <point x="234" y="731"/>
      <point x="257" y="731" type="qcurve" smooth="yes"/>
      <point x="281" y="731"/>
      <point x="311" y="702"/>
      <point x="326" y="686" type="qcurve" smooth="yes"/>
      <point x="415" y="601"/>
      <point x="415" y="582" type="qcurve" smooth="yes"/>
      <point x="415" y="559"/>
    </contour>
  </outline>
</glyph>
<glyph name="tilde" format="1">
  <advance width="500" height="500"/>
  <unicode hex="0303"/>
  <unicode hex="02DC"/>
  <outline>
    <contour>
      <point x="116" y="580" type="qcurve" smooth="yes"/>
      <point x="92" y="580"/>
      <point x="92" y="603" type="qcurve" smooth="yes"/>
      <point x="92" y="618"/>
      <point x="116" y="665"/>
      <point x="162" y="703"/>
      <point x="226" y="703"/>
      <point x="267" y="676"/>
      <point x="298" y="652"/>
      <point x="315" y="652" type="qcurve" smooth="yes"/>
      <point x="352" y="652"/>
      <point x="371" y="691" type="qcurve" smooth="yes"/>
      <point x="378" y="706"/>
      <point x="390" y="706" type="qcurve" smooth="yes"/>
      <point x="413" y="706"/>
      <point x="413" y="683" type="qcurve" smooth="yes"/>
      <point x="413" y="652"/>
      <point x="378" y="613" type="qcurve" smooth="yes"/>
      <point x="352" y="583"/>
      <point x="315" y="583" type="qcurve" smooth="yes"/>
      <point x="279" y="583"/>
      <point x="238" y="609"/>
      <point x="207" y="634"/>
      <point x="190" y="634" type="qcurve" smooth="yes"/>
      <point x="153" y="634"/>
      <point x="134" y="595" type="qcurve" smooth="yes"/>
      <point x="127" y="580"/>
    </contour>
  </outline>
</glyph>
<glyph name="macron" format="1">
  <advance width="500" height="500"/>
  <unicode hex="0304"/>
  <unicode hex="02C9"/>
  <unicode hex="00AF"/>
  <outline>
    <contour>
      <point x="365" y="611" type="qcurve" smooth="yes"/>
      <point x="137" y="611" type="line" smooth="yes"/>
      <point x="123" y="611"/>
      <point x="108" y="634"/>
      <point x="108" y="648" type="qcurve" smooth="yes"/>
      <point x="108" y="661"/>
      <point x="123" y="685"/>
      <point x="138" y="685" type="qcurve" smooth="yes"/>
      <point x="366" y="685" type="line" smooth="yes"/>
      <point x="380" y="685"/>
      <point x="394" y="662"/>
      <point x="394" y="649" type="qcurve" smooth="yes"/>
      <point x="394" y="635"/>
      <point x="379" y="611"/>
    </contour>
  </outline>
</glyph>
<glyph name="uni0307" format="1">
  <advance width="0" height="0"/>
  <unicode hex="0307"/>
  <outline>
    <contour>
      <point x="230" y="586"/>
      <point x="193" y="631"/>
      <point x="193" y="677"/>
      <point x="220" y="707"/>
      <point x="268" y="707"/>
      <point x="306" y="664"/>
      <point x="306" y="616"/>
      <point x="278" y="586"/>
    </contour>
  </outline>
</glyph>
<glyph name="uni0308" format="1">
  <advance width="0" height="0"/>
  <unicode hex="0308"/>
  <outline>
    <contour>
      <point x="140" y="586"/>
      <point x="103" y="631"/>
      <point x="103" y="677"/>
      <point x="130" y="707"/>
      <point x="178" y="707"/>
      <point x="216" y="664"/>
      <point x="216" y="616"/>
      <point x="188" y="586"/>
    </contour>
    <contour>
      <point x="323" y="586"/>
      <point x="286" y="631"/>
      <point x="286" y="677"/>
      <point x="313" y="707"/>
      <point x="361" y="707"/>
      <point x="399" y="664"/>
      <point x="399" y="616"/>
      <point x="371" y="586"/>
    </contour>
  </outline>
</glyph>
<glyph name="ring" format="1">
  <advance width="500" height="500"/>
  <unicode hex="030A"/>
  <unicode hex="02DA"/>
  <outline>
    <contour>
      <point x="252" y="606" type="qcurve" smooth="yes"/>
      <point x="268" y="606"/>
      <point x="291" y="629"/>
      <point x="291" y="647" type="qcurve" smooth="yes"/>
      <point x="291" y="664"/>
      <point x="269" y="686"/>
      <point x="252" y="686" type="qcurve" smooth="yes"/>
      <point x="234" y="686"/>
      <point x="211" y="663"/>
      <point x="211" y="647" type="qcurve" smooth="yes"/>
      <point x="211" y="629"/>
      <point x="234" y="606"/>
    </contour>
    <contour>
      <point x="211" y="546"/>
      <point x="151" y="606"/>
      <point x="151" y="686"/>
      <point x="211" y="746"/>
      <point x="291" y="746"/>
      <point x="351" y="686"/>
      <point x="351" y="606"/>
      <point x="291" y="546"/>
    </contour>
  </outline>
</glyph>
<glyph name="uni030C" format="1">
  <advance width="0" height="0"/>
  <unicode hex="030C"/>
  <outline>
    <contour>
      <point x="250" y="563" type="qcurve" smooth="yes"/>
      <point x="193" y="563"/>
      <point x="97" y="689" type="qcurve" smooth="yes"/>
      <point x="84" y="706"/>
      <point x="84" y="713" type="qcurve" smooth="yes"/>
      <point x="84" y="735"/>
      <point x="108" y="735" type="qcurve" smooth="yes"/>
      <point x="118" y="735"/>
      <point x="150" y="708"/>
      <point x="218" y="665"/>
      <point x="250" y="644" type="qcurve"/>
      <point x="282" y="665"/>
      <point x="349" y="708"/>
      <point x="381" y="735"/>
      <point x="391" y="735" type="qcurve" smooth="yes"/>
      <point x="415" y="735"/>
      <point x="415" y="713" type="qcurve" smooth="yes"/>
      <point x="415" y="693"/>
      <point x="326" y="608" type="qcurve" smooth="yes"/>
      <point x="312" y="594"/>
      <point x="281" y="563"/>
    </contour>
  </outline>
</glyph>
<glyph name="uni030D" format="1">
  <advance width="0" height="0"/>
  <unicode hex="030D"/>
  <outline>
    <contour>
      <point x="-248" y="554" type="qcurve" smooth="yes"/>
      <point x="-261" y="554"/>
      <point x="-285" y="566"/>
      <point x="-285" y="579" type="qcurve" smooth="yes"/>
      <point x="-285" y="767" type="line" smooth="yes"/>
      <point x="-285" y="791"/>
      <point x="-247" y="791" type="qcurve" smooth="yes"/>
      <point x="-211" y="791"/>
      <point x="-211" y="766" type="qcurve" smooth="yes"/>
      <point x="-211" y="578" type="line" smooth="yes"/>
      <point x="-211" y="554"/>
    </contour>
  </outline>
</glyph>
<glyph name="dotbelowcomb" format="1">
  <advance width="0" height="0"/>
  <unicode hex="0323"/>
  <outline>
    <contour>
      <point x="-97" y="-187" type="qcurve" smooth="yes"/>
      <point x="-122" y="-187"/>
      <point x="-159" y="-143"/>
      <point x="-159" y="-120" type="qcurve" smooth="yes"/>
      <point x="-159" y="-96"/>
      <point x="-132" y="-66"/>
      <point x="-107" y="-66" type="qcurve" smooth="yes"/>
      <point x="-84" y="-66"/>
      <point x="-46" y="-110"/>
      <point x="-46" y="-134" type="qcurve" smooth="yes"/>
      <point x="-46" y="-157"/>
      <point x="-74" y="-187"/>
    </contour>
  </outline>
</glyph>
<glyph name="cedilla" format="1">
  <advance width="500" height="500"/>
  <unicode hex="0327"/>
  <unicode hex="00B8"/>
  <outline>
    <contour>
      <point x="208" y="-186"/>
      <point x="162" y="-163" type="qcurve" smooth="yes"/>
      <point x="149" y="-155"/>
      <point x="149" y="-136" type="qcurve" smooth="yes"/>
      <point x="149" y="-120"/>
      <point x="161" y="-91"/>
      <point x="171" y="-91" type="qcurve" smooth="yes"/>
      <point x="178" y="-91"/>
      <point x="191" y="-100" type="qcurve" smooth="yes"/>
      <point x="218" y="-119"/>
      <point x="274" y="-119"/>
      <point x="291" y="-110"/>
      <point x="291" y="-98" type="qcurve" smooth="yes"/>
      <point x="291" y="-78"/>
      <point x="260" y="-78" type="qcurve" smooth="yes"/>
      <point x="247" y="-78"/>
      <point x="224" y="-82" type="qcurve" smooth="yes"/>
      <point x="206" y="-82"/>
      <point x="183" y="-61"/>
      <point x="183" y="-49" type="qcurve" smooth="yes"/>
      <point x="183" y="-40"/>
      <point x="189" y="-24" type="qcurve" smooth="yes"/>
      <point x="197" y="-2"/>
      <point x="207" y="29" type="qcurve"/>
      <point x="285" y="23" type="line"/>
      <point x="271" y="-19" type="line"/>
      <point x="270" y="-19" type="line" smooth="yes"/>
      <point x="270" y="-20"/>
      <point x="282" y="-20" type="qcurve" smooth="yes"/>
      <point x="366" y="-20"/>
      <point x="366" y="-99" type="qcurve" smooth="yes"/>
      <point x="366" y="-139"/>
      <point x="306" y="-186"/>
    </contour>
  </outline>
</glyph>
<glyph name="uni0328" format="1">
  <advance width="0" height="0"/>
  <unicode hex="0328"/>
  <outline>
    <contour>
      <point x="204" y="-176"/>
      <point x="151" y="-126"/>
      <point x="151" y="-87" type="qcurve" smooth="yes"/>
      <point x="151" y="-14"/>
      <point x="201" y="30" type="qcurve"/>
      <point x="291" y="30" type="line"/>
      <point x="231" y="-27"/>
      <point x="231" y="-82" type="qcurve" smooth="yes"/>
      <point x="231" y="-109"/>
      <point x="266" y="-109" type="qcurve" smooth="yes"/>
      <point x="305" y="-109"/>
      <point x="336" y="-82" type="qcurve" smooth="yes"/>
      <point x="349" y="-69"/>
      <point x="362" y="-69" type="qcurve" smooth="yes"/>
      <point x="378" y="-69"/>
      <point x="378" y="-86" type="qcurve" smooth="yes"/>
      <point x="378" y="-100"/>
      <point x="343" y="-143"/>
      <point x="288" y="-176"/>
    </contour>
  </outline>
</glyph>
<glyph name="underscore" format="1">
  <advance width="500" height="500"/>
  <unicode hex="0332"/>
  <unicode hex="005F"/>
  <outline>
    <contour>
      <point x="495" y="-168" type="qcurve" smooth="yes"/>
      <point x="5" y="-168" type="line" smooth="yes"/>
      <point x="-20" y="-168"/>
      <point x="-20" y="-131" type="qcurve" smooth="yes"/>
      <point x="-20" y="-95"/>
      <point x="5" y="-95" type="qcurve" smooth="yes"/>
      <point x="495" y="-95" type="line" smooth="yes"/>
      <point x="520" y="-95"/>
      <point x="520" y="-131" type="qcurve" smooth="yes"/>
      <point x="520" y="-168"/>
    </contour>
  </outline>
</glyph>
<glyph name="uni0358" format="1">
  <advance width="0" height="0"/>
  <unicode hex="0358"/>
  <outline>
    <contour>
      <point x="-49" y="489" type="qcurve" smooth="yes"/>
      <point x="-71" y="489"/>
      <point x="-105" y="531"/>
      <point x="-105" y="555" type="qcurve" smooth="yes"/>
      <point x="-105" y="578"/>
      <point x="-76" y="609"/>
      <point x="-49" y="609" type="qcurve" smooth="yes"/>
      <point x="-28" y="609"/>
      <point x="6" y="565"/>
      <point x="6" y="541" type="qcurve" smooth="yes"/>
      <point x="6" y="520"/>
      <point x="-25" y="489"/>
    </contour>
  </outline>
</glyph>
<glyph name="uni0361" format="1">
  <advance width="1000" height="1000"/>
  <unicode hex="0361"/>
  <outline>
    <contour>
      <point x="882" y="615" type="qcurve" smooth="yes"/>
      <point x="873" y="615"/>
      <point x="862" y="623" type="qcurve" smooth="yes"/>
      <point x="794" y="681"/>
      <point x="576" y="747"/>
      <point x="473" y="747" type="qcurve" smooth="yes"/>
      <point x="391" y="747"/>
      <point x="193" y="684"/>
      <point x="132" y="625" type="qcurve" smooth="yes"/>
      <point x="124" y="617"/>
      <point x="114" y="617" type="qcurve" smooth="yes"/>
      <point x="105" y="617"/>
      <point x="91" y="629"/>
      <point x="91" y="649"/>
      <point x="98" y="659" type="qcurve" smooth="yes"/>
      <point x="160" y="735"/>
      <point x="363" y="833"/>
      <point x="473" y="833" type="qcurve" smooth="yes"/>
      <point x="593" y="833"/>
      <point x="823" y="741"/>
      <point x="895" y="658" type="qcurve" smooth="yes"/>
      <point x="903" y="648"/>
      <point x="903" y="638" type="qcurve" smooth="yes"/>
      <point x="903" y="615"/>
    </contour>
  </outline>
</glyph>
<glyph name="uni0374" format="1">
  <advance width="200" height="200"/>
  <unicode hex="0374"/>
  <outline>
    <contour>
      <point x="42" y="521" type="qcurve" smooth="yes"/>
      <point x="33" y="521"/>
      <point x="17" y="533"/>
      <point x="17" y="541" type="qcurve" smooth="yes"/>
      <point x="17" y="546"/>
      <point x="19" y="548" type="qcurve" smooth="yes"/>
      <point x="112" y="787" type="line" smooth="yes"/>
      <point x="118" y="803"/>
      <point x="142" y="803" type="qcurve" smooth="yes"/>
      <point x="164" y="803"/>
      <point x="205" y="781"/>
      <point x="205" y="764" type="qcurve" smooth="yes"/>
      <point x="205" y="758"/>
      <point x="61" y="531" type="qcurve" smooth="yes"/>
      <point x="55" y="521"/>
    </contour>
  </outline>
</glyph>
<glyph name="uni044C" format="1">
  <advance width="523" height="523"/>
  <unicode hex="044C"/>
  <outline>
    <contour>
      <point x="171" y="40" type="line"/>
      <point x="392" y="40"/>
      <point x="392" y="158" type="qcurve" smooth="yes"/>
      <point x="392" y="224"/>
      <point x="328" y="242" type="qcurve" smooth="yes"/>
      <point x="301" y="250"/>
      <point x="198" y="250"/>
      <point x="151" y="246" type="qcurve"/>
      <point x="151" y="41" type="line"/>
    </contour>
    <contour>
      <point x="197" y="-22" type="qcurve" smooth="yes"/>
      <point x="147" y="-21" type="line" smooth="yes"/>
      <point x="84" y="-17"/>
      <point x="39" y="-2"/>
      <point x="39" y="12" type="qcurve" smooth="yes"/>
      <point x="39" y="35"/>
      <point x="72" y="35" type="qcurve"/>
      <point x="72" y="375"/>
      <point x="69" y="472" type="qcurve" smooth="yes"/>
      <point x="69" y="488"/>
      <point x="112" y="488"/>
      <point x="153" y="471"/>
      <point x="153" y="454" type="qcurve" smooth="yes"/>
      <point x="151" y="380"/>
      <point x="151" y="313" type="qcurve"/>
      <point x="209" y="317"/>
      <point x="370" y="317"/>
      <point x="473" y="230"/>
      <point x="473" y="163" type="qcurve" smooth="yes"/>
      <point x="473" y="70"/>
      <point x="394" y="17" type="qcurve" smooth="yes"/>
      <point x="357" y="-8"/>
      <point x="270" y="-22"/>
    </contour>
  </outline>
</glyph>
<glyph name="uni0FD6" format="1">
  <advance width="1000" height="1000"/>
  <unicode hex="0FD6"/>
  <outline>
    <contour>
      <point x="147" y="-60" type="line"/>
      <point x="75" y="-60" type="line"/>
      <point x="75" y="403" type="line"/>
      <point x="464" y="403" type="line"/>
      <point x="464" y="720" type="line"/>
      <point x="74" y="720" type="line"/>
      <point x="74" y="792" type="line"/>
      <point x="536" y="792" type="line"/>
      <point x="536" y="403" type="line"/>
      <point x="853" y="403" type="line"/>
      <point x="853" y="794" type="line"/>
      <point x="925" y="794" type="line"/>
      <point x="925" y="331" type="line"/>
      <point x="536" y="331" type="line"/>
      <point x="536" y="14" type="line"/>
      <point x="926" y="14" type="line"/>
      <point x="926" y="-58" type="line"/>
      <point x="464" y="-58" type="line"/>
      <point x="464" y="331" type="line"/>
      <point x="147" y="331" type="line"/>
    </contour>
  </outline>
</glyph>
<glyph name="uni1E9E" format="1">
  <advance width="654" height="654"/>
  <unicode hex="1E9E"/>
  <outline>
    <contour>
      <point x="185" y="112" type="line"/>
      <point x="190" y="115"/>
      <point x="197" y="115" type="qcurve" smooth="yes"/>
      <point x="209" y="115"/>
      <point x="232" y="98" type="qcurve" smooth="yes"/>
      <point x="274" y="68"/>
      <point x="424" y="68"/>
      <point x="500" y="144"/>
      <point x="500" y="286"/>
      <point x="405" y="362"/>
      <point x="317" y="362" type="qcurve" smooth="yes"/>
      <point x="307" y="362" type="line" smooth="yes"/>
      <point x="276" y="362"/>
      <point x="239" y="352" type="qcurve"/>
      <point x="236" y="352" type="line" smooth="yes"/>
      <point x="220" y="352"/>
      <point x="196" y="395"/>
      <point x="196" y="431"/>
      <point x="211" y="431" type="qcurve" smooth="yes"/>
      <point x="339" y="435"/>
      <point x="403" y="495" type="qcurve" smooth="yes"/>
      <point x="434" y="525"/>
      <point x="434" y="571" type="qcurve" smooth="yes"/>
      <point x="434" y="655"/>
      <point x="331" y="655" type="qcurve" smooth="yes"/>
      <point x="241" y="655"/>
      <point x="205" y="581" type="qcurve" smooth="yes"/>
      <point x="185" y="541"/>
      <point x="185" y="472" type="qcurve" smooth="yes"/>
    </contour>
    <contour>
      <point x="187" y="71" type="qcurve"/>
      <point x="190" y="3" type="line" smooth="yes"/>
      <point x="190" y="-14"/>
      <point x="141" y="-14"/>
      <point x="96" y="4"/>
      <point x="96" y="21" type="qcurve" smooth="yes"/>
      <point x="96" y="22" type="line" smooth="yes"/>
      <point x="97" y="30"/>
      <point x="97" y="40" type="qcurve" smooth="yes"/>
      <point x="97" y="479" type="line" smooth="yes"/>
      <point x="97" y="617"/>
      <point x="172" y="680" type="qcurve" smooth="yes"/>
      <point x="234" y="732"/>
      <point x="419" y="732"/>
      <point x="525" y="643"/>
      <point x="525" y="508"/>
      <point x="434" y="422"/>
      <point x="414" y="416" type="qcurve"/>
      <point x="434" y="416"/>
      <point x="534" y="364"/>
      <point x="593" y="275"/>
      <point x="593" y="154"/>
      <point x="535" y="53"/>
      <point x="433" y="-8"/>
      <point x="297" y="-8"/>
      <point x="237" y="30" type="qcurve" smooth="yes"/>
      <point x="201" y="53"/>
    </contour>
  </outline>
</glyph>
<glyph name="uni1F73" format="1">
  <advance width="500" height="500"/>
  <unicode hex="1F73"/>
  <outline>
    <contour>
      <point x="269" y="-24" type="qcurve" smooth="yes"/>
      <point x="164" y="-24"/>
      <point x="47" y="62"/>
      <point x="47" y="202"/>
      <point x="113" y="243" type="qcurve" smooth="yes"/>
      <point x="140" y="260" type="line"/>
      <point x="128" y="263"/>
      <point x="67" y="321"/>
      <point x="67" y="419"/>
      <point x="164" y="492"/>
      <point x="252" y="492" type="qcurve" smooth="yes"/>
      <point x="302" y="492"/>
      <point x="390" y="458"/>
      <point x="430" y="430"/>
      <point x="430" y="414" type="qcurve" smooth="yes"/>
      <point x="430" y="399"/>
      <point x="411" y="359"/>
      <point x="398" y="359" type="qcurve" smooth="yes"/>
      <point x="386" y="359"/>
      <point x="367" y="374" type="qcurve" smooth="yes"/>
      <point x="317" y="422"/>
      <point x="251" y="422" type="qcurve" smooth="yes"/>
      <point x="150" y="422"/>
      <point x="150" y="365" type="qcurve" smooth="yes"/>
      <point x="150" y="289"/>
      <point x="348" y="281" type="qcurve" smooth="yes"/>
      <point x="365" y="281"/>
      <point x="365" y="260" type="qcurve" smooth="yes"/>
      <point x="365" y="243"/>
      <point x="347" y="205"/>
      <point x="328" y="205" type="qcurve" smooth="yes"/>
      <point x="282" y="214"/>
      <point x="251" y="214" type="qcurve" smooth="yes"/>
      <point x="192" y="214"/>
      <point x="130" y="165"/>
      <point x="130" y="129" type="qcurve" smooth="yes"/>
      <point x="130" y="92"/>
      <point x="207" y="48"/>
      <point x="317" y="48"/>
      <point x="385" y="63"/>
      <point x="431" y="90"/>
      <point x="440" y="90" type="qcurve" smooth="yes"/>
      <point x="463" y="90"/>
      <point x="463" y="67" type="qcurve" smooth="yes"/>
      <point x="463" y="51"/>
      <point x="408" y="9"/>
      <point x="321" y="-24"/>
    </contour>
    <contour>
      <point x="165" y="568"/>
      <point x="151" y="582"/>
      <point x="151" y="591" type="qcurve" smooth="yes"/>
      <point x="151" y="599"/>
      <point x="191" y="642"/>
      <point x="304" y="717" type="qcurve" smooth="yes"/>
      <point x="308" y="719"/>
      <point x="316" y="719" type="qcurve" smooth="yes"/>
      <point x="325" y="719"/>
      <point x="339" y="709" type="qcurve" smooth="yes"/>
      <point x="378" y="682"/>
      <point x="378" y="659" type="qcurve" smooth="yes"/>
      <point x="378" y="648"/>
      <point x="367" y="643" type="qcurve" smooth="yes"/>
      <point x="318" y="625"/>
      <point x="222" y="592"/>
      <point x="181" y="568"/>
    </contour>
  </outline>
</glyph>
<glyph name="uni2010" format="1">
  <advance width="1000" height="1000"/>
  <unicode hex="2010"/>
  <outline>
    <contour>
      <point x="685" y="344" type="qcurve" smooth="yes"/>
      <point x="315" y="344" type="line" smooth="yes"/>
      <point x="287" y="344"/>
      <point x="287" y="381" type="qcurve" smooth="yes"/>
      <point x="287" y="394"/>
      <point x="301" y="417"/>
      <point x="315" y="417" type="qcurve" smooth="yes"/>
      <point x="685" y="417" type="line" smooth="yes"/>
      <point x="699" y="417"/>
      <point x="714" y="394"/>
      <point x="714" y="381" type="qcurve" smooth="yes"/>
      <point x="714" y="367"/>
      <point x="699" y="344"/>
    </contour>
  </outline>
</glyph>
<glyph name="figuredash" format="1">
  <advance width="500" height="500"/>
  <unicode hex="2013"/>
  <unicode hex="2012"/>
  <outline>
    <contour>
      <point x="495" y="222" type="qcurve" smooth="yes"/>
      <point x="5" y="222" type="line" smooth="yes"/>
      <point x="-20" y="222"/>
      <point x="-20" y="260" type="qcurve" smooth="yes"/>
      <point x="-20" y="297"/>
      <point x="5" y="297" type="qcurve" smooth="yes"/>
      <point x="495" y="297" type="line" smooth="yes"/>
      <point x="520" y="297"/>
      <point x="520" y="260" type="qcurve" smooth="yes"/>
      <point x="520" y="222"/>
    </contour>
  </outline>
</glyph>
<glyph name="uni0336" format="1">
  <advance width="1000" height="1000"/>
  <unicode hex="2014"/>
  <unicode hex="0336"/>
  <outline>
    <contour>
      <point x="995" y="219" type="qcurve" smooth="yes"/>
      <point x="5" y="219" type="line" smooth="yes"/>
      <point x="-20" y="219"/>
      <point x="-20" y="289"/>
      <point x="5" y="289" type="qcurve" smooth="yes"/>
      <point x="995" y="289" type="line" smooth="yes"/>
      <point x="1020" y="289"/>
      <point x="1020" y="219"/>
    </contour>
  </outline>
</glyph>
<glyph name="dagger" format="1">
  <advance width="1000" height="1000"/>
  <unicode hex="2020"/>
  <outline>
    <contour>
      <point x="505" y="-40" type="qcurve" smooth="yes"/>
      <point x="490" y="-40"/>
      <point x="460" y="-27"/>
      <point x="460" y="-12" type="qcurve" smooth="yes"/>
      <point x="463" y="20"/>
      <point x="463" y="501" type="qcurve"/>
      <point x="361" y="499"/>
      <point x="336" y="497" type="qcurve" smooth="yes"/>
      <point x="323" y="497"/>
      <point x="309" y="529"/>
      <point x="309" y="549" type="qcurve" smooth="yes"/>
      <point x="309" y="574"/>
      <point x="331" y="574" type="qcurve" smooth="yes"/>
      <point x="365" y="572"/>
      <point x="418" y="572" type="qcurve" smooth="yes"/>
      <point x="463" y="573" type="line"/>
      <point x="463" y="729"/>
      <point x="461" y="759" type="qcurve" smooth="yes"/>
      <point x="461" y="781"/>
      <point x="493" y="781" type="qcurve" smooth="yes"/>
      <point x="508" y="781"/>
      <point x="540" y="768"/>
      <point x="540" y="754" type="qcurve" smooth="yes"/>
      <point x="537" y="718"/>
      <point x="537" y="574" type="qcurve"/>
      <point x="602" y="575"/>
      <point x="661" y="578" type="qcurve" smooth="yes"/>
      <point x="676" y="578"/>
      <point x="690" y="549"/>
      <point x="690" y="536" type="qcurve" smooth="yes"/>
      <point x="690" y="502"/>
      <point x="667" y="502" type="qcurve" smooth="yes"/>
      <point x="584" y="503" type="line"/>
      <point x="537" y="502" type="line"/>
      <point x="537" y="65"/>
      <point x="538" y="-18" type="qcurve" smooth="yes"/>
      <point x="538" y="-40"/>
    </contour>
  </outline>
</glyph>
<glyph name="twodotenleader" format="1">
  <advance width="1000" height="1000"/>
  <unicode hex="2025"/>
  <outline>
    <contour>
      <point x="227" y="320"/>
      <point x="192" y="365"/>
      <point x="192" y="413"/>
      <point x="226" y="440"/>
      <point x="249" y="440" type="qcurve" smooth="yes"/>
      <point x="273" y="440"/>
      <point x="309" y="395"/>
      <point x="309" y="373" type="qcurve" smooth="yes"/>
      <point x="309" y="350"/>
      <point x="281" y="320"/>
    </contour>
    <contour>
      <point x="726" y="320"/>
      <point x="691" y="365"/>
      <point x="691" y="413"/>
      <point x="725" y="440"/>
      <point x="748" y="440" type="qcurve" smooth="yes"/>
      <point x="772" y="440"/>
      <point x="808" y="395"/>
      <point x="808" y="373" type="qcurve" smooth="yes"/>
      <point x="808" y="350"/>
      <point x="780" y="320"/>
    </contour>
  </outline>
</glyph>
<glyph name="ellipsis" format="1">
  <advance width="1000" height="1000"/>
  <unicode hex="2026"/>
  <outline>
    <contour>
      <point x="145" y="320"/>
      <point x="110" y="365"/>
      <point x="110" y="413"/>
      <point x="144" y="440"/>
      <point x="167" y="440" type="qcurve" smooth="yes"/>
      <point x="191" y="440"/>
      <point x="227" y="395"/>
      <point x="227" y="373" type="qcurve" smooth="yes"/>
      <point x="227" y="350"/>
      <point x="199" y="320"/>
    </contour>
    <contour>
      <point x="477" y="320"/>
      <point x="442" y="365"/>
      <point x="442" y="413"/>
      <point x="476" y="440"/>
      <point x="499" y="440" type="qcurve" smooth="yes"/>
      <point x="523" y="440"/>
      <point x="559" y="395"/>
      <point x="559" y="373" type="qcurve" smooth="yes"/>
      <point x="559" y="350"/>
      <point x="531" y="320"/>
    </contour>
    <contour>
      <point x="809" y="320"/>
      <point x="774" y="365"/>
      <point x="774" y="413"/>
      <point x="808" y="440"/>
      <point x="831" y="440" type="qcurve" smooth="yes"/>
      <point x="855" y="440"/>
      <point x="891" y="395"/>
      <point x="891" y="373" type="qcurve" smooth="yes"/>
      <point x="891" y="350"/>
      <point x="863" y="320"/>
    </contour>
  </outline>
</glyph>
<glyph name="uni2035" format="1">
  <advance width="500" height="500"/>
  <unicode hex="2035"/>
  <outline>
    <contour>
      <point x="261" y="809" type="qcurve" smooth="yes"/>
      <point x="326" y="610" type="line" smooth="yes"/>
      <point x="328" y="608"/>
      <point x="328" y="589"/>
      <point x="295" y="571"/>
      <point x="262" y="571"/>
      <point x="257" y="584" type="qcurve" smooth="yes"/>
      <point x="180" y="780" type="line" smooth="yes"/>
      <point x="178" y="783"/>
      <point x="178" y="787" type="qcurve" smooth="yes"/>
      <point x="178" y="803"/>
      <point x="215" y="825"/>
      <point x="257" y="825"/>
    </contour>
  </outline>
</glyph>
<glyph name="uni203B" format="1">
  <advance width="1000" height="1000"/>
  <unicode hex="203B"/>
  <outline>
    <contour>
      <point x="511" y="29" type="qcurve" smooth="yes"/>
      <point x="485" y="29"/>
      <point x="447" y="75"/>
      <point x="447" y="123"/>
      <point x="475" y="155"/>
      <point x="500" y="155" type="qcurve" smooth="yes"/>
      <point x="524" y="155"/>
      <point x="564" y="109"/>
      <point x="564" y="85" type="qcurve" smooth="yes"/>
      <point x="564" y="60"/>
      <point x="536" y="29"/>
    </contour>
    <contour>
      <point x="230" y="305" type="qcurve" smooth="yes"/>
      <point x="204" y="305"/>
      <point x="166" y="351"/>
      <point x="166" y="399"/>
      <point x="194" y="431"/>
      <point x="219" y="431" type="qcurve" smooth="yes"/>
      <point x="243" y="431"/>
      <point x="283" y="385"/>
      <point x="283" y="361" type="qcurve" smooth="yes"/>
      <point x="283" y="336"/>
      <point x="255" y="305"/>
    </contour>
    <contour>
      <point x="789" y="305" type="qcurve" smooth="yes"/>
      <point x="763" y="305"/>
      <point x="725" y="351"/>
      <point x="725" y="399"/>
      <point x="753" y="431"/>
      <point x="778" y="431" type="qcurve" smooth="yes"/>
      <point x="802" y="431"/>
      <point x="842" y="385"/>
      <point x="842" y="361" type="qcurve" smooth="yes"/>
      <point x="842" y="336"/>
      <point x="814" y="305"/>
    </contour>
    <contour>
      <point x="202" y="28"/>
      <point x="179" y="61"/>
      <point x="179" y="91"/>
      <point x="192" y="103" type="qcurve" smooth="yes"/>
      <point x="232" y="136"/>
      <point x="245" y="149" type="qcurve" smooth="yes"/>
      <point x="451" y="356" type="line"/>
      <point x="206" y="601"/>
      <point x="189" y="614" type="qcurve" smooth="yes"/>
      <point x="181" y="621"/>
      <point x="181" y="636" type="qcurve" smooth="yes"/>
      <point x="181" y="650"/>
      <point x="203" y="685"/>
      <point x="215" y="685" type="qcurve" smooth="yes"/>
      <point x="226" y="685"/>
      <point x="234" y="677" type="qcurve" smooth="yes"/>
      <point x="246" y="663"/>
      <point x="501" y="406" type="qcurve"/>
      <point x="744" y="649"/>
      <point x="764" y="673" type="qcurve" smooth="yes"/>
      <point x="772" y="681"/>
      <point x="794" y="681"/>
      <point x="818" y="646"/>
      <point x="818" y="632" type="qcurve" smooth="yes"/>
      <point x="818" y="617"/>
      <point x="801" y="603"/>
      <point x="552" y="356" type="qcurve"/>
      <point x="758" y="149"/>
      <point x="800" y="113" type="qcurve" smooth="yes"/>
      <point x="814" y="101"/>
      <point x="814" y="86" type="qcurve" smooth="yes"/>
      <point x="814" y="72"/>
      <point x="790" y="38"/>
      <point x="779" y="38" type="qcurve" smooth="yes"/>
      <point x="769" y="38"/>
      <point x="762" y="45" type="qcurve" smooth="yes"/>
      <point x="502" y="306" type="line"/>
      <point x="280" y="86"/>
      <point x="226" y="28"/>
    </contour>
    <contour>
      <point x="511" y="572" type="qcurve" smooth="yes"/>
      <point x="485" y="572"/>
      <point x="447" y="618"/>
      <point x="447" y="666"/>
      <point x="475" y="698"/>
      <point x="500" y="698" type="qcurve" smooth="yes"/>
      <point x="524" y="698"/>
      <point x="564" y="652"/>
      <point x="564" y="628" type="qcurve" smooth="yes"/>
      <point x="564" y="603"/>
      <point x="536" y="572"/>
    </contour>
  </outline>
</glyph>
<glyph name="uni2047" format="1">
  <advance width="1000" height="1000"/>
  <unicode hex="2047"/>
  <outline>
    <contour>
      <point x="664" y="-15" type="qcurve" smooth="yes"/>
      <point x="637" y="-15"/>
      <point x="602" y="27"/>
      <point x="602" y="74"/>
      <point x="631" y="107"/>
      <point x="683" y="107"/>
      <point x="719" y="62"/>
      <point x="719" y="39" type="qcurve" smooth="yes"/>
      <point x="719" y="-15"/>
    </contour>
    <contour>
      <point x="304" y="-15" type="qcurve" smooth="yes"/>
      <point x="277" y="-15"/>
      <point x="242" y="27"/>
      <point x="242" y="74"/>
      <point x="271" y="107"/>
      <point x="323" y="107"/>
      <point x="359" y="62"/>
      <point x="359" y="39" type="qcurve" smooth="yes"/>
      <point x="359" y="-15"/>
    </contour>
    <contour>
      <point x="706" y="185" type="qcurve"/>
      <point x="706" y="162"/>
      <point x="631" y="162"/>
      <point x="617" y="200"/>
      <point x="617" y="247"/>
      <point x="627" y="316"/>
      <point x="671" y="375"/>
      <point x="726" y="423"/>
      <point x="753" y="446" type="qcurve" smooth="yes"/>
      <point x="813" y="500"/>
      <point x="813" y="568" type="qcurve" smooth="yes"/>
      <point x="813" y="602"/>
      <point x="770" y="648"/>
      <point x="674" y="648"/>
      <point x="593" y="611"/>
      <point x="544" y="561"/>
      <point x="532" y="522" type="qcurve"/>
      <point x="519" y="452"/>
      <point x="411" y="368" type="qcurve" smooth="yes"/>
      <point x="382" y="346"/>
      <point x="336" y="291"/>
      <point x="336" y="225"/>
      <point x="346" y="185" type="qcurve"/>
      <point x="346" y="162"/>
      <point x="271" y="162"/>
      <point x="257" y="200"/>
      <point x="257" y="247"/>
      <point x="267" y="316"/>
      <point x="311" y="375"/>
      <point x="366" y="423"/>
      <point x="393" y="446" type="qcurve" smooth="yes"/>
      <point x="453" y="500"/>
      <point x="453" y="568" type="qcurve" smooth="yes"/>
      <point x="453" y="602"/>
      <point x="410" y="648"/>
      <point x="314" y="648"/>
      <point x="233" y="611"/>
      <point x="183" y="560"/>
      <point x="171" y="517" type="qcurve" smooth="yes"/>
      <point x="165" y="500"/>
      <point x="130" y="500"/>
      <point x="94" y="530"/>
      <point x="94" y="556"/>
      <point x="97" y="560" type="qcurve" smooth="yes"/>
      <point x="187" y="719"/>
      <point x="360" y="719" type="qcurve" smooth="yes"/>
      <point x="486" y="719"/>
      <point x="522" y="645" type="qcurve"/>
      <point x="596" y="719"/>
      <point x="720" y="719" type="qcurve" smooth="yes"/>
      <point x="804" y="719"/>
      <point x="898" y="642"/>
      <point x="898" y="521"/>
      <point x="850" y="430"/>
      <point x="771" y="368" type="qcurve" smooth="yes"/>
      <point x="742" y="346"/>
      <point x="696" y="291"/>
      <point x="696" y="225"/>
    </contour>
  </outline>
</glyph>
<glyph name="peseta" format="1">
  <advance width="1000" height="1000"/>
  <unicode hex="20A7"/>
  <outline>
    <contour>
      <point x="745" y="617" type="qcurve" smooth="yes"/>
      <point x="743" y="528" type="line"/>
      <point x="743" y="486" type="line"/>
      <point x="765" y="487" type="line" smooth="yes"/>
      <point x="801" y="489"/>
      <point x="841" y="493" type="qcurve"/>
      <point x="842" y="493" type="line" smooth="yes"/>
      <point x="858" y="493"/>
      <point x="880" y="459"/>
      <point x="880" y="423"/>
      <point x="863" y="423" type="qcurve" smooth="yes"/>
      <point x="824" y="423" type="line" smooth="yes"/>
      <point x="796" y="423"/>
      <point x="776" y="422" type="qcurve" smooth="yes"/>
      <point x="743" y="421" type="line"/>
      <point x="743" y="108" type="line" smooth="yes"/>
      <point x="743" y="70"/>
      <point x="754" y="52"/>
      <point x="770" y="52" type="qcurve" smooth="yes"/>
      <point x="810" y="52"/>
      <point x="862" y="92" type="qcurve" smooth="yes"/>
      <point x="881" y="106"/>
      <point x="909" y="106"/>
      <point x="909" y="90" type="qcurve" smooth="yes"/>
      <point x="909" y="66"/>
      <point x="862" y="22" type="qcurve" smooth="yes"/>
      <point x="810" y="-24"/>
      <point x="709" y="-24"/>
      <point x="663" y="44"/>
      <point x="663" y="110" type="qcurve" smooth="yes"/>
      <point x="663" y="418" type="line"/>
      <point x="654" y="417"/>
      <point x="603" y="414" type="qcurve" smooth="yes"/>
      <point x="602" y="414" type="line" smooth="yes"/>
      <point x="587" y="414"/>
      <point x="576" y="432" type="qcurve" smooth="yes"/>
      <point x="566" y="445"/>
      <point x="564" y="459" type="qcurve"/>
      <point x="550" y="427"/>
      <point x="524" y="403" type="qcurve" smooth="yes"/>
      <point x="429" y="314"/>
      <point x="215" y="314" type="qcurve" smooth="yes"/>
      <point x="200" y="314" type="line" smooth="yes"/>
      <point x="185" y="314"/>
      <point x="182" y="315" type="qcurve" smooth="yes"/>
      <point x="182" y="115" type="line"/>
      <point x="185" y="-1" type="line" smooth="yes"/>
      <point x="185" y="-17"/>
      <point x="141" y="-17"/>
      <point x="98" y="0"/>
      <point x="98" y="17" type="qcurve" smooth="yes"/>
      <point x="100" y="116" type="line"/>
      <point x="100" y="612" type="line"/>
      <point x="105" y="612" type="line" smooth="yes"/>
      <point x="87" y="612"/>
      <point x="54" y="652"/>
      <point x="54" y="682"/>
      <point x="68" y="684" type="qcurve" smooth="yes"/>
      <point x="234" y="716"/>
      <point x="293" y="717"/>
      <point x="320" y="717" type="qcurve" smooth="yes"/>
      <point x="581" y="717"/>
      <point x="581" y="542" type="qcurve" smooth="yes"/>
      <point x="581" y="509"/>
      <point x="573" y="481" type="qcurve"/>
      <point x="577" y="483"/>
      <point x="582" y="483" type="qcurve" smooth="yes"/>
      <point x="663" y="483" type="line"/>
      <point x="663" y="528" type="line"/>
      <point x="661" y="635" type="line" smooth="yes"/>
      <point x="661" y="651"/>
      <point x="704" y="651"/>
      <point x="745" y="634"/>
    </contour>
    <contour>
      <point x="318" y="642" type="qcurve" smooth="yes"/>
      <point x="248" y="642"/>
      <point x="182" y="623" type="qcurve"/>
      <point x="182" y="373" type="line" smooth="yes"/>
      <point x="180" y="372"/>
      <point x="189" y="372" type="qcurve" smooth="yes"/>
      <point x="354" y="383"/>
      <point x="497" y="479"/>
      <point x="497" y="541" type="qcurve" smooth="yes"/>
      <point x="497" y="642"/>
    </contour>
  </outline>
</glyph>
<glyph name="uni20DD" format="1">
  <advance width="1000" height="1000"/>
  <unicode hex="20DD"/>
  <outline>
    <contour>
      <point x="500" y="-118" type="qcurve" smooth="yes"/>
      <point x="366" y="-118"/>
      <point x="146" y="13"/>
      <point x="14" y="233"/>
      <point x="14" y="367" type="qcurve" smooth="yes"/>
      <point x="14" y="502"/>
      <point x="146" y="721"/>
      <point x="366" y="853"/>
      <point x="500" y="853" type="qcurve" smooth="yes"/>
      <point x="635" y="853"/>
      <point x="854" y="721"/>
      <point x="986" y="502"/>
      <point x="986" y="367" type="qcurve" smooth="yes"/>
      <point x="986" y="233"/>
      <point x="854" y="13"/>
      <point x="635" y="-118"/>
    </contour>
    <contour>
      <point x="617" y="-57"/>
      <point x="811" y="57"/>
      <point x="925" y="250"/>
      <point x="925" y="484"/>
      <point x="811" y="678"/>
      <point x="617" y="792"/>
      <point x="383" y="792"/>
      <point x="189" y="678"/>
      <point x="75" y="484"/>
      <point x="75" y="250"/>
      <point x="189" y="57"/>
      <point x="383" y="-57"/>
    </contour>
  </outline>
</glyph>
<glyph name="uni2109" format="1">
  <advance width="1000" height="1000"/>
  <unicode hex="2109"/>
  <outline>
    <contour>
      <point x="413" y="-15" type="qcurve" smooth="yes"/>
      <point x="393" y="-15"/>
      <point x="350" y="2"/>
      <point x="350" y="19" type="qcurve" smooth="yes"/>
      <point x="352" y="108"/>
      <point x="352" y="340" type="qcurve"/>
      <point x="342" y="346"/>
      <point x="325" y="381"/>
      <point x="325" y="393" type="qcurve" smooth="yes"/>
      <point x="325" y="410"/>
      <point x="341" y="410" type="qcurve" smooth="yes"/>
      <point x="352" y="408" type="line"/>
      <point x="352" y="634" type="line"/>
      <point x="348" y="685" type="line" smooth="yes"/>
      <point x="348" y="705"/>
      <point x="368" y="705" type="qcurve" smooth="yes"/>
      <point x="383" y="705"/>
      <point x="403" y="699" type="qcurve" smooth="yes"/>
      <point x="423" y="692" type="line"/>
      <point x="705" y="711"/>
      <point x="740" y="715" type="qcurve" smooth="yes"/>
      <point x="766" y="718"/>
      <point x="778" y="718" type="qcurve" smooth="yes"/>
      <point x="792" y="718"/>
      <point x="815" y="679"/>
      <point x="815" y="661" type="qcurve" smooth="yes"/>
      <point x="815" y="639"/>
      <point x="796" y="639" type="qcurve" smooth="yes"/>
      <point x="708" y="639"/>
      <point x="434" y="620" type="qcurve"/>
      <point x="434" y="409" type="line"/>
      <point x="649" y="423"/>
      <point x="685" y="427" type="qcurve" smooth="yes"/>
      <point x="711" y="430"/>
      <point x="723" y="430" type="qcurve" smooth="yes"/>
      <point x="737" y="430"/>
      <point x="760" y="391"/>
      <point x="760" y="373" type="qcurve" smooth="yes"/>
      <point x="760" y="351"/>
      <point x="741" y="351" type="qcurve" smooth="yes"/>
      <point x="656" y="351"/>
      <point x="434" y="338" type="qcurve"/>
      <point x="434" y="107"/>
      <point x="437" y="1" type="qcurve" smooth="yes"/>
      <point x="437" y="-15"/>
    </contour>
    <contour>
      <point x="210" y="635" type="qcurve" smooth="yes"/>
      <point x="230" y="635"/>
      <point x="258" y="663"/>
      <point x="258" y="684" type="qcurve" smooth="yes"/>
      <point x="258" y="703"/>
      <point x="230" y="731"/>
      <point x="210" y="731" type="qcurve" smooth="yes"/>
      <point x="189" y="731"/>
      <point x="161" y="703"/>
      <point x="161" y="684" type="qcurve" smooth="yes"/>
      <point x="161" y="663"/>
      <point x="189" y="635"/>
    </contour>
    <contour>
      <point x="210" y="579" type="qcurve" smooth="yes"/>
      <point x="167" y="579"/>
      <point x="105" y="641"/>
      <point x="105" y="727"/>
      <point x="167" y="787"/>
      <point x="210" y="787" type="qcurve" smooth="yes"/>
      <point x="252" y="787"/>
      <point x="314" y="727"/>
      <point x="314" y="641"/>
      <point x="252" y="579"/>
    </contour>
  </outline>
</glyph>
<glyph name="uni210A" format="1">
  <advance width="1000" height="1000"/>
  <unicode hex="210A"/>
  <outline>
    <contour>
      <point x="432" y="73" type="qcurve" smooth="yes"/>
      <point x="520" y="73"/>
      <point x="582" y="142" type="qcurve" smooth="yes"/>
      <point x="625" y="190"/>
      <point x="628" y="263" type="qcurve" smooth="yes"/>
      <point x="629" y="290"/>
      <point x="629" y="372" type="qcurve" smooth="yes"/>
      <point x="629" y="373"/>
      <point x="605" y="373"/>
      <point x="598" y="381" type="qcurve" smooth="yes"/>
      <point x="569" y="421"/>
      <point x="504" y="421" type="qcurve" smooth="yes"/>
      <point x="474" y="421"/>
      <point x="413" y="385"/>
      <point x="391" y="354" type="qcurve" smooth="yes"/>
      <point x="341" y="289"/>
      <point x="341" y="212" type="qcurve" smooth="yes"/>
      <point x="341" y="73"/>
    </contour>
    <contour>
      <point x="452" y="-181" type="qcurve" smooth="yes"/>
      <point x="382" y="-181"/>
      <point x="297" y="-132"/>
      <point x="269" y="-88" type="qcurve" smooth="yes"/>
      <point x="265" y="-82"/>
      <point x="265" y="-70" type="qcurve" smooth="yes"/>
      <point x="265" y="-59"/>
      <point x="299" y="-22"/>
      <point x="329" y="-22"/>
      <point x="335" y="-36" type="qcurve" smooth="yes"/>
      <point x="352" y="-75"/>
      <point x="404" y="-108"/>
      <point x="504" y="-108"/>
      <point x="582" y="-69"/>
      <point x="628" y="2"/>
      <point x="628" y="51" type="qcurve" smooth="yes"/>
      <point x="628" y="97" type="line"/>
      <point x="569" y="1"/>
      <point x="440" y="1" type="qcurve" smooth="yes"/>
      <point x="358" y="1"/>
      <point x="261" y="109"/>
      <point x="261" y="317"/>
      <point x="409" y="492"/>
      <point x="601" y="492"/>
      <point x="628" y="447" type="qcurve"/>
      <point x="626" y="475" type="line" smooth="yes"/>
      <point x="626" y="491"/>
      <point x="650" y="491" type="qcurve" smooth="yes"/>
      <point x="668" y="491"/>
      <point x="709" y="474"/>
      <point x="709" y="457" type="qcurve" smooth="yes"/>
      <point x="705" y="381"/>
      <point x="705" y="358" type="qcurve" smooth="yes"/>
      <point x="705" y="50" type="line" smooth="yes"/>
      <point x="705" y="-25"/>
      <point x="635" y="-128"/>
      <point x="521" y="-181"/>
    </contour>
  </outline>
</glyph>
<glyph name="uni2113" format="1">
  <advance width="1000" height="1000"/>
  <unicode hex="2113"/>
  <outline>
    <contour>
      <point x="443" y="229" type="qcurve"/>
      <point x="517" y="297"/>
      <point x="609" y="524"/>
      <point x="609" y="592" type="qcurve" smooth="yes"/>
      <point x="609" y="655"/>
      <point x="583" y="655" type="qcurve" smooth="yes"/>
      <point x="531" y="655"/>
      <point x="439" y="440"/>
      <point x="439" y="300" type="qcurve" smooth="yes"/>
      <point x="439" y="259"/>
    </contour>
    <contour>
      <point x="557" y="-17" type="qcurve" smooth="yes"/>
      <point x="443" y="-17"/>
      <point x="399" y="100" type="qcurve"/>
      <point x="334" y="55"/>
      <point x="316" y="55" type="qcurve" smooth="yes"/>
      <point x="296" y="55"/>
      <point x="267" y="94"/>
      <point x="267" y="107" type="qcurve" smooth="yes"/>
      <point x="267" y="122"/>
      <point x="279" y="127" type="qcurve" smooth="yes"/>
      <point x="326" y="141"/>
      <point x="376" y="174" type="qcurve"/>
      <point x="363" y="236"/>
      <point x="363" y="308" type="qcurve" smooth="yes"/>
      <point x="363" y="431"/>
      <point x="424" y="617"/>
      <point x="523" y="724"/>
      <point x="578" y="724" type="qcurve" smooth="yes"/>
      <point x="683" y="724"/>
      <point x="683" y="592" type="qcurve" smooth="yes"/>
      <point x="683" y="505"/>
      <point x="637" y="390" type="qcurve" smooth="yes"/>
      <point x="579" y="247"/>
      <point x="462" y="147" type="qcurve"/>
      <point x="474" y="109"/>
      <point x="513" y="57"/>
      <point x="547" y="57" type="qcurve" smooth="yes"/>
      <point x="582" y="57"/>
      <point x="634" y="109"/>
      <point x="657" y="173" type="qcurve" smooth="yes"/>
      <point x="667" y="195"/>
      <point x="684" y="195" type="qcurve" smooth="yes"/>
      <point x="708" y="195"/>
      <point x="708" y="170" type="qcurve" smooth="yes"/>
      <point x="708" y="150"/>
      <point x="679" y="74"/>
      <point x="662" y="47" type="qcurve" smooth="yes"/>
      <point x="621" y="-17"/>
    </contour>
  </outline>
</glyph>
<glyph name="uni212B" format="1">
  <advance width="1000" height="1000"/>
  <unicode hex="212B"/>
  <outline>
    <contour>
      <point x="369" y="231" type="qcurve"/>
      <point x="622" y="242" type="line"/>
      <point x="540" y="431"/>
      <point x="505" y="525" type="qcurve"/>
      <point x="427" y="353"/>
    </contour>
    <contour>
      <point x="782" y="-75" type="qcurve" smooth="yes"/>
      <point x="756" y="-75"/>
      <point x="750" y="-59" type="qcurve" smooth="yes"/>
      <point x="731" y="-3"/>
      <point x="709" y="47" type="qcurve" smooth="yes"/>
      <point x="652" y="173" type="line"/>
      <point x="333" y="159" type="line"/>
      <point x="250" y="-13"/>
      <point x="236" y="-52" type="qcurve" smooth="yes"/>
      <point x="228" y="-73"/>
      <point x="186" y="-73" type="qcurve" smooth="yes"/>
      <point x="142" y="-73"/>
      <point x="142" y="-48" type="qcurve" smooth="yes"/>
      <point x="142" y="-40"/>
      <point x="151" y="-28"/>
      <point x="159" y="-13"/>
      <point x="178" y="23"/>
      <point x="217" y="96"/>
      <point x="245" y="152" type="qcurve"/>
      <point x="248" y="152" type="line" smooth="yes"/>
      <point x="232" y="152"/>
      <point x="210" y="193"/>
      <point x="210" y="210" type="qcurve" smooth="yes"/>
      <point x="210" y="231"/>
      <point x="228" y="231" type="qcurve" smooth="yes"/>
      <point x="247" y="229"/>
      <point x="283" y="229" type="qcurve"/>
      <point x="456" y="574"/>
      <point x="461" y="621" type="qcurve" smooth="yes"/>
      <point x="463" y="641"/>
      <point x="470" y="649" type="qcurve" smooth="yes"/>
      <point x="473" y="653"/>
      <point x="479" y="655" type="qcurve"/>
      <point x="456" y="661"/>
      <point x="437" y="680" type="qcurve" smooth="yes"/>
      <point x="409" y="708"/>
      <point x="409" y="784"/>
      <point x="465" y="840"/>
      <point x="541" y="840"/>
      <point x="597" y="784"/>
      <point x="597" y="708"/>
      <point x="569" y="680" type="qcurve" smooth="yes"/>
      <point x="546" y="657"/>
      <point x="517" y="653" type="qcurve"/>
      <point x="524" y="651"/>
      <point x="532" y="647" type="qcurve" smooth="yes"/>
      <point x="553" y="637"/>
      <point x="557" y="620" type="qcurve"/>
      <point x="554" y="600" type="line" smooth="yes"/>
      <point x="554" y="588"/>
      <point x="608" y="462" type="qcurve" smooth="yes"/>
      <point x="772" y="68"/>
      <point x="834" y="-21" type="qcurve" smooth="yes"/>
      <point x="846" y="-38"/>
      <point x="846" y="-44" type="qcurve" smooth="yes"/>
      <point x="846" y="-60"/>
      <point x="805" y="-75"/>
    </contour>
    <contour>
      <point x="504" y="706" type="qcurve" smooth="yes"/>
      <point x="520" y="706"/>
      <point x="543" y="729"/>
      <point x="543" y="747" type="qcurve" smooth="yes"/>
      <point x="543" y="764"/>
      <point x="521" y="786"/>
      <point x="504" y="786" type="qcurve" smooth="yes"/>
      <point x="486" y="786"/>
      <point x="463" y="763"/>
      <point x="463" y="747" type="qcurve" smooth="yes"/>
      <point x="463" y="729"/>
      <point x="486" y="706"/>
    </contour>
  </outline>
</glyph>
<glyph name="aleph" format="1">
  <advance width="1000" height="1000"/>
  <unicode hex="2135"/>
  <outline>
    <contour>
      <point x="214" y="-58" type="qcurve" smooth="yes"/>
      <point x="202" y="-58"/>
      <point x="202" y="-45" type="qcurve" smooth="yes"/>
      <point x="202" y="-37"/>
      <point x="226" y="-6"/>
      <point x="252" y="33"/>
      <point x="252" y="91"/>
      <point x="226" y="134"/>
      <point x="197" y="178"/>
      <point x="197" y="244"/>
      <point x="253" y="316"/>
      <point x="332" y="384"/>
      <point x="364" y="408" type="qcurve"/>
      <point x="255" y="512"/>
      <point x="201" y="602"/>
      <point x="201" y="634" type="qcurve" smooth="yes"/>
      <point x="201" y="665"/>
      <point x="214" y="720"/>
      <point x="228" y="720" type="qcurve" smooth="yes"/>
      <point x="239" y="720"/>
      <point x="242" y="697" type="qcurve" smooth="yes"/>
      <point x="248" y="655"/>
      <point x="299" y="590" type="qcurve" smooth="yes"/>
      <point x="330" y="548"/>
      <point x="529" y="362"/>
      <point x="600" y="296" type="qcurve"/>
      <point x="599" y="336" type="line" smooth="yes"/>
      <point x="599" y="441"/>
      <point x="643" y="509" type="qcurve" smooth="yes"/>
      <point x="654" y="526"/>
      <point x="654" y="537" type="qcurve" smooth="yes"/>
      <point x="654" y="546"/>
      <point x="618" y="566"/>
      <point x="582" y="581"/>
      <point x="556" y="615"/>
      <point x="556" y="634" type="qcurve" smooth="yes"/>
      <point x="556" y="651"/>
      <point x="565" y="688"/>
      <point x="581" y="720"/>
      <point x="592" y="720" type="qcurve" smooth="yes"/>
      <point x="604" y="720"/>
      <point x="613" y="678"/>
      <point x="636" y="662" type="qcurve" smooth="yes"/>
      <point x="652" y="653"/>
      <point x="691" y="651"/>
      <point x="754" y="644"/>
      <point x="775" y="629" type="qcurve" smooth="yes"/>
      <point x="812" y="604"/>
      <point x="812" y="567" type="qcurve" smooth="yes"/>
      <point x="812" y="549"/>
      <point x="794" y="523"/>
      <point x="780" y="523" type="qcurve" smooth="yes"/>
      <point x="759" y="526"/>
      <point x="746" y="526" type="qcurve" smooth="yes"/>
      <point x="735" y="526"/>
      <point x="686" y="475"/>
      <point x="649" y="373"/>
      <point x="649" y="300" type="qcurve" smooth="yes"/>
      <point x="649" y="275"/>
      <point x="652" y="246" type="qcurve"/>
      <point x="783" y="121"/>
      <point x="796" y="65" type="qcurve" smooth="yes"/>
      <point x="799" y="49"/>
      <point x="799" y="1"/>
      <point x="787" y="-48"/>
      <point x="774" y="-48" type="qcurve" smooth="yes"/>
      <point x="759" y="-48"/>
      <point x="755" y="-14" type="qcurve" smooth="yes"/>
      <point x="749" y="41"/>
      <point x="604" y="182" type="qcurve" smooth="yes"/>
      <point x="398" y="375" type="line"/>
      <point x="301" y="305"/>
      <point x="301" y="244" type="qcurve" smooth="yes"/>
      <point x="301" y="210"/>
      <point x="326" y="168"/>
      <point x="353" y="126"/>
      <point x="353" y="60"/>
      <point x="314" y="3"/>
      <point x="263" y="-37"/>
      <point x="220" y="-58"/>
    </contour>
  </outline>
</glyph>
<glyph name="uni2150" format="1">
  <advance width="1000" height="1000"/>
  <unicode hex="2150"/>
  <outline>
    <contour>
      <point x="734" y="-65" type="qcurve" smooth="yes"/>
      <point x="694" y="-65"/>
      <point x="694" y="-38" type="qcurve" smooth="yes"/>
      <point x="694" y="-31"/>
      <point x="698" y="-20"/>
      <point x="730" y="62"/>
      <point x="799" y="234"/>
      <point x="841" y="313" type="qcurve"/>
      <point x="665" y="294"/>
      <point x="653" y="292" type="qcurve" smooth="yes"/>
      <point x="646" y="291"/>
      <point x="638" y="291" type="qcurve" smooth="yes"/>
      <point x="617" y="291"/>
      <point x="605" y="320" type="qcurve" smooth="yes"/>
      <point x="601" y="332"/>
      <point x="601" y="344" type="qcurve" smooth="yes"/>
      <point x="601" y="361"/>
      <point x="615" y="361" type="qcurve" smooth="yes"/>
      <point x="652" y="361" type="line"/>
      <point x="866" y="381"/>
      <point x="879" y="385"/>
      <point x="889" y="385" type="qcurve" smooth="yes"/>
      <point x="903" y="384"/>
      <point x="932" y="356"/>
      <point x="932" y="340" type="qcurve" smooth="yes"/>
      <point x="930" y="328"/>
      <point x="923" y="319" type="qcurve" smooth="yes"/>
      <point x="902" y="292"/>
      <point x="844" y="156" type="qcurve" smooth="yes"/>
      <point x="797" y="42"/>
      <point x="773" y="-45" type="qcurve" smooth="yes"/>
      <point x="766" y="-65"/>
    </contour>
    <contour>
      <point x="259" y="336" type="qcurve" smooth="yes"/>
      <point x="246" y="336"/>
      <point x="213" y="356"/>
      <point x="213" y="373" type="qcurve" smooth="yes"/>
      <point x="215" y="443"/>
      <point x="215" y="683" type="qcurve"/>
      <point x="183" y="664"/>
      <point x="164" y="664" type="qcurve" smooth="yes"/>
      <point x="144" y="664"/>
      <point x="116" y="684"/>
      <point x="116" y="706"/>
      <point x="130" y="712" type="qcurve" smooth="yes"/>
      <point x="156" y="721"/>
      <point x="212" y="762"/>
      <point x="235" y="790"/>
      <point x="249" y="790" type="qcurve" smooth="yes"/>
      <point x="261" y="790"/>
      <point x="291" y="766"/>
      <point x="291" y="750" type="qcurve" smooth="yes"/>
      <point x="287" y="693" type="line"/>
      <point x="287" y="402"/>
      <point x="289" y="358" type="qcurve" smooth="yes"/>
      <point x="289" y="336"/>
    </contour>
    <contour>
      <point x="83" y="-93" type="qcurve" smooth="yes"/>
      <point x="71" y="-93"/>
      <point x="48" y="-55"/>
      <point x="48" y="-41" type="qcurve" smooth="yes"/>
      <point x="48" y="-26"/>
      <point x="55" y="-20" type="qcurve" smooth="yes"/>
      <point x="90" y="7"/>
      <point x="137" y="54" type="qcurve" smooth="yes"/>
      <point x="828" y="749" type="line" smooth="yes"/>
      <point x="887" y="812"/>
      <point x="909" y="840" type="qcurve" smooth="yes"/>
      <point x="917" y="849"/>
      <point x="941" y="849"/>
      <point x="964" y="811"/>
      <point x="964" y="797" type="qcurve" smooth="yes"/>
      <point x="964" y="782"/>
      <point x="957" y="776" type="qcurve" smooth="yes"/>
      <point x="939" y="760"/>
      <point x="894" y="720"/>
      <point x="184" y="6" type="qcurve" smooth="yes"/>
      <point x="145" y="-33"/>
      <point x="102" y="-85" type="qcurve" smooth="yes"/>
      <point x="94" y="-93"/>
    </contour>
  </outline>
</glyph>
<glyph name="onethird" format="1">
  <advance width="1000" height="1000"/>
  <unicode hex="2153"/>
  <outline>
    <contour>
      <point x="755" y="-71" type="qcurve" smooth="yes"/>
      <point x="704" y="-71"/>
      <point x="635" y="-47"/>
      <point x="595" y="-14"/>
      <point x="595" y="2" type="qcurve" smooth="yes"/>
      <point x="595" y="16"/>
      <point x="621" y="48"/>
      <point x="634" y="48" type="qcurve" smooth="yes"/>
      <point x="646" y="48"/>
      <point x="657" y="38" type="qcurve" smooth="yes"/>
      <point x="687" y="-1"/>
      <point x="750" y="-1" type="qcurve" smooth="yes"/>
      <point x="794" y="-1"/>
      <point x="856" y="45"/>
      <point x="856" y="77" type="qcurve" smooth="yes"/>
      <point x="856" y="108"/>
      <point x="811" y="145"/>
      <point x="775" y="145" type="qcurve" smooth="yes"/>
      <point x="764" y="145"/>
      <point x="724" y="137" type="qcurve" smooth="yes"/>
      <point x="707" y="137"/>
      <point x="687" y="168"/>
      <point x="687" y="186" type="qcurve" smooth="yes"/>
      <point x="687" y="207"/>
      <point x="707" y="208" type="qcurve" smooth="yes"/>
      <point x="785" y="217"/>
      <point x="822" y="248" type="qcurve" smooth="yes"/>
      <point x="837" y="263"/>
      <point x="837" y="283" type="qcurve" smooth="yes"/>
      <point x="837" y="302"/>
      <point x="799" y="324"/>
      <point x="772" y="324" type="qcurve" smooth="yes"/>
      <point x="714" y="324"/>
      <point x="684" y="285" type="qcurve" smooth="yes"/>
      <point x="670" y="268"/>
      <point x="655" y="268" type="qcurve" smooth="yes"/>
      <point x="640" y="268"/>
      <point x="631" y="278" type="qcurve" smooth="yes"/>
      <point x="617" y="298"/>
      <point x="617" y="316" type="qcurve" smooth="yes"/>
      <point x="617" y="334"/>
      <point x="664" y="369"/>
      <point x="733" y="394"/>
      <point x="768" y="394" type="qcurve" smooth="yes"/>
      <point x="831" y="394"/>
      <point x="910" y="335"/>
      <point x="910" y="290" type="qcurve" smooth="yes"/>
      <point x="910" y="246"/>
      <point x="863" y="194"/>
      <point x="856" y="191" type="qcurve"/>
      <point x="876" y="189"/>
      <point x="929" y="127"/>
      <point x="929" y="82" type="qcurve" smooth="yes"/>
      <point x="929" y="37"/>
      <point x="885" y="-31"/>
      <point x="805" y="-71"/>
    </contour>
    <contour>
      <point x="259" y="336" type="qcurve" smooth="yes"/>
      <point x="246" y="336"/>
      <point x="213" y="356"/>
      <point x="213" y="372" type="qcurve" smooth="yes"/>
      <point x="215" y="443" type="line"/>
      <point x="215" y="683" type="line"/>
      <point x="183" y="664"/>
      <point x="164" y="664" type="qcurve" smooth="yes"/>
      <point x="144" y="664"/>
      <point x="116" y="684"/>
      <point x="116" y="695" type="qcurve" smooth="yes"/>
      <point x="116" y="706"/>
      <point x="130" y="712" type="qcurve" smooth="yes"/>
      <point x="156" y="721"/>
      <point x="212" y="762"/>
      <point x="235" y="790"/>
      <point x="249" y="790" type="qcurve" smooth="yes"/>
      <point x="261" y="790"/>
      <point x="291" y="766"/>
      <point x="291" y="750" type="qcurve" smooth="yes"/>
      <point x="287" y="693" type="line"/>
      <point x="287" y="402"/>
      <point x="289" y="358" type="qcurve" smooth="yes"/>
      <point x="289" y="336"/>
    </contour>
    <contour>
      <point x="83" y="-93" type="qcurve" smooth="yes"/>
      <point x="71" y="-93"/>
      <point x="48" y="-55"/>
      <point x="48" y="-41" type="qcurve" smooth="yes"/>
      <point x="48" y="-26"/>
      <point x="55" y="-20" type="qcurve" smooth="yes"/>
      <point x="90" y="7"/>
      <point x="137" y="54" type="qcurve" smooth="yes"/>
      <point x="828" y="749" type="line" smooth="yes"/>
      <point x="887" y="812"/>
      <point x="909" y="840" type="qcurve" smooth="yes"/>
      <point x="917" y="849"/>
      <point x="929" y="849" type="qcurve" smooth="yes"/>
      <point x="941" y="849"/>
      <point x="964" y="811"/>
      <point x="964" y="797" type="qcurve" smooth="yes"/>
      <point x="964" y="782"/>
      <point x="957" y="776" type="qcurve" smooth="yes"/>
      <point x="939" y="760"/>
      <point x="895" y="721"/>
      <point x="875" y="701" type="qcurve" smooth="yes"/>
      <point x="184" y="6" type="line" smooth="yes"/>
      <point x="145" y="-33"/>
      <point x="102" y="-85" type="qcurve" smooth="yes"/>
      <point x="94" y="-93"/>
    </contour>
  </outline>
</glyph>
<glyph name="uni215F" format="1">
  <advance width="1000" height="1000"/>
  <unicode hex="215F"/>
  <outline>
    <contour>
      <point x="259" y="336" type="qcurve" smooth="yes"/>
      <point x="246" y="336"/>
      <point x="213" y="356"/>
      <point x="213" y="372" type="qcurve" smooth="yes"/>
      <point x="215" y="443" type="line"/>
      <point x="215" y="683" type="line"/>
      <point x="183" y="664"/>
      <point x="164" y="664" type="qcurve" smooth="yes"/>
      <point x="144" y="664"/>
      <point x="116" y="684"/>
      <point x="116" y="695" type="qcurve" smooth="yes"/>
      <point x="116" y="706"/>
      <point x="130" y="712" type="qcurve" smooth="yes"/>
      <point x="156" y="721"/>
      <point x="212" y="762"/>
      <point x="235" y="790"/>
      <point x="249" y="790" type="qcurve" smooth="yes"/>
      <point x="261" y="790"/>
      <point x="291" y="766"/>
      <point x="291" y="750" type="qcurve" smooth="yes"/>
      <point x="287" y="693" type="line"/>
      <point x="287" y="402"/>
      <point x="289" y="358" type="qcurve" smooth="yes"/>
      <point x="289" y="336"/>
    </contour>
    <contour>
      <point x="83" y="-93" type="qcurve" smooth="yes"/>
      <point x="71" y="-93"/>
      <point x="48" y="-55"/>
      <point x="48" y="-41" type="qcurve" smooth="yes"/>
      <point x="48" y="-26"/>
      <point x="55" y="-20" type="qcurve" smooth="yes"/>
      <point x="90" y="7"/>
      <point x="137" y="54" type="qcurve" smooth="yes"/>
      <point x="828" y="749" type="line" smooth="yes"/>
      <point x="887" y="812"/>
      <point x="909" y="840" type="qcurve" smooth="yes"/>
      <point x="917" y="849"/>
      <point x="929" y="849" type="qcurve" smooth="yes"/>
      <point x="941" y="849"/>
      <point x="964" y="811"/>
      <point x="964" y="797" type="qcurve" smooth="yes"/>
      <point x="964" y="782"/>
      <point x="957" y="776" type="qcurve" smooth="yes"/>
      <point x="939" y="760"/>
      <point x="895" y="721"/>
      <point x="875" y="701" type="qcurve" smooth="yes"/>
      <point x="184" y="6" type="line" smooth="yes"/>
      <point x="145" y="-33"/>
      <point x="102" y="-85" type="qcurve" smooth="yes"/>
      <point x="94" y="-93"/>
    </contour>
  </outline>
</glyph>
<glyph name="uni2160" format="1">
  <advance width="1000" height="1000"/>
  <unicode hex="2160"/>
  <outline>
    <contour>
      <point x="519" y="-16" type="qcurve" smooth="yes"/>
      <point x="498" y="-16"/>
      <point x="454" y="1"/>
      <point x="454" y="18" type="qcurve" smooth="yes"/>
      <point x="456" y="107" type="line"/>
      <point x="456" y="589"/>
      <point x="453" y="695" type="qcurve" smooth="yes"/>
      <point x="453" y="711"/>
      <point x="479" y="711" type="qcurve" smooth="yes"/>
      <point x="499" y="711"/>
      <point x="543" y="694"/>
      <point x="543" y="677" type="qcurve" smooth="yes"/>
      <point x="541" y="588" type="line"/>
      <point x="541" y="106"/>
      <point x="544" y="0" type="qcurve" smooth="yes"/>
      <point x="544" y="-16"/>
    </contour>
  </outline>
</glyph>
<glyph name="uni2161" format="1">
  <advance width="1000" height="1000"/>
  <unicode hex="2161"/>
  <outline>
    <contour>
      <point x="378" y="-16" type="qcurve" smooth="yes"/>
      <point x="357" y="-16"/>
      <point x="313" y="1"/>
      <point x="313" y="18" type="qcurve" smooth="yes"/>
      <point x="315" y="107" type="line"/>
      <point x="315" y="589"/>
      <point x="312" y="695" type="qcurve" smooth="yes"/>
      <point x="312" y="711"/>
      <point x="338" y="711" type="qcurve" smooth="yes"/>
      <point x="358" y="711"/>
      <point x="402" y="694"/>
      <point x="402" y="677" type="qcurve" smooth="yes"/>
      <point x="400" y="588" type="line"/>
      <point x="400" y="106"/>
      <point x="403" y="0" type="qcurve" smooth="yes"/>
      <point x="403" y="-16"/>
    </contour>
    <contour>
      <point x="663" y="-16" type="qcurve" smooth="yes"/>
      <point x="642" y="-16"/>
      <point x="598" y="1"/>
      <point x="598" y="18" type="qcurve" smooth="yes"/>
      <point x="600" y="107" type="line"/>
      <point x="600" y="589"/>
      <point x="597" y="695" type="qcurve" smooth="yes"/>
      <point x="597" y="711"/>
      <point x="623" y="711" type="qcurve" smooth="yes"/>
      <point x="643" y="711"/>
      <point x="687" y="694"/>
      <point x="687" y="677" type="qcurve" smooth="yes"/>
      <point x="685" y="588" type="line"/>
      <point x="685" y="106"/>
      <point x="688" y="0" type="qcurve" smooth="yes"/>
      <point x="688" y="-16"/>
    </contour>
  </outline>
</glyph>
<glyph name="uni2162" format="1">
  <advance width="1000" height="1000"/>
  <unicode hex="2162"/>
  <outline>
    <contour>
      <point x="298" y="-16" type="qcurve" smooth="yes"/>
      <point x="278" y="-16"/>
      <point x="234" y="1"/>
      <point x="234" y="18" type="qcurve" smooth="yes"/>
      <point x="236" y="107" type="line"/>
      <point x="236" y="589"/>
      <point x="233" y="695" type="qcurve" smooth="yes"/>
      <point x="233" y="711"/>
      <point x="258" y="711" type="qcurve" smooth="yes"/>
      <point x="278" y="711"/>
      <point x="322" y="694"/>
      <point x="322" y="677" type="qcurve" smooth="yes"/>
      <point x="320" y="588" type="line"/>
      <point x="320" y="106"/>
      <point x="323" y="0" type="qcurve" smooth="yes"/>
      <point x="323" y="-16"/>
    </contour>
    <contour>
      <point x="521" y="-16" type="qcurve" smooth="yes"/>
      <point x="501" y="-16"/>
      <point x="457" y="1"/>
      <point x="457" y="18" type="qcurve" smooth="yes"/>
      <point x="459" y="107" type="line"/>
      <point x="459" y="589"/>
      <point x="456" y="695" type="qcurve" smooth="yes"/>
      <point x="456" y="711"/>
      <point x="481" y="711" type="qcurve" smooth="yes"/>
      <point x="501" y="711"/>
      <point x="545" y="694"/>
      <point x="545" y="677" type="qcurve" smooth="yes"/>
      <point x="543" y="588" type="line"/>
      <point x="543" y="106"/>
      <point x="546" y="0" type="qcurve" smooth="yes"/>
      <point x="546" y="-16"/>
    </contour>
    <contour>
      <point x="743" y="-16" type="qcurve" smooth="yes"/>
      <point x="723" y="-16"/>
      <point x="679" y="1"/>
      <point x="679" y="18" type="qcurve" smooth="yes"/>
      <point x="681" y="107" type="line"/>
      <point x="681" y="589"/>
      <point x="678" y="695" type="qcurve" smooth="yes"/>
      <point x="678" y="711"/>
      <point x="703" y="711" type="qcurve" smooth="yes"/>
      <point x="723" y="711"/>
      <point x="767" y="694"/>
      <point x="767" y="677" type="qcurve" smooth="yes"/>
      <point x="765" y="588" type="line"/>
      <point x="765" y="106"/>
      <point x="768" y="0" type="qcurve" smooth="yes"/>
      <point x="768" y="-16"/>
    </contour>
  </outline>
</glyph>
<glyph name="uni2166" format="1">
  <advance width="1000" height="1000"/>
  <unicode hex="2166"/>
  <outline>
    <contour>
      <point x="671" y="-16" type="qcurve" smooth="yes"/>
      <point x="651" y="-16"/>
      <point x="608" y="1"/>
      <point x="608" y="18" type="qcurve" smooth="yes"/>
      <point x="610" y="107" type="line"/>
      <point x="610" y="589"/>
      <point x="607" y="695" type="qcurve" smooth="yes"/>
      <point x="607" y="711"/>
      <point x="632" y="711" type="qcurve" smooth="yes"/>
      <point x="652" y="711"/>
      <point x="694" y="694"/>
      <point x="694" y="677" type="qcurve" smooth="yes"/>
      <point x="692" y="588" type="line"/>
      <point x="692" y="106"/>
      <point x="695" y="0" type="qcurve" smooth="yes"/>
      <point x="695" y="-16"/>
    </contour>
    <contour>
      <point x="855" y="-16" type="qcurve" smooth="yes"/>
      <point x="835" y="-16"/>
      <point x="792" y="1"/>
      <point x="792" y="18" type="qcurve" smooth="yes"/>
      <point x="794" y="107" type="line"/>
      <point x="794" y="589"/>
      <point x="791" y="695" type="qcurve" smooth="yes"/>
      <point x="791" y="711"/>
      <point x="816" y="711" type="qcurve" smooth="yes"/>
      <point x="836" y="711"/>
      <point x="878" y="694"/>
      <point x="878" y="677" type="qcurve" smooth="yes"/>
      <point x="876" y="588" type="line"/>
      <point x="876" y="106"/>
      <point x="879" y="0" type="qcurve" smooth="yes"/>
      <point x="879" y="-16"/>
    </contour>
    <contour>
      <point x="332" y="-23" type="qcurve" smooth="yes"/>
      <point x="313" y="-23"/>
      <point x="271" y="13"/>
      <point x="262" y="46" type="qcurve" smooth="yes"/>
      <point x="200" y="299"/>
      <point x="103" y="612" type="qcurve" smooth="yes"/>
      <point x="97" y="633"/>
      <point x="76" y="683"/>
      <point x="76" y="688" type="qcurve" smooth="yes"/>
      <point x="76" y="710"/>
      <point x="119" y="710" type="qcurve" smooth="yes"/>
      <point x="160" y="710"/>
      <point x="168" y="687" type="qcurve" smooth="yes"/>
      <point x="172" y="673"/>
      <point x="177" y="647"/>
      <point x="275" y="321"/>
      <point x="320" y="126" type="qcurve"/>
      <point x="410" y="457"/>
      <point x="465" y="636"/>
      <point x="479" y="700" type="qcurve" smooth="yes"/>
      <point x="483" y="717"/>
      <point x="501" y="717" type="qcurve" smooth="yes"/>
      <point x="515" y="717"/>
      <point x="531" y="709" type="qcurve" smooth="yes"/>
      <point x="566" y="693"/>
      <point x="566" y="670" type="qcurve" smooth="yes"/>
      <point x="566" y="666"/>
      <point x="534" y="597"/>
      <point x="390" y="120"/>
      <point x="371" y="23"/>
      <point x="368" y="9" type="qcurve" smooth="yes"/>
      <point x="362" y="-23"/>
    </contour>
  </outline>
</glyph>
<glyph name="uni2171" format="1">
  <advance width="1000" height="1000"/>
  <unicode hex="2171"/>
  <outline>
    <contour>
      <point x="387" y="-16" type="qcurve" smooth="yes"/>
      <point x="368" y="-16"/>
      <point x="324" y="1"/>
      <point x="324" y="17" type="qcurve" smooth="yes"/>
      <point x="326" y="105" type="line"/>
      <point x="326" y="368"/>
      <point x="323" y="475" type="qcurve" smooth="yes"/>
      <point x="323" y="490"/>
      <point x="347" y="490" type="qcurve" smooth="yes"/>
      <point x="366" y="490"/>
      <point x="409" y="473"/>
      <point x="409" y="457" type="qcurve" smooth="yes"/>
      <point x="407" y="368" type="line"/>
      <point x="407" y="105"/>
      <point x="410" y="-1" type="qcurve" smooth="yes"/>
      <point x="410" y="-16"/>
    </contour>
    <contour>
      <point x="657" y="-16" type="qcurve" smooth="yes"/>
      <point x="638" y="-16"/>
      <point x="594" y="1"/>
      <point x="594" y="17" type="qcurve" smooth="yes"/>
      <point x="596" y="105" type="line"/>
      <point x="596" y="368"/>
      <point x="593" y="475" type="qcurve" smooth="yes"/>
      <point x="593" y="490"/>
      <point x="617" y="490" type="qcurve" smooth="yes"/>
      <point x="636" y="490"/>
      <point x="679" y="473"/>
      <point x="679" y="457" type="qcurve" smooth="yes"/>
      <point x="677" y="368" type="line"/>
      <point x="677" y="105"/>
      <point x="680" y="-1" type="qcurve" smooth="yes"/>
      <point x="680" y="-16"/>
    </contour>
    <contour>
      <point x="344" y="584"/>
      <point x="310" y="627"/>
      <point x="310" y="650" type="qcurve" smooth="yes"/>
      <point x="310" y="672"/>
      <point x="338" y="704"/>
      <point x="363" y="704" type="qcurve" smooth="yes"/>
      <point x="387" y="704"/>
      <point x="421" y="660"/>
      <point x="421" y="638" type="qcurve" smooth="yes"/>
      <point x="421" y="615"/>
      <point x="392" y="584"/>
    </contour>
    <contour>
      <point x="614" y="584"/>
      <point x="580" y="627"/>
      <point x="580" y="650" type="qcurve" smooth="yes"/>
      <point x="580" y="672"/>
      <point x="608" y="704"/>
      <point x="633" y="704" type="qcurve" smooth="yes"/>
      <point x="657" y="704"/>
      <point x="691" y="660"/>
      <point x="691" y="638" type="qcurve" smooth="yes"/>
      <point x="691" y="615"/>
      <point x="662" y="584"/>
    </contour>
  </outline>
</glyph>
<glyph name="uni2172" format="1">
  <advance width="1000" height="1000"/>
  <unicode hex="2172"/>
  <outline>
    <contour>
      <point x="307" y="-16" type="qcurve" smooth="yes"/>
      <point x="288" y="-16"/>
      <point x="244" y="1"/>
      <point x="244" y="17" type="qcurve" smooth="yes"/>
      <point x="246" y="105" type="line"/>
      <point x="246" y="368"/>
      <point x="243" y="475" type="qcurve" smooth="yes"/>
      <point x="243" y="490"/>
      <point x="267" y="490" type="qcurve" smooth="yes"/>
      <point x="286" y="490"/>
      <point x="329" y="473"/>
      <point x="329" y="457" type="qcurve" smooth="yes"/>
      <point x="327" y="368" type="line"/>
      <point x="327" y="105"/>
      <point x="330" y="-1" type="qcurve" smooth="yes"/>
      <point x="330" y="-16"/>
    </contour>
    <contour>
      <point x="517" y="-16" type="qcurve" smooth="yes"/>
      <point x="498" y="-16"/>
      <point x="454" y="1"/>
      <point x="454" y="17" type="qcurve" smooth="yes"/>
      <point x="456" y="105" type="line"/>
      <point x="456" y="368"/>
      <point x="453" y="475" type="qcurve" smooth="yes"/>
      <point x="453" y="490"/>
      <point x="477" y="490" type="qcurve" smooth="yes"/>
      <point x="496" y="490"/>
      <point x="539" y="473"/>
      <point x="539" y="457" type="qcurve" smooth="yes"/>
      <point x="537" y="368" type="line"/>
      <point x="537" y="105"/>
      <point x="540" y="-1" type="qcurve" smooth="yes"/>
      <point x="540" y="-16"/>
    </contour>
    <contour>
      <point x="735" y="-16" type="qcurve" smooth="yes"/>
      <point x="716" y="-16"/>
      <point x="672" y="1"/>
      <point x="672" y="17" type="qcurve" smooth="yes"/>
      <point x="674" y="105" type="line"/>
      <point x="674" y="368"/>
      <point x="671" y="475" type="qcurve" smooth="yes"/>
      <point x="671" y="490"/>
      <point x="695" y="490" type="qcurve" smooth="yes"/>
      <point x="714" y="490"/>
      <point x="757" y="473"/>
      <point x="757" y="457" type="qcurve" smooth="yes"/>
      <point x="755" y="368" type="line"/>
      <point x="755" y="105"/>
      <point x="758" y="-1" type="qcurve" smooth="yes"/>
      <point x="758" y="-16"/>
    </contour>
    <contour>
      <point x="264" y="584"/>
      <point x="230" y="627"/>
      <point x="230" y="650" type="qcurve" smooth="yes"/>
      <point x="230" y="672"/>
      <point x="258" y="704"/>
      <point x="283" y="704" type="qcurve" smooth="yes"/>
      <point x="307" y="704"/>
      <point x="341" y="660"/>
      <point x="341" y="638" type="qcurve" smooth="yes"/>
      <point x="341" y="615"/>
      <point x="312" y="584"/>
    </contour>
    <contour>
      <point x="474" y="584"/>
      <point x="440" y="627"/>
      <point x="440" y="650" type="qcurve" smooth="yes"/>
      <point x="440" y="672"/>
      <point x="468" y="704"/>
      <point x="493" y="704" type="qcurve" smooth="yes"/>
      <point x="517" y="704"/>
      <point x="551" y="660"/>
      <point x="551" y="638" type="qcurve" smooth="yes"/>
      <point x="551" y="615"/>
      <point x="522" y="584"/>
    </contour>
    <contour>
      <point x="692" y="584"/>
      <point x="658" y="627"/>
      <point x="658" y="650" type="qcurve" smooth="yes"/>
      <point x="658" y="672"/>
      <point x="686" y="704"/>
      <point x="711" y="704" type="qcurve" smooth="yes"/>
      <point x="735" y="704"/>
      <point x="769" y="660"/>
      <point x="769" y="638" type="qcurve" smooth="yes"/>
      <point x="769" y="615"/>
      <point x="740" y="584"/>
    </contour>
  </outline>
</glyph>
<glyph name="uni2173" format="1">
  <advance width="1000" height="1000"/>
  <unicode hex="2173"/>
  <outline>
    <contour>
      <point x="312" y="-16" type="qcurve" smooth="yes"/>
      <point x="293" y="-16"/>
      <point x="249" y="1"/>
      <point x="249" y="17" type="qcurve" smooth="yes"/>
      <point x="251" y="105" type="line"/>
      <point x="251" y="368"/>
      <point x="248" y="475" type="qcurve" smooth="yes"/>
      <point x="248" y="490"/>
      <point x="272" y="490" type="qcurve" smooth="yes"/>
      <point x="291" y="490"/>
      <point x="334" y="473"/>
      <point x="334" y="457" type="qcurve" smooth="yes"/>
      <point x="332" y="368" type="line"/>
      <point x="332" y="105"/>
      <point x="335" y="-1" type="qcurve" smooth="yes"/>
      <point x="335" y="-16"/>
    </contour>
    <contour>
      <point x="598" y="-24"/>
      <point x="581" y="-3" type="qcurve" smooth="yes"/>
      <point x="572" y="6"/>
      <point x="565" y="25"/>
      <point x="423" y="404"/>
      <point x="397" y="459"/>
      <point x="397" y="463" type="qcurve" smooth="yes"/>
      <point x="397" y="487"/>
      <point x="454" y="487" type="qcurve" smooth="yes"/>
      <point x="483" y="487"/>
      <point x="487" y="469" type="qcurve" smooth="yes"/>
      <point x="497" y="427"/>
      <point x="505" y="407" type="qcurve" smooth="yes"/>
      <point x="612" y="107" type="line"/>
      <point x="736" y="407" type="line" smooth="yes"/>
      <point x="748" y="436"/>
      <point x="759" y="478" type="qcurve" smooth="yes"/>
      <point x="764" y="492"/>
      <point x="785" y="492" type="qcurve" smooth="yes"/>
      <point x="803" y="492"/>
      <point x="845" y="473"/>
      <point x="845" y="457" type="qcurve" smooth="yes"/>
      <point x="845" y="454"/>
      <point x="817" y="400"/>
      <point x="743" y="223" type="qcurve" smooth="yes"/>
      <point x="666" y="42"/>
      <point x="653" y="3" type="qcurve" smooth="yes"/>
      <point x="644" y="-24"/>
    </contour>
    <contour>
      <point x="269" y="584"/>
      <point x="235" y="627"/>
      <point x="235" y="650" type="qcurve" smooth="yes"/>
      <point x="235" y="672"/>
      <point x="263" y="704"/>
      <point x="288" y="704" type="qcurve" smooth="yes"/>
      <point x="312" y="704"/>
      <point x="346" y="660"/>
      <point x="346" y="638" type="qcurve" smooth="yes"/>
      <point x="346" y="615"/>
      <point x="317" y="584"/>
    </contour>
  </outline>
</glyph>
<glyph name="uni2175" format="1">
  <advance width="1000" height="1000"/>
  <unicode hex="2175"/>
  <outline>
    <contour>
      <point x="757" y="-16" type="qcurve" smooth="yes"/>
      <point x="738" y="-16"/>
      <point x="694" y="1"/>
      <point x="694" y="17" type="qcurve" smooth="yes"/>
      <point x="696" y="105" type="line"/>
      <point x="696" y="368"/>
      <point x="693" y="475" type="qcurve" smooth="yes"/>
      <point x="693" y="490"/>
      <point x="717" y="490" type="qcurve" smooth="yes"/>
      <point x="736" y="490"/>
      <point x="779" y="473"/>
      <point x="779" y="457" type="qcurve" smooth="yes"/>
      <point x="777" y="368" type="line"/>
      <point x="777" y="105"/>
      <point x="780" y="-1" type="qcurve" smooth="yes"/>
      <point x="780" y="-16"/>
    </contour>
    <contour>
      <point x="389" y="-24"/>
      <point x="372" y="-3" type="qcurve" smooth="yes"/>
      <point x="363" y="6"/>
      <point x="356" y="25"/>
      <point x="214" y="404"/>
      <point x="188" y="459"/>
      <point x="188" y="463" type="qcurve" smooth="yes"/>
      <point x="188" y="487"/>
      <point x="244" y="487" type="qcurve" smooth="yes"/>
      <point x="273" y="487"/>
      <point x="281" y="458"/>
      <point x="289" y="425"/>
      <point x="403" y="107" type="qcurve"/>
      <point x="527" y="407" type="line" smooth="yes"/>
      <point x="539" y="436"/>
      <point x="550" y="478" type="qcurve" smooth="yes"/>
      <point x="555" y="492"/>
      <point x="576" y="492" type="qcurve" smooth="yes"/>
      <point x="594" y="492"/>
      <point x="636" y="473"/>
      <point x="636" y="457" type="qcurve" smooth="yes"/>
      <point x="636" y="454"/>
      <point x="608" y="400"/>
      <point x="534" y="223" type="qcurve" smooth="yes"/>
      <point x="457" y="42"/>
      <point x="444" y="3" type="qcurve" smooth="yes"/>
      <point x="435" y="-24"/>
    </contour>
    <contour>
      <point x="714" y="584"/>
      <point x="680" y="627"/>
      <point x="680" y="650" type="qcurve" smooth="yes"/>
      <point x="680" y="672"/>
      <point x="708" y="704"/>
      <point x="733" y="704" type="qcurve" smooth="yes"/>
      <point x="757" y="704"/>
      <point x="791" y="660"/>
      <point x="791" y="638" type="qcurve" smooth="yes"/>
      <point x="791" y="615"/>
      <point x="762" y="584"/>
    </contour>
  </outline>
</glyph>
<glyph name="uni2177" format="1">
  <advance width="1000" height="1000"/>
  <unicode hex="2177"/>
  <outline>
    <contour>
      <point x="570" y="-16" type="qcurve" smooth="yes"/>
      <point x="552" y="-16"/>
      <point x="510" y="1"/>
      <point x="510" y="17" type="qcurve" smooth="yes"/>
      <point x="512" y="105" type="line"/>
      <point x="512" y="368"/>
      <point x="509" y="475" type="qcurve" smooth="yes"/>
      <point x="509" y="490"/>
      <point x="532" y="490" type="qcurve" smooth="yes"/>
      <point x="550" y="490"/>
      <point x="592" y="473"/>
      <point x="592" y="457" type="qcurve" smooth="yes"/>
      <point x="590" y="368" type="line"/>
      <point x="590" y="105"/>
      <point x="593" y="-1" type="qcurve" smooth="yes"/>
      <point x="593" y="-16"/>
    </contour>
    <contour>
      <point x="728" y="-16" type="qcurve" smooth="yes"/>
      <point x="709" y="-16"/>
      <point x="667" y="1"/>
      <point x="667" y="17" type="qcurve" smooth="yes"/>
      <point x="669" y="105" type="line"/>
      <point x="669" y="368"/>
      <point x="666" y="475" type="qcurve" smooth="yes"/>
      <point x="666" y="490"/>
      <point x="690" y="490" type="qcurve" smooth="yes"/>
      <point x="708" y="490"/>
      <point x="750" y="473"/>
      <point x="750" y="457" type="qcurve" smooth="yes"/>
      <point x="748" y="368" type="line"/>
      <point x="748" y="105"/>
      <point x="751" y="-1" type="qcurve" smooth="yes"/>
      <point x="751" y="-16"/>
    </contour>
    <contour>
      <point x="886" y="-16" type="qcurve" smooth="yes"/>
      <point x="867" y="-16"/>
      <point x="825" y="1"/>
      <point x="825" y="17" type="qcurve" smooth="yes"/>
      <point x="827" y="105" type="line"/>
      <point x="827" y="368"/>
      <point x="824" y="475" type="qcurve" smooth="yes"/>
      <point x="824" y="490"/>
      <point x="848" y="490" type="qcurve" smooth="yes"/>
      <point x="866" y="490"/>
      <point x="908" y="473"/>
      <point x="908" y="457" type="qcurve" smooth="yes"/>
      <point x="906" y="368" type="line"/>
      <point x="906" y="105"/>
      <point x="909" y="-1" type="qcurve" smooth="yes"/>
      <point x="909" y="-16"/>
    </contour>
    <contour>
      <point x="258" y="-24"/>
      <point x="241" y="-3" type="qcurve" smooth="yes"/>
      <point x="232" y="6"/>
      <point x="225" y="25"/>
      <point x="85" y="409"/>
      <point x="62" y="459"/>
      <point x="62" y="463" type="qcurve" smooth="yes"/>
      <point x="62" y="487"/>
      <point x="117" y="487" type="qcurve" smooth="yes"/>
      <point x="145" y="487"/>
      <point x="153" y="457"/>
      <point x="160" y="426"/>
      <point x="271" y="107" type="qcurve"/>
      <point x="391" y="407" type="line" smooth="yes"/>
      <point x="400" y="429"/>
      <point x="413" y="478" type="qcurve" smooth="yes"/>
      <point x="418" y="492"/>
      <point x="439" y="492" type="qcurve" smooth="yes"/>
      <point x="456" y="492"/>
      <point x="497" y="473"/>
      <point x="497" y="457" type="qcurve" smooth="yes"/>
      <point x="497" y="454"/>
      <point x="472" y="407"/>
      <point x="398" y="223" type="qcurve" smooth="yes"/>
      <point x="326" y="49"/>
      <point x="316" y="18"/>
      <point x="311" y="3" type="qcurve" smooth="yes"/>
      <point x="302" y="-24"/>
    </contour>
    <contour>
      <point x="528" y="584"/>
      <point x="496" y="627"/>
      <point x="496" y="650" type="qcurve" smooth="yes"/>
      <point x="496" y="672"/>
      <point x="523" y="704"/>
      <point x="571" y="704"/>
      <point x="604" y="660"/>
      <point x="604" y="638" type="qcurve" smooth="yes"/>
      <point x="604" y="615"/>
      <point x="576" y="584"/>
    </contour>
    <contour>
      <point x="686" y="584"/>
      <point x="654" y="627"/>
      <point x="654" y="650" type="qcurve" smooth="yes"/>
      <point x="654" y="672"/>
      <point x="680" y="704"/>
      <point x="705" y="704" type="qcurve" smooth="yes"/>
      <point x="729" y="704"/>
      <point x="762" y="660"/>
      <point x="762" y="638" type="qcurve" smooth="yes"/>
      <point x="762" y="615"/>
      <point x="734" y="584"/>
    </contour>
    <contour>
      <point x="844" y="584"/>
      <point x="812" y="627"/>
      <point x="812" y="650" type="qcurve" smooth="yes"/>
      <point x="812" y="672"/>
      <point x="838" y="704"/>
      <point x="863" y="704" type="qcurve" smooth="yes"/>
      <point x="887" y="704"/>
      <point x="920" y="660"/>
      <point x="920" y="638" type="qcurve" smooth="yes"/>
      <point x="920" y="615"/>
      <point x="892" y="584"/>
    </contour>
  </outline>
</glyph>
<glyph name="arrowup" format="1">
  <advance width="1000" height="1000"/>
  <unicode hex="2191"/>
  <outline>
    <contour>
      <point x="500" y="-81" type="qcurve" smooth="yes"/>
      <point x="465" y="-81"/>
      <point x="465" y="-52" type="qcurve" smooth="yes"/>
      <point x="465" y="659" type="line"/>
      <point x="393" y="534"/>
      <point x="365" y="534" type="qcurve" smooth="yes"/>
      <point x="352" y="534"/>
      <point x="324" y="556"/>
      <point x="324" y="567" type="qcurve" smooth="yes"/>
      <point x="324" y="577"/>
      <point x="336" y="594"/>
      <point x="357" y="618"/>
      <point x="388" y="661"/>
      <point x="448" y="748"/>
      <point x="470" y="796" type="qcurve" smooth="yes"/>
      <point x="477" y="814"/>
      <point x="501" y="814" type="qcurve" smooth="yes"/>
      <point x="524" y="814"/>
      <point x="531" y="796" type="qcurve" smooth="yes"/>
      <point x="561" y="734"/>
      <point x="643" y="618"/>
      <point x="676" y="579"/>
      <point x="676" y="568" type="qcurve" smooth="yes"/>
      <point x="676" y="556"/>
      <point x="648" y="534"/>
      <point x="635" y="534" type="qcurve" smooth="yes"/>
      <point x="607" y="534"/>
      <point x="535" y="659" type="qcurve"/>
      <point x="535" y="-52" type="line" smooth="yes"/>
      <point x="535" y="-66"/>
      <point x="512" y="-81"/>
    </contour>
  </outline>
</glyph>
<glyph name="arrowright" format="1">
  <advance width="1000" height="1000"/>
  <unicode hex="2192"/>
  <outline>
    <contour>
      <point x="700" y="192" type="qcurve" smooth="yes"/>
      <point x="688" y="192"/>
      <point x="667" y="220"/>
      <point x="667" y="234" type="qcurve" smooth="yes"/>
      <point x="667" y="262"/>
      <point x="792" y="334" type="qcurve"/>
      <point x="81" y="334" type="line" smooth="yes"/>
      <point x="52" y="334"/>
      <point x="52" y="369" type="qcurve" smooth="yes"/>
      <point x="52" y="381"/>
      <point x="67" y="404"/>
      <point x="81" y="404" type="qcurve" smooth="yes"/>
      <point x="792" y="404" type="line"/>
      <point x="667" y="476"/>
      <point x="667" y="505" type="qcurve" smooth="yes"/>
      <point x="667" y="518"/>
      <point x="688" y="546"/>
      <point x="699" y="546" type="qcurve" smooth="yes"/>
      <point x="708" y="546"/>
      <point x="727" y="533"/>
      <point x="751" y="512"/>
      <point x="772" y="497" type="qcurve" smooth="yes"/>
      <point x="867" y="430"/>
      <point x="929" y="400" type="qcurve" smooth="yes"/>
      <point x="947" y="393"/>
      <point x="947" y="370" type="qcurve" smooth="yes"/>
      <point x="947" y="346"/>
      <point x="929" y="339" type="qcurve" smooth="yes"/>
      <point x="881" y="317"/>
      <point x="754" y="229"/>
      <point x="711" y="192"/>
    </contour>
  </outline>
</glyph>
<glyph name="arrowboth" format="1">
  <advance width="1000" height="1000"/>
  <unicode hex="2194"/>
  <outline>
    <contour>
      <point x="688" y="191" type="qcurve" smooth="yes"/>
      <point x="677" y="191"/>
      <point x="656" y="220"/>
      <point x="656" y="234" type="qcurve" smooth="yes"/>
      <point x="656" y="261"/>
      <point x="781" y="333" type="qcurve"/>
      <point x="221" y="333" type="line"/>
      <point x="345" y="262"/>
      <point x="345" y="234" type="qcurve" smooth="yes"/>
      <point x="345" y="220"/>
      <point x="324" y="191"/>
      <point x="304" y="191"/>
      <point x="296" y="196" type="qcurve" smooth="yes"/>
      <point x="255" y="230" type="line" smooth="yes"/>
      <point x="219" y="256"/>
      <point x="132" y="317"/>
      <point x="84" y="339" type="qcurve" smooth="yes"/>
      <point x="66" y="346"/>
      <point x="66" y="392"/>
      <point x="100" y="407"/>
      <point x="217" y="472"/>
      <point x="296" y="541" type="qcurve" smooth="yes"/>
      <point x="304" y="546"/>
      <point x="324" y="546"/>
      <point x="345" y="517"/>
      <point x="345" y="504" type="qcurve" smooth="yes"/>
      <point x="345" y="475"/>
      <point x="220" y="403" type="qcurve"/>
      <point x="781" y="403" type="line"/>
      <point x="656" y="476"/>
      <point x="656" y="504" type="qcurve" smooth="yes"/>
      <point x="656" y="517"/>
      <point x="677" y="546"/>
      <point x="688" y="546" type="qcurve" smooth="yes"/>
      <point x="697" y="546"/>
      <point x="705" y="541" type="qcurve" smooth="yes"/>
      <point x="821" y="443"/>
      <point x="917" y="399" type="qcurve" smooth="yes"/>
      <point x="935" y="392"/>
      <point x="935" y="346"/>
      <point x="917" y="339" type="qcurve" smooth="yes"/>
      <point x="869" y="317"/>
      <point x="783" y="256"/>
      <point x="746" y="230" type="qcurve" smooth="yes"/>
      <point x="705" y="196" type="line" smooth="yes"/>
      <point x="697" y="191"/>
    </contour>
  </outline>
</glyph>
<glyph name="arrowupdn" format="1">
  <advance width="1000" height="1000"/>
  <unicode hex="2195"/>
  <outline>
    <contour>
      <point x="478" y="-86"/>
      <point x="471" y="-68" type="qcurve" smooth="yes"/>
      <point x="449" y="-20"/>
      <point x="388" y="66"/>
      <point x="362" y="103" type="qcurve" smooth="yes"/>
      <point x="328" y="144" type="line" smooth="yes"/>
      <point x="323" y="152"/>
      <point x="323" y="172"/>
      <point x="352" y="193"/>
      <point x="366" y="193" type="qcurve" smooth="yes"/>
      <point x="393" y="193"/>
      <point x="465" y="68" type="qcurve"/>
      <point x="465" y="628" type="line"/>
      <point x="394" y="504"/>
      <point x="366" y="504" type="qcurve" smooth="yes"/>
      <point x="352" y="504"/>
      <point x="323" y="525"/>
      <point x="323" y="536" type="qcurve" smooth="yes"/>
      <point x="323" y="545"/>
      <point x="328" y="553" type="qcurve" smooth="yes"/>
      <point x="362" y="594" type="line" smooth="yes"/>
      <point x="388" y="630"/>
      <point x="449" y="717"/>
      <point x="471" y="765" type="qcurve" smooth="yes"/>
      <point x="478" y="783"/>
      <point x="524" y="783"/>
      <point x="539" y="749"/>
      <point x="604" y="632"/>
      <point x="673" y="553" type="qcurve" smooth="yes"/>
      <point x="678" y="545"/>
      <point x="678" y="536" type="qcurve" smooth="yes"/>
      <point x="678" y="525"/>
      <point x="649" y="504"/>
      <point x="636" y="504" type="qcurve" smooth="yes"/>
      <point x="607" y="504"/>
      <point x="535" y="629" type="qcurve"/>
      <point x="535" y="68" type="line"/>
      <point x="608" y="193"/>
      <point x="636" y="193" type="qcurve" smooth="yes"/>
      <point x="649" y="193"/>
      <point x="678" y="172"/>
      <point x="678" y="152"/>
      <point x="673" y="144" type="qcurve" smooth="yes"/>
      <point x="575" y="28"/>
      <point x="531" y="-68" type="qcurve" smooth="yes"/>
      <point x="524" y="-86"/>
    </contour>
  </outline>
</glyph>
<glyph name="uni2198" format="1">
  <advance width="1000" height="1000"/>
  <unicode hex="2198"/>
  <outline>
    <contour>
      <point x="789" y="50" type="qcurve" smooth="yes"/>
      <point x="780" y="50"/>
      <point x="760" y="58" type="qcurve" smooth="yes"/>
      <point x="692" y="85"/>
      <point x="524" y="103" type="qcurve" smooth="yes"/>
      <point x="504" y="104"/>
      <point x="504" y="126" type="qcurve" smooth="yes"/>
      <point x="504" y="144"/>
      <point x="521" y="172"/>
      <point x="537" y="172" type="qcurve" smooth="yes"/>
      <point x="609" y="164"/>
      <point x="676" y="146" type="qcurve"/>
      <point x="160" y="660" type="line" smooth="yes"/>
      <point x="151" y="669"/>
      <point x="151" y="693"/>
      <point x="176" y="718"/>
      <point x="188" y="718" type="qcurve" smooth="yes"/>
      <point x="199" y="718"/>
      <point x="206" y="711" type="qcurve" smooth="yes"/>
      <point x="725" y="194" type="line"/>
      <point x="705" y="273"/>
      <point x="698" y="333" type="qcurve" smooth="yes"/>
      <point x="698" y="349"/>
      <point x="725" y="366"/>
      <point x="743" y="366" type="qcurve" smooth="yes"/>
      <point x="764" y="366"/>
      <point x="767" y="346" type="qcurve" smooth="yes"/>
      <point x="785" y="189"/>
      <point x="819" y="94" type="qcurve" smooth="yes"/>
      <point x="820" y="91"/>
      <point x="820" y="82" type="qcurve" smooth="yes"/>
      <point x="820" y="72"/>
      <point x="800" y="50"/>
    </contour>
  </outline>
</glyph>
<glyph name="uni21B6" format="1">
  <advance width="1000" height="1000"/>
  <unicode hex="21B6"/>
  <outline>
    <contour>
      <point x="177" y="185"/>
      <point x="170" y="201" type="qcurve" smooth="yes"/>
      <point x="144" y="256"/>
      <point x="79" y="351" type="qcurve" smooth="yes"/>
      <point x="64" y="371"/>
      <point x="44" y="393"/>
      <point x="33" y="410"/>
      <point x="33" y="430"/>
      <point x="60" y="450"/>
      <point x="72" y="450" type="qcurve" smooth="yes"/>
      <point x="100" y="450"/>
      <point x="166" y="333" type="qcurve"/>
      <point x="166" y="370" type="line" smooth="yes"/>
      <point x="166" y="477"/>
      <point x="270" y="650"/>
      <point x="443" y="754"/>
      <point x="550" y="754" type="qcurve" smooth="yes"/>
      <point x="656" y="754"/>
      <point x="830" y="650"/>
      <point x="934" y="477"/>
      <point x="934" y="364" type="qcurve"/>
      <point x="867" y="364" type="line"/>
      <point x="867" y="503"/>
      <point x="683" y="687"/>
      <point x="417" y="687"/>
      <point x="233" y="503"/>
      <point x="233" y="370" type="qcurve" smooth="yes"/>
      <point x="233" y="333" type="line"/>
      <point x="299" y="450"/>
      <point x="327" y="450" type="qcurve" smooth="yes"/>
      <point x="339" y="450"/>
      <point x="366" y="430"/>
      <point x="366" y="406"/>
      <point x="343" y="382" type="qcurve" smooth="yes"/>
      <point x="335" y="371"/>
      <point x="306" y="330"/>
      <point x="249" y="247"/>
      <point x="228" y="201" type="qcurve" smooth="yes"/>
      <point x="221" y="185"/>
    </contour>
  </outline>
</glyph>
<glyph name="uni21C6" format="1">
  <advance width="1000" height="1000"/>
  <unicode hex="21C6"/>
  <outline>
    <contour>
      <point x="698" y="21" type="qcurve" smooth="yes"/>
      <point x="685" y="21"/>
      <point x="661" y="50"/>
      <point x="661" y="62" type="qcurve" smooth="yes"/>
      <point x="661" y="73"/>
      <point x="665" y="79" type="qcurve" smooth="yes"/>
      <point x="672" y="94"/>
      <point x="777" y="161" type="qcurve"/>
      <point x="82" y="161" type="line" smooth="yes"/>
      <point x="57" y="161"/>
      <point x="57" y="201" type="qcurve" smooth="yes"/>
      <point x="57" y="240"/>
      <point x="82" y="240" type="qcurve" smooth="yes"/>
      <point x="777" y="240" type="line"/>
      <point x="690" y="295"/>
      <point x="661" y="325"/>
      <point x="661" y="351"/>
      <point x="686" y="379"/>
      <point x="700" y="379" type="qcurve" smooth="yes"/>
      <point x="712" y="379"/>
      <point x="720" y="373" type="qcurve" smooth="yes"/>
      <point x="826" y="291"/>
      <point x="926" y="244" type="qcurve" smooth="yes"/>
      <point x="951" y="233"/>
      <point x="951" y="167"/>
      <point x="925" y="156" type="qcurve" smooth="yes"/>
      <point x="826" y="111"/>
      <point x="719" y="27" type="qcurve" smooth="yes"/>
      <point x="710" y="21"/>
    </contour>
    <contour>
      <point x="303" y="377" type="qcurve" smooth="yes"/>
      <point x="291" y="377"/>
      <point x="282" y="383" type="qcurve" smooth="yes"/>
      <point x="175" y="467"/>
      <point x="75" y="512" type="qcurve" smooth="yes"/>
      <point x="50" y="524"/>
      <point x="50" y="588"/>
      <point x="75" y="600" type="qcurve" smooth="yes"/>
      <point x="175" y="647"/>
      <point x="281" y="729" type="qcurve" smooth="yes"/>
      <point x="289" y="735"/>
      <point x="315" y="735"/>
      <point x="340" y="707"/>
      <point x="340" y="681"/>
      <point x="312" y="651"/>
      <point x="224" y="596" type="qcurve"/>
      <point x="919" y="596" type="line" smooth="yes"/>
      <point x="933" y="596"/>
      <point x="945" y="570"/>
      <point x="945" y="557" type="qcurve" smooth="yes"/>
      <point x="945" y="517"/>
      <point x="919" y="517" type="qcurve" smooth="yes"/>
      <point x="224" y="517" type="line"/>
      <point x="328" y="450"/>
      <point x="337" y="435" type="qcurve" smooth="yes"/>
      <point x="340" y="428"/>
      <point x="340" y="418" type="qcurve" smooth="yes"/>
      <point x="340" y="406"/>
      <point x="316" y="377"/>
    </contour>
  </outline>
</glyph>
<glyph name="uni21CB" format="1">
  <advance width="1000" height="1000"/>
  <unicode hex="21CB"/>
  <outline>
    <contour>
      <point x="694" y="29" type="qcurve" smooth="yes"/>
      <point x="683" y="29"/>
      <point x="658" y="59"/>
      <point x="658" y="74" type="qcurve" smooth="yes"/>
      <point x="658" y="99"/>
      <point x="783" y="171" type="qcurve"/>
      <point x="78" y="171" type="line" smooth="yes"/>
      <point x="63" y="171"/>
      <point x="48" y="194"/>
      <point x="48" y="220"/>
      <point x="62" y="241"/>
      <point x="75" y="241" type="qcurve" smooth="yes"/>
      <point x="912" y="241" type="line" smooth="yes"/>
      <point x="950" y="241"/>
      <point x="950" y="207" type="qcurve" smooth="yes"/>
      <point x="950" y="189"/>
      <point x="925" y="177" type="qcurve" smooth="yes"/>
      <point x="846" y="137"/>
      <point x="750" y="64"/>
      <point x="710" y="34" type="qcurve" smooth="yes"/>
      <point x="703" y="29"/>
    </contour>
    <contour>
      <point x="925" y="524" type="qcurve" smooth="yes"/>
      <point x="88" y="524" type="line" smooth="yes"/>
      <point x="50" y="524"/>
      <point x="50" y="558" type="qcurve" smooth="yes"/>
      <point x="50" y="576"/>
      <point x="75" y="588" type="qcurve" smooth="yes"/>
      <point x="186" y="645"/>
      <point x="289" y="731" type="qcurve" smooth="yes"/>
      <point x="297" y="736"/>
      <point x="317" y="736"/>
      <point x="342" y="706"/>
      <point x="342" y="691" type="qcurve" smooth="yes"/>
      <point x="342" y="666"/>
      <point x="217" y="594" type="qcurve"/>
      <point x="922" y="594" type="line" smooth="yes"/>
      <point x="937" y="594"/>
      <point x="952" y="571"/>
      <point x="952" y="558" type="qcurve" smooth="yes"/>
      <point x="952" y="524"/>
    </contour>
  </outline>
</glyph>
<glyph name="uni21CC" format="1">
  <advance width="1000" height="1000"/>
  <unicode hex="21CC"/>
  <outline>
    <contour>
      <point x="296" y="29"/>
      <point x="289" y="34" type="qcurve" smooth="yes"/>
      <point x="193" y="108"/>
      <point x="120" y="154"/>
      <point x="74" y="177" type="qcurve" smooth="yes"/>
      <point x="49" y="189"/>
      <point x="49" y="207" type="qcurve" smooth="yes"/>
      <point x="49" y="241"/>
      <point x="87" y="241" type="qcurve" smooth="yes"/>
      <point x="924" y="241" type="line" smooth="yes"/>
      <point x="951" y="241"/>
      <point x="951" y="207" type="qcurve" smooth="yes"/>
      <point x="951" y="194"/>
      <point x="936" y="171"/>
      <point x="921" y="171" type="qcurve" smooth="yes"/>
      <point x="216" y="171" type="line"/>
      <point x="341" y="99"/>
      <point x="341" y="74" type="qcurve" smooth="yes"/>
      <point x="341" y="59"/>
      <point x="316" y="29"/>
    </contour>
    <contour>
      <point x="911" y="524" type="qcurve" smooth="yes"/>
      <point x="74" y="524" type="line" smooth="yes"/>
      <point x="61" y="524"/>
      <point x="47" y="546"/>
      <point x="47" y="559" type="qcurve" smooth="yes"/>
      <point x="47" y="571"/>
      <point x="62" y="594"/>
      <point x="77" y="594" type="qcurve" smooth="yes"/>
      <point x="782" y="594" type="line"/>
      <point x="657" y="666"/>
      <point x="657" y="691" type="qcurve" smooth="yes"/>
      <point x="657" y="706"/>
      <point x="682" y="736"/>
      <point x="693" y="736" type="qcurve" smooth="yes"/>
      <point x="702" y="736"/>
      <point x="710" y="731" type="qcurve" smooth="yes"/>
      <point x="813" y="645"/>
      <point x="924" y="588" type="qcurve" smooth="yes"/>
      <point x="949" y="576"/>
      <point x="949" y="558" type="qcurve" smooth="yes"/>
      <point x="949" y="524"/>
    </contour>
  </outline>
</glyph>
<glyph name="arrowdblleft" format="1">
  <advance width="1000" height="1000"/>
  <unicode hex="21D0"/>
  <outline>
    <contour>
      <point x="362" y="28"/>
      <point x="353" y="37" type="qcurve" smooth="yes"/>
      <point x="46" y="343" type="line" smooth="yes"/>
      <point x="36" y="353"/>
      <point x="36" y="367" type="qcurve" smooth="yes"/>
      <point x="36" y="380"/>
      <point x="47" y="391" type="qcurve" smooth="yes"/>
      <point x="354" y="698" type="line" smooth="yes"/>
      <point x="363" y="707"/>
      <point x="377" y="707" type="qcurve" smooth="yes"/>
      <point x="390" y="707"/>
      <point x="414" y="683"/>
      <point x="414" y="657"/>
      <point x="405" y="648" type="qcurve" smooth="yes"/>
      <point x="305" y="547" type="line"/>
      <point x="926" y="547" type="line" smooth="yes"/>
      <point x="953" y="547"/>
      <point x="953" y="511" type="qcurve" smooth="yes"/>
      <point x="953" y="474"/>
      <point x="926" y="474" type="qcurve" smooth="yes"/>
      <point x="230" y="474" type="line"/>
      <point x="123" y="368" type="line"/>
      <point x="230" y="260" type="line"/>
      <point x="926" y="260" type="line" smooth="yes"/>
      <point x="953" y="260"/>
      <point x="953" y="224" type="qcurve" smooth="yes"/>
      <point x="953" y="187"/>
      <point x="926" y="187" type="qcurve" smooth="yes"/>
      <point x="305" y="187" type="line"/>
      <point x="405" y="87" type="line" smooth="yes"/>
      <point x="415" y="77"/>
      <point x="415" y="65" type="qcurve" smooth="yes"/>
      <point x="415" y="51"/>
      <point x="390" y="28"/>
    </contour>
  </outline>
</glyph>
<glyph name="arrowdblright" format="1">
  <advance width="1000" height="1000"/>
  <unicode hex="21D2"/>
  <outline>
    <contour>
      <point x="590" y="28"/>
      <point x="565" y="51"/>
      <point x="565" y="65" type="qcurve" smooth="yes"/>
      <point x="565" y="77"/>
      <point x="575" y="87" type="qcurve" smooth="yes"/>
      <point x="675" y="187" type="line"/>
      <point x="94" y="187" type="line" smooth="yes"/>
      <point x="80" y="187"/>
      <point x="67" y="211"/>
      <point x="67" y="237"/>
      <point x="81" y="260"/>
      <point x="94" y="260" type="qcurve" smooth="yes"/>
      <point x="750" y="260" type="line"/>
      <point x="857" y="368" type="line"/>
      <point x="750" y="474" type="line"/>
      <point x="94" y="474" type="line" smooth="yes"/>
      <point x="80" y="474"/>
      <point x="67" y="498"/>
      <point x="67" y="524"/>
      <point x="81" y="547"/>
      <point x="94" y="547" type="qcurve" smooth="yes"/>
      <point x="675" y="547" type="line"/>
      <point x="575" y="648" type="line" smooth="yes"/>
      <point x="566" y="657"/>
      <point x="566" y="683"/>
      <point x="590" y="707"/>
      <point x="604" y="707" type="qcurve" smooth="yes"/>
      <point x="617" y="707"/>
      <point x="626" y="698" type="qcurve" smooth="yes"/>
      <point x="933" y="391" type="line" smooth="yes"/>
      <point x="944" y="380"/>
      <point x="944" y="367" type="qcurve" smooth="yes"/>
      <point x="944" y="353"/>
      <point x="934" y="343" type="qcurve" smooth="yes"/>
      <point x="627" y="37" type="line" smooth="yes"/>
      <point x="618" y="28"/>
    </contour>
  </outline>
</glyph>
<glyph name="arrowdblboth" format="1">
  <advance width="1000" height="1000"/>
  <unicode hex="21D4"/>
  <outline>
    <contour>
      <point x="740" y="250" type="line"/>
      <point x="857" y="368" type="line"/>
      <point x="732" y="493" type="line"/>
      <point x="272" y="493" type="line"/>
      <point x="146" y="368" type="line"/>
      <point x="263" y="250" type="line"/>
    </contour>
    <contour>
      <point x="626" y="49" type="qcurve" smooth="yes"/>
      <point x="612" y="49"/>
      <point x="588" y="71"/>
      <point x="588" y="86" type="qcurve" smooth="yes"/>
      <point x="588" y="100"/>
      <point x="598" y="110" type="qcurve" smooth="yes"/>
      <point x="666" y="178" type="line"/>
      <point x="337" y="178" type="line"/>
      <point x="404" y="110" type="line" smooth="yes"/>
      <point x="414" y="100"/>
      <point x="414" y="72"/>
      <point x="393" y="49"/>
      <point x="365" y="49"/>
      <point x="354" y="60" type="qcurve" smooth="yes"/>
      <point x="76" y="338" type="line" smooth="yes"/>
      <point x="62" y="354"/>
      <point x="62" y="382"/>
      <point x="76" y="396" type="qcurve" smooth="yes"/>
      <point x="355" y="675" type="line" smooth="yes"/>
      <point x="364" y="684"/>
      <point x="378" y="684" type="qcurve" smooth="yes"/>
      <point x="391" y="684"/>
      <point x="414" y="661"/>
      <point x="414" y="635"/>
      <point x="405" y="626" type="qcurve" smooth="yes"/>
      <point x="345" y="565" type="line"/>
      <point x="658" y="565" type="line"/>
      <point x="598" y="626" type="line" smooth="yes"/>
      <point x="589" y="635"/>
      <point x="589" y="649" type="qcurve" smooth="yes"/>
      <point x="589" y="662"/>
      <point x="612" y="685"/>
      <point x="636" y="685"/>
      <point x="648" y="675" type="qcurve" smooth="yes"/>
      <point x="926" y="397" type="line" smooth="yes"/>
      <point x="939" y="382"/>
      <point x="939" y="350"/>
      <point x="925" y="336" type="qcurve" smooth="yes"/>
      <point x="649" y="59" type="line" smooth="yes"/>
      <point x="639" y="49"/>
    </contour>
  </outline>
</glyph>
<glyph name="uni21E6" format="1">
  <advance width="1000" height="1000"/>
  <unicode hex="21E6"/>
  <outline>
    <contour>
      <point x="359" y="182" type="line"/>
      <point x="359" y="300" type="line"/>
      <point x="843" y="300" type="line"/>
      <point x="843" y="459" type="line"/>
      <point x="359" y="459" type="line"/>
      <point x="359" y="579" type="line"/>
      <point x="123" y="380" type="line"/>
    </contour>
    <contour>
      <point x="416" y="58" type="line"/>
      <point x="37" y="380" type="line"/>
      <point x="416" y="701" type="line"/>
      <point x="416" y="516" type="line"/>
      <point x="900" y="516" type="line"/>
      <point x="900" y="243" type="line"/>
      <point x="416" y="243" type="line"/>
    </contour>
  </outline>
</glyph>
<glyph name="uni21E7" format="1">
  <advance width="1000" height="1000"/>
  <unicode hex="21E7"/>
  <outline>
    <contour>
      <point x="578" y="36" type="line"/>
      <point x="578" y="520" type="line"/>
      <point x="698" y="520" type="line"/>
      <point x="499" y="756" type="line"/>
      <point x="301" y="520" type="line"/>
      <point x="419" y="520" type="line"/>
      <point x="419" y="36" type="line"/>
    </contour>
    <contour>
      <point x="635" y="-21" type="line"/>
      <point x="362" y="-21" type="line"/>
      <point x="362" y="463" type="line"/>
      <point x="177" y="463" type="line"/>
      <point x="499" y="842" type="line"/>
      <point x="820" y="463" type="line"/>
      <point x="635" y="463" type="line"/>
    </contour>
  </outline>
</glyph>
<glyph name="uni21E8" format="1">
  <advance width="1000" height="1000"/>
  <unicode hex="21E8"/>
  <outline>
    <contour>
      <point x="645" y="182" type="line"/>
      <point x="880" y="380" type="line"/>
      <point x="645" y="578" type="line"/>
      <point x="645" y="459" type="line"/>
      <point x="161" y="459" type="line"/>
      <point x="161" y="300" type="line"/>
      <point x="645" y="300" type="line"/>
    </contour>
    <contour>
      <point x="588" y="58" type="line"/>
      <point x="588" y="243" type="line"/>
      <point x="104" y="243" type="line"/>
      <point x="104" y="516" type="line"/>
      <point x="588" y="516" type="line"/>
      <point x="588" y="701" type="line"/>
      <point x="967" y="380" type="line"/>
    </contour>
  </outline>
</glyph>
<glyph name="uni21E9" format="1">
  <advance width="1000" height="1000"/>
  <unicode hex="21E9"/>
  <outline>
    <contour>
      <point x="499" y="2" type="line"/>
      <point x="698" y="238" type="line"/>
      <point x="578" y="238" type="line"/>
      <point x="578" y="722" type="line"/>
      <point x="419" y="722" type="line"/>
      <point x="419" y="238" type="line"/>
      <point x="300" y="238" type="line"/>
    </contour>
    <contour>
      <point x="499" y="-84" type="line"/>
      <point x="177" y="295" type="line"/>
      <point x="362" y="295" type="line"/>
      <point x="362" y="779" type="line"/>
      <point x="635" y="779" type="line"/>
      <point x="635" y="295" type="line"/>
      <point x="820" y="295" type="line"/>
    </contour>
  </outline>
</glyph>
<glyph name="universal" format="1">
  <advance width="1000" height="1000"/>
  <unicode hex="2200"/>
  <outline>
    <contour>
      <point x="501" y="126" type="line"/>
      <point x="675" y="470" type="line"/>
      <point x="323" y="470" type="line"/>
    </contour>
    <contour>
      <point x="501" y="12" type="qcurve" smooth="yes"/>
      <point x="483" y="12"/>
      <point x="474" y="31" type="qcurve" smooth="yes"/>
      <point x="121" y="710"/>
      <point x="121" y="718" type="qcurve" smooth="yes"/>
      <point x="121" y="728"/>
      <point x="146" y="744"/>
      <point x="163" y="744" type="qcurve" smooth="yes"/>
      <point x="182" y="744"/>
      <point x="191" y="726" type="qcurve" smooth="yes"/>
      <point x="286" y="541" type="line"/>
      <point x="712" y="541" type="line"/>
      <point x="806" y="726" type="line" smooth="yes"/>
      <point x="815" y="745"/>
      <point x="836" y="745" type="qcurve" smooth="yes"/>
      <point x="877" y="745"/>
      <point x="877" y="718" type="qcurve" smooth="yes"/>
      <point x="877" y="711"/>
      <point x="527" y="32" type="qcurve" smooth="yes"/>
      <point x="518" y="12"/>
    </contour>
  </outline>
</glyph>
<glyph name="existential" format="1">
  <advance width="1000" height="1000"/>
  <unicode hex="2203"/>
  <outline>
    <contour>
      <point x="731" y="26" type="qcurve" smooth="yes"/>
      <point x="249" y="26" type="line" smooth="yes"/>
      <point x="223" y="26"/>
      <point x="223" y="64" type="qcurve" smooth="yes"/>
      <point x="223" y="100"/>
      <point x="249" y="100" type="qcurve" smooth="yes"/>
      <point x="713" y="100" type="line"/>
      <point x="713" y="331" type="line"/>
      <point x="249" y="331" type="line" smooth="yes"/>
      <point x="223" y="331"/>
      <point x="223" y="369" type="qcurve" smooth="yes"/>
      <point x="223" y="405"/>
      <point x="249" y="405" type="qcurve" smooth="yes"/>
      <point x="713" y="405" type="line"/>
      <point x="713" y="637" type="line"/>
      <point x="249" y="637" type="line" smooth="yes"/>
      <point x="223" y="637"/>
      <point x="223" y="675" type="qcurve" smooth="yes"/>
      <point x="223" y="711"/>
      <point x="249" y="711" type="qcurve" smooth="yes"/>
      <point x="731" y="711" type="line" smooth="yes"/>
      <point x="755" y="711"/>
      <point x="787" y="683"/>
      <point x="787" y="655" type="qcurve" smooth="yes"/>
      <point x="787" y="82" type="line" smooth="yes"/>
      <point x="787" y="56"/>
      <point x="755" y="26"/>
    </contour>
  </outline>
</glyph>
<glyph name="emptyset" format="1">
  <advance width="1000" height="1000"/>
  <unicode hex="2205"/>
  <outline>
    <contour>
      <point x="500" y="53" type="qcurve" smooth="yes"/>
      <point x="633" y="53"/>
      <point x="725" y="145" type="qcurve" smooth="yes"/>
      <point x="768" y="188"/>
      <point x="817" y="304"/>
      <point x="817" y="366" type="qcurve" smooth="yes"/>
      <point x="817" y="486"/>
      <point x="748" y="569" type="qcurve"/>
      <point x="301" y="122" type="line"/>
      <point x="384" y="53"/>
    </contour>
    <contour>
      <point x="253" y="168" type="qcurve"/>
      <point x="701" y="616" type="line"/>
      <point x="621" y="687"/>
      <point x="500" y="687" type="qcurve" smooth="yes"/>
      <point x="367" y="687"/>
      <point x="183" y="503"/>
      <point x="183" y="370" type="qcurve" smooth="yes"/>
      <point x="183" y="254"/>
    </contour>
    <contour>
      <point x="500" y="-14" type="qcurve" smooth="yes"/>
      <point x="357" y="-14"/>
      <point x="253" y="75" type="qcurve"/>
      <point x="189" y="11" type="line" smooth="yes"/>
      <point x="184" y="6"/>
      <point x="175" y="6" type="qcurve" smooth="yes"/>
      <point x="165" y="6"/>
      <point x="138" y="33"/>
      <point x="138" y="43" type="qcurve" smooth="yes"/>
      <point x="138" y="52"/>
      <point x="143" y="57" type="qcurve" smooth="yes"/>
      <point x="207" y="121" type="line"/>
      <point x="116" y="227"/>
      <point x="116" y="370" type="qcurve" smooth="yes"/>
      <point x="116" y="528"/>
      <point x="342" y="754"/>
      <point x="500" y="754" type="qcurve" smooth="yes"/>
      <point x="645" y="754"/>
      <point x="749" y="663" type="qcurve"/>
      <point x="813" y="727" type="line" smooth="yes"/>
      <point x="818" y="732"/>
      <point x="838" y="732"/>
      <point x="864" y="706"/>
      <point x="864" y="686"/>
      <point x="859" y="681" type="qcurve" smooth="yes"/>
      <point x="794" y="617" type="line"/>
      <point x="884" y="514"/>
      <point x="884" y="370" type="qcurve" smooth="yes"/>
      <point x="884" y="212"/>
      <point x="658" y="-14"/>
    </contour>
  </outline>
</glyph>
<glyph name="gradient" format="1">
  <advance width="1000" height="1000"/>
  <unicode hex="2207"/>
  <outline>
    <contour>
      <point x="518" y="149" type="line"/>
      <point x="745" y="636" type="line"/>
      <point x="297" y="636" type="line"/>
    </contour>
    <contour>
      <point x="483" y="15"/>
      <point x="476" y="33" type="qcurve" smooth="yes"/>
      <point x="187" y="668"/>
      <point x="187" y="677" type="qcurve" smooth="yes"/>
      <point x="187" y="708"/>
      <point x="224" y="708" type="qcurve" smooth="yes"/>
      <point x="784" y="708" type="line" smooth="yes"/>
      <point x="821" y="708"/>
      <point x="821" y="677" type="qcurve" smooth="yes"/>
      <point x="821" y="667"/>
      <point x="525" y="33" type="qcurve" smooth="yes"/>
      <point x="517" y="15"/>
    </contour>
  </outline>
</glyph>
<glyph name="uni220A" format="1">
  <advance width="1000" height="1000"/>
  <unicode hex="220A"/>
  <outline>
    <contour>
      <point x="531" y="-11" type="qcurve" smooth="yes"/>
      <point x="450" y="-11"/>
      <point x="335" y="57"/>
      <point x="270" y="177"/>
      <point x="270" y="337"/>
      <point x="333" y="458"/>
      <point x="449" y="527"/>
      <point x="514" y="527" type="qcurve" smooth="yes"/>
      <point x="578" y="527"/>
      <point x="653" y="492"/>
      <point x="702" y="445"/>
      <point x="725" y="406"/>
      <point x="725" y="398" type="qcurve" smooth="yes"/>
      <point x="725" y="388"/>
      <point x="712" y="378" type="qcurve" smooth="yes"/>
      <point x="708" y="376"/>
      <point x="697" y="372"/>
      <point x="692" y="372" type="qcurve" smooth="yes"/>
      <point x="683" y="372"/>
      <point x="681" y="377" type="qcurve" smooth="yes"/>
      <point x="632" y="458"/>
      <point x="527" y="458" type="qcurve" smooth="yes"/>
      <point x="488" y="458"/>
      <point x="453" y="441" type="qcurve" smooth="yes"/>
      <point x="371" y="403"/>
      <point x="362" y="299" type="qcurve"/>
      <point x="529" y="299"/>
      <point x="616" y="302" type="qcurve" smooth="yes"/>
      <point x="636" y="302"/>
      <point x="636" y="278" type="qcurve" smooth="yes"/>
      <point x="636" y="257"/>
      <point x="619" y="225"/>
      <point x="600" y="225" type="qcurve" smooth="yes"/>
      <point x="520" y="226"/>
      <point x="363" y="226" type="qcurve"/>
      <point x="367" y="172"/>
      <point x="391" y="133" type="qcurve" smooth="yes"/>
      <point x="439" y="59"/>
      <point x="528" y="59" type="qcurve" smooth="yes"/>
      <point x="578" y="59"/>
      <point x="654" y="93"/>
      <point x="681" y="138" type="qcurve" smooth="yes"/>
      <point x="687" y="143"/>
      <point x="696" y="143" type="qcurve" smooth="yes"/>
      <point x="704" y="143"/>
      <point x="712" y="139" type="qcurve" smooth="yes"/>
      <point x="727" y="129"/>
      <point x="727" y="118" type="qcurve" smooth="yes"/>
      <point x="727" y="108"/>
      <point x="700" y="67"/>
      <point x="674" y="45" type="qcurve" smooth="yes"/>
      <point x="611" y="-11"/>
    </contour>
  </outline>
</glyph>
<glyph name="product" format="1">
  <advance width="1000" height="1000"/>
  <unicode hex="220F"/>
  <outline>
    <contour>
      <point x="678" y="-17" type="qcurve" smooth="yes"/>
      <point x="658" y="-17"/>
      <point x="618" y="1"/>
      <point x="618" y="18" type="qcurve" smooth="yes"/>
      <point x="618" y="34"/>
      <point x="619" y="46" type="qcurve" smooth="yes"/>
      <point x="620" y="107"/>
      <point x="620" y="634" type="qcurve"/>
      <point x="381" y="621" type="line"/>
      <point x="381" y="114"/>
      <point x="384" y="0" type="qcurve" smooth="yes"/>
      <point x="384" y="-17"/>
      <point x="355" y="-17" type="qcurve" smooth="yes"/>
      <point x="335" y="-17"/>
      <point x="295" y="1"/>
      <point x="295" y="18" type="qcurve" smooth="yes"/>
      <point x="295" y="34"/>
      <point x="296" y="46" type="qcurve" smooth="yes"/>
      <point x="297" y="107"/>
      <point x="297" y="618" type="qcurve"/>
      <point x="232" y="610" type="line" smooth="yes"/>
      <point x="216" y="610"/>
      <point x="192" y="650"/>
      <point x="192" y="669" type="qcurve" smooth="yes"/>
      <point x="192" y="693"/>
      <point x="211" y="693" type="qcurve" smooth="yes"/>
      <point x="218" y="693"/>
      <point x="253" y="691"/>
      <point x="298" y="691" type="qcurve" smooth="yes"/>
      <point x="738" y="713"/>
      <point x="769" y="718" type="qcurve" smooth="yes"/>
      <point x="787" y="718"/>
      <point x="808" y="677"/>
      <point x="808" y="659" type="qcurve" smooth="yes"/>
      <point x="808" y="635"/>
      <point x="790" y="635" type="qcurve" smooth="yes"/>
      <point x="777" y="635"/>
      <point x="767" y="636" type="qcurve" smooth="yes"/>
      <point x="740" y="638"/>
      <point x="720" y="638" type="qcurve" smooth="yes"/>
      <point x="704" y="637" type="line"/>
      <point x="704" y="114"/>
      <point x="707" y="0" type="qcurve" smooth="yes"/>
      <point x="707" y="-17"/>
    </contour>
  </outline>
</glyph>
<glyph name="periodcentered" format="1">
  <advance width="350" height="350"/>
  <unicode hex="2219"/>
  <unicode hex="00B7"/>
  <outline>
    <contour>
      <point x="160" y="268"/>
      <point x="113" y="303"/>
      <point x="84" y="355"/>
      <point x="84" y="388" type="qcurve" smooth="yes"/>
      <point x="84" y="420"/>
      <point x="129" y="471"/>
      <point x="163" y="471" type="qcurve" smooth="yes"/>
      <point x="195" y="471"/>
      <point x="242" y="436"/>
      <point x="272" y="384"/>
      <point x="272" y="316"/>
      <point x="226" y="268"/>
    </contour>
  </outline>
</glyph>
<glyph name="radical" format="1">
  <advance width="1000" height="1000"/>
  <unicode hex="221A"/>
  <outline>
    <contour>
      <point x="554" y="70" type="line" smooth="yes"/>
      <point x="550" y="57"/>
      <point x="543" y="35"/>
      <point x="541" y="28" type="qcurve" smooth="yes"/>
      <point x="538" y="12"/>
      <point x="497" y="-6"/>
      <point x="480" y="-6" type="qcurve" smooth="yes"/>
      <point x="441" y="-6"/>
      <point x="436" y="15" type="qcurve" smooth="yes"/>
      <point x="430" y="41"/>
      <point x="418" y="70" type="qcurve" smooth="yes"/>
      <point x="349" y="267" type="line"/>
      <point x="291" y="85" type="line" smooth="yes"/>
      <point x="283" y="65"/>
      <point x="250" y="65"/>
      <point x="217" y="101"/>
      <point x="217" y="122"/>
      <point x="223" y="131" type="qcurve" smooth="yes"/>
      <point x="243" y="162"/>
      <point x="295" y="315"/>
      <point x="298" y="335"/>
      <point x="301" y="368"/>
      <point x="346" y="384"/>
      <point x="365" y="384" type="qcurve" smooth="yes"/>
      <point x="375" y="383" type="line" smooth="yes"/>
      <point x="392" y="382"/>
      <point x="404" y="357"/>
      <point x="408" y="346" type="qcurve" smooth="yes"/>
      <point x="489" y="114" type="line"/>
      <point x="728" y="758"/>
      <point x="731" y="771" type="qcurve" smooth="yes"/>
      <point x="736" y="787"/>
      <point x="748" y="819"/>
      <point x="776" y="819"/>
      <point x="804" y="803"/>
      <point x="824" y="781"/>
      <point x="824" y="771" type="qcurve" smooth="yes"/>
      <point x="824" y="766"/>
      <point x="822" y="763" type="qcurve" smooth="yes"/>
      <point x="806" y="735"/>
      <point x="793" y="700" type="qcurve" smooth="yes"/>
    </contour>
  </outline>
</glyph>
<glyph name="angle" format="1">
  <advance width="1000" height="1000"/>
  <unicode hex="2220"/>
  <outline>
    <contour>
      <point x="208" y="41" type="line" smooth="yes"/>
      <point x="173" y="41"/>
      <point x="173" y="71" type="qcurve" smooth="yes"/>
      <point x="173" y="82"/>
      <point x="182" y="91" type="qcurve" smooth="yes"/>
      <point x="633" y="602" type="line" smooth="yes"/>
      <point x="690" y="668"/>
      <point x="711" y="698" type="qcurve" smooth="yes"/>
      <point x="719" y="710"/>
      <point x="735" y="710" type="qcurve" smooth="yes"/>
      <point x="750" y="710"/>
      <point x="780" y="675"/>
      <point x="780" y="651"/>
      <point x="758" y="627"/>
      <point x="739" y="607" type="qcurve" smooth="yes"/>
      <point x="723" y="590"/>
      <point x="299" y="113" type="qcurve"/>
      <point x="751" y="119"/>
      <point x="833" y="123" type="qcurve" smooth="yes"/>
      <point x="848" y="123"/>
      <point x="862" y="93"/>
      <point x="862" y="80" type="qcurve" smooth="yes"/>
      <point x="862" y="46"/>
      <point x="839" y="46" type="qcurve" smooth="yes"/>
      <point x="817" y="47"/>
      <point x="788" y="47" type="qcurve" smooth="yes"/>
    </contour>
  </outline>
</glyph>
<glyph name="uni2225" format="1">
  <advance width="1000" height="1000"/>
  <unicode hex="2225"/>
  <outline>
    <contour>
      <point x="216" y="-108"/>
      <point x="186" y="-82"/>
      <point x="186" y="-64" type="qcurve" smooth="yes"/>
      <point x="186" y="-57"/>
      <point x="190" y="-48" type="qcurve" smooth="yes"/>
      <point x="202" y="-24"/>
      <point x="211" y="7" type="qcurve" smooth="yes"/>
      <point x="432" y="738"/>
      <point x="439" y="768" type="qcurve" smooth="yes"/>
      <point x="443" y="785"/>
      <point x="452" y="817"/>
      <point x="465" y="817" type="qcurve" smooth="yes"/>
      <point x="477" y="817"/>
      <point x="500" y="800"/>
      <point x="517" y="779"/>
      <point x="517" y="769" type="qcurve" smooth="yes"/>
      <point x="517" y="764"/>
      <point x="515" y="762" type="qcurve" smooth="yes"/>
      <point x="498" y="722"/>
      <point x="254" y="-91" type="qcurve" smooth="yes"/>
      <point x="246" y="-108"/>
    </contour>
    <contour>
      <point x="466" y="-108"/>
      <point x="436" y="-82"/>
      <point x="436" y="-64" type="qcurve" smooth="yes"/>
      <point x="436" y="-57"/>
      <point x="440" y="-49" type="qcurve" smooth="yes"/>
      <point x="455" y="-16"/>
      <point x="463" y="12" type="qcurve" smooth="yes"/>
      <point x="682" y="738"/>
      <point x="689" y="768" type="qcurve" smooth="yes"/>
      <point x="693" y="785"/>
      <point x="702" y="817"/>
      <point x="715" y="817" type="qcurve" smooth="yes"/>
      <point x="727" y="817"/>
      <point x="750" y="800"/>
      <point x="767" y="779"/>
      <point x="767" y="769" type="qcurve" smooth="yes"/>
      <point x="767" y="764"/>
      <point x="765" y="762" type="qcurve" smooth="yes"/>
      <point x="748" y="722"/>
      <point x="504" y="-91" type="qcurve" smooth="yes"/>
      <point x="496" y="-108"/>
    </contour>
  </outline>
</glyph>
<glyph name="uni222E" format="1">
  <advance width="1000" height="1000"/>
  <unicode hex="222E"/>
  <outline>
    <contour>
      <point x="458" y="230" type="qcurve"/>
      <point x="459" y="252"/>
      <point x="459" y="327" type="qcurve" smooth="yes"/>
      <point x="459" y="450"/>
      <point x="461" y="504" type="qcurve"/>
      <point x="421" y="496"/>
      <point x="357" y="418"/>
      <point x="357" y="368" type="qcurve" smooth="yes"/>
      <point x="357" y="317"/>
      <point x="418" y="240"/>
    </contour>
    <contour>
      <point x="534" y="228" type="qcurve"/>
      <point x="577" y="236"/>
      <point x="643" y="315"/>
      <point x="643" y="367" type="qcurve" smooth="yes"/>
      <point x="643" y="418"/>
      <point x="578" y="497"/>
      <point x="537" y="506" type="qcurve"/>
      <point x="536" y="482"/>
      <point x="536" y="407" type="qcurve" smooth="yes"/>
      <point x="536" y="285"/>
    </contour>
    <contour>
      <point x="419" y="-55" type="qcurve" smooth="yes"/>
      <point x="368" y="-55"/>
      <point x="325" y="-22" type="qcurve" smooth="yes"/>
      <point x="316" y="-14"/>
      <point x="316" y="4" type="qcurve" smooth="yes"/>
      <point x="316" y="20"/>
      <point x="330" y="54"/>
      <point x="342" y="54" type="qcurve" smooth="yes"/>
      <point x="348" y="54"/>
      <point x="386" y="18"/>
      <point x="403" y="18" type="qcurve" smooth="yes"/>
      <point x="421" y="18"/>
      <point x="435" y="24"/>
      <point x="453" y="68"/>
      <point x="457" y="166" type="qcurve"/>
      <point x="414" y="174"/>
      <point x="339" y="232"/>
      <point x="295" y="318"/>
      <point x="295" y="418"/>
      <point x="340" y="505"/>
      <point x="420" y="563"/>
      <point x="463" y="569" type="qcurve"/>
      <point x="469" y="654"/>
      <point x="496" y="751"/>
      <point x="545" y="788"/>
      <point x="576" y="788" type="qcurve" smooth="yes"/>
      <point x="627" y="788"/>
      <point x="670" y="755" type="qcurve" smooth="yes"/>
      <point x="679" y="747"/>
      <point x="679" y="729" type="qcurve" smooth="yes"/>
      <point x="679" y="713"/>
      <point x="665" y="679"/>
      <point x="653" y="679" type="qcurve" smooth="yes"/>
      <point x="647" y="679"/>
      <point x="634" y="692" type="qcurve" smooth="yes"/>
      <point x="611" y="715"/>
      <point x="584" y="715" type="qcurve" smooth="yes"/>
      <point x="574" y="715"/>
      <point x="560" y="709"/>
      <point x="542" y="664"/>
      <point x="538" y="568" type="qcurve"/>
      <point x="582" y="562"/>
      <point x="660" y="504"/>
      <point x="705" y="418"/>
      <point x="705" y="367" type="qcurve" smooth="yes"/>
      <point x="705" y="315"/>
      <point x="658" y="227"/>
      <point x="577" y="170"/>
      <point x="532" y="165" type="qcurve"/>
      <point x="527" y="75"/>
      <point x="500" y="-22"/>
      <point x="451" y="-55"/>
    </contour>
  </outline>
</glyph>
<glyph name="uni2235" format="1">
  <advance width="1000" height="1000"/>
  <unicode hex="2235"/>
  <outline>
    <contour>
      <point x="476" y="68"/>
      <point x="441" y="113"/>
      <point x="441" y="161"/>
      <point x="475" y="188"/>
      <point x="498" y="188" type="qcurve" smooth="yes"/>
      <point x="522" y="188"/>
      <point x="558" y="143"/>
      <point x="558" y="121" type="qcurve" smooth="yes"/>
      <point x="558" y="98"/>
      <point x="530" y="68"/>
    </contour>
    <contour>
      <point x="202" y="544"/>
      <point x="167" y="589"/>
      <point x="167" y="637"/>
      <point x="201" y="664"/>
      <point x="224" y="664" type="qcurve" smooth="yes"/>
      <point x="248" y="664"/>
      <point x="284" y="619"/>
      <point x="284" y="597" type="qcurve" smooth="yes"/>
      <point x="284" y="574"/>
      <point x="256" y="544"/>
    </contour>
    <contour>
      <point x="748" y="544"/>
      <point x="713" y="589"/>
      <point x="713" y="637"/>
      <point x="747" y="664"/>
      <point x="770" y="664" type="qcurve" smooth="yes"/>
      <point x="794" y="664"/>
      <point x="830" y="619"/>
      <point x="830" y="597" type="qcurve" smooth="yes"/>
      <point x="830" y="574"/>
      <point x="802" y="544"/>
    </contour>
  </outline>
</glyph>
<glyph name="uni2237" format="1">
  <advance width="1000" height="1000"/>
  <unicode hex="2237"/>
  <outline>
    <contour>
      <point x="222" y="564"/>
      <point x="187" y="609"/>
      <point x="187" y="657"/>
      <point x="221" y="684"/>
      <point x="244" y="684" type="qcurve" smooth="yes"/>
      <point x="268" y="684"/>
      <point x="304" y="639"/>
      <point x="304" y="616" type="qcurve" smooth="yes"/>
      <point x="304" y="594"/>
      <point x="276" y="564"/>
    </contour>
    <contour>
      <point x="728" y="564"/>
      <point x="693" y="609"/>
      <point x="693" y="657"/>
      <point x="727" y="684"/>
      <point x="750" y="684" type="qcurve" smooth="yes"/>
      <point x="774" y="684"/>
      <point x="810" y="639"/>
      <point x="810" y="616" type="qcurve" smooth="yes"/>
      <point x="810" y="594"/>
      <point x="782" y="564"/>
    </contour>
    <contour>
      <point x="222" y="58"/>
      <point x="187" y="103"/>
      <point x="187" y="151"/>
      <point x="221" y="178"/>
      <point x="244" y="178" type="qcurve" smooth="yes"/>
      <point x="268" y="178"/>
      <point x="304" y="133"/>
      <point x="304" y="110" type="qcurve" smooth="yes"/>
      <point x="304" y="88"/>
      <point x="276" y="58"/>
    </contour>
    <contour>
      <point x="728" y="58"/>
      <point x="693" y="103"/>
      <point x="693" y="151"/>
      <point x="727" y="178"/>
      <point x="750" y="178" type="qcurve" smooth="yes"/>
      <point x="774" y="178"/>
      <point x="810" y="133"/>
      <point x="810" y="110" type="qcurve" smooth="yes"/>
      <point x="810" y="88"/>
      <point x="782" y="58"/>
    </contour>
  </outline>
</glyph>
<glyph name="approxequal" format="1">
  <advance width="1000" height="1000"/>
  <unicode hex="2248"/>
  <outline>
    <contour>
      <point x="680" y="389" type="qcurve" smooth="yes"/>
      <point x="591" y="389"/>
      <point x="480" y="434" type="qcurve" smooth="yes"/>
      <point x="388" y="474"/>
      <point x="315" y="474" type="qcurve" smooth="yes"/>
      <point x="235" y="474"/>
      <point x="179" y="437" type="qcurve" smooth="yes"/>
      <point x="168" y="429"/>
      <point x="157" y="429" type="qcurve" smooth="yes"/>
      <point x="139" y="429"/>
      <point x="138" y="449" type="qcurve" smooth="yes"/>
      <point x="138" y="460"/>
      <point x="147" y="472" type="qcurve" smooth="yes"/>
      <point x="172" y="501"/>
      <point x="263" y="550"/>
      <point x="316" y="550" type="qcurve" smooth="yes"/>
      <point x="413" y="550"/>
      <point x="516" y="504" type="qcurve" smooth="yes"/>
      <point x="603" y="465"/>
      <point x="681" y="465" type="qcurve" smooth="yes"/>
      <point x="762" y="465"/>
      <point x="817" y="502" type="qcurve" smooth="yes"/>
      <point x="828" y="510"/>
      <point x="839" y="510" type="qcurve" smooth="yes"/>
      <point x="857" y="510"/>
      <point x="858" y="491" type="qcurve" smooth="yes"/>
      <point x="858" y="457"/>
      <point x="779" y="414" type="qcurve" smooth="yes"/>
      <point x="733" y="389"/>
    </contour>
    <contour>
      <point x="680" y="149" type="qcurve" smooth="yes"/>
      <point x="591" y="149"/>
      <point x="480" y="194" type="qcurve" smooth="yes"/>
      <point x="388" y="234"/>
      <point x="315" y="234" type="qcurve" smooth="yes"/>
      <point x="235" y="234"/>
      <point x="179" y="197" type="qcurve" smooth="yes"/>
      <point x="168" y="189"/>
      <point x="157" y="189" type="qcurve" smooth="yes"/>
      <point x="139" y="189"/>
      <point x="138" y="209" type="qcurve" smooth="yes"/>
      <point x="138" y="220"/>
      <point x="147" y="232" type="qcurve" smooth="yes"/>
      <point x="172" y="261"/>
      <point x="263" y="310"/>
      <point x="316" y="310" type="qcurve" smooth="yes"/>
      <point x="413" y="310"/>
      <point x="516" y="264" type="qcurve" smooth="yes"/>
      <point x="603" y="225"/>
      <point x="681" y="225" type="qcurve" smooth="yes"/>
      <point x="762" y="225"/>
      <point x="817" y="262" type="qcurve" smooth="yes"/>
      <point x="828" y="270"/>
      <point x="839" y="270" type="qcurve" smooth="yes"/>
      <point x="857" y="270"/>
      <point x="858" y="251" type="qcurve" smooth="yes"/>
      <point x="858" y="217"/>
      <point x="779" y="174" type="qcurve" smooth="yes"/>
      <point x="733" y="149"/>
    </contour>
  </outline>
</glyph>
<glyph name="equivalence" format="1">
  <advance width="1000" height="1000"/>
  <unicode hex="2261"/>
  <outline>
    <contour>
      <point x="186" y="160" type="qcurve" smooth="yes"/>
      <point x="172" y="160"/>
      <point x="159" y="192"/>
      <point x="159" y="206" type="qcurve" smooth="yes"/>
      <point x="159" y="236"/>
      <point x="181" y="236" type="qcurve" smooth="yes"/>
      <point x="211" y="234"/>
      <point x="268" y="234" type="qcurve" smooth="yes"/>
      <point x="753" y="240"/>
      <point x="811" y="243" type="qcurve" smooth="yes"/>
      <point x="826" y="243"/>
      <point x="840" y="214"/>
      <point x="840" y="202" type="qcurve" smooth="yes"/>
      <point x="840" y="168"/>
      <point x="817" y="168" type="qcurve" smooth="yes"/>
      <point x="734" y="169" type="line"/>
      <point x="199" y="162"/>
    </contour>
    <contour>
      <point x="186" y="328" type="qcurve" smooth="yes"/>
      <point x="172" y="328"/>
      <point x="159" y="360"/>
      <point x="159" y="374" type="qcurve" smooth="yes"/>
      <point x="159" y="404"/>
      <point x="181" y="404" type="qcurve" smooth="yes"/>
      <point x="211" y="402"/>
      <point x="268" y="402" type="qcurve" smooth="yes"/>
      <point x="753" y="408"/>
      <point x="811" y="411" type="qcurve" smooth="yes"/>
      <point x="826" y="411"/>
      <point x="840" y="382"/>
      <point x="840" y="370" type="qcurve" smooth="yes"/>
      <point x="840" y="336"/>
      <point x="817" y="336" type="qcurve" smooth="yes"/>
      <point x="734" y="337" type="line"/>
      <point x="199" y="330"/>
    </contour>
    <contour>
      <point x="186" y="494" type="qcurve" smooth="yes"/>
      <point x="172" y="494"/>
      <point x="159" y="526"/>
      <point x="159" y="540" type="qcurve" smooth="yes"/>
      <point x="159" y="570"/>
      <point x="181" y="570" type="qcurve" smooth="yes"/>
      <point x="211" y="568"/>
      <point x="268" y="568" type="qcurve" smooth="yes"/>
      <point x="753" y="574"/>
      <point x="811" y="577" type="qcurve" smooth="yes"/>
      <point x="826" y="577"/>
      <point x="840" y="548"/>
      <point x="840" y="536" type="qcurve" smooth="yes"/>
      <point x="840" y="502"/>
      <point x="817" y="502" type="qcurve" smooth="yes"/>
      <point x="734" y="503" type="line"/>
      <point x="199" y="496"/>
    </contour>
  </outline>
</glyph>
<glyph name="uni2267" format="1">
  <advance width="1000" height="1000"/>
  <unicode hex="2267"/>
  <outline>
    <contour>
      <point x="197" y="-15" type="qcurve" smooth="yes"/>
      <point x="183" y="-15"/>
      <point x="170" y="17"/>
      <point x="170" y="31" type="qcurve" smooth="yes"/>
      <point x="170" y="62"/>
      <point x="192" y="62" type="qcurve" smooth="yes"/>
      <point x="222" y="60"/>
      <point x="279" y="60" type="qcurve" smooth="yes"/>
      <point x="749" y="66"/>
      <point x="807" y="69" type="qcurve" smooth="yes"/>
      <point x="822" y="69"/>
      <point x="836" y="40"/>
      <point x="836" y="27" type="qcurve" smooth="yes"/>
      <point x="836" y="-7"/>
      <point x="813" y="-7" type="qcurve" smooth="yes"/>
      <point x="730" y="-6" type="line"/>
      <point x="210" y="-13"/>
    </contour>
    <contour>
      <point x="197" y="129" type="qcurve" smooth="yes"/>
      <point x="183" y="129"/>
      <point x="170" y="161"/>
      <point x="170" y="175" type="qcurve" smooth="yes"/>
      <point x="170" y="206"/>
      <point x="192" y="206" type="qcurve" smooth="yes"/>
      <point x="222" y="204"/>
      <point x="279" y="204" type="qcurve" smooth="yes"/>
      <point x="749" y="210"/>
      <point x="807" y="213" type="qcurve" smooth="yes"/>
      <point x="822" y="213"/>
      <point x="836" y="184"/>
      <point x="836" y="171" type="qcurve" smooth="yes"/>
      <point x="836" y="137"/>
      <point x="813" y="137" type="qcurve" smooth="yes"/>
      <point x="730" y="138" type="line"/>
      <point x="210" y="131"/>
    </contour>
    <contour>
      <point x="227" y="250" type="qcurve" smooth="yes"/>
      <point x="213" y="250"/>
      <point x="197" y="288"/>
      <point x="197" y="307" type="qcurve" smooth="yes"/>
      <point x="197" y="328"/>
      <point x="210" y="333" type="qcurve" smooth="yes"/>
      <point x="233" y="339"/>
      <point x="268" y="353"/>
      <point x="529" y="442"/>
      <point x="693" y="489" type="qcurve"/>
      <point x="636" y="507"/>
      <point x="333" y="596"/>
      <point x="241" y="630"/>
      <point x="214" y="639" type="qcurve" smooth="yes"/>
      <point x="199" y="645"/>
      <point x="199" y="684" type="qcurve" smooth="yes"/>
      <point x="199" y="725"/>
      <point x="224" y="725" type="qcurve" smooth="yes"/>
      <point x="228" y="725"/>
      <point x="263" y="705"/>
      <point x="310" y="686" type="qcurve" smooth="yes"/>
      <point x="478" y="618"/>
      <point x="759" y="538" type="qcurve" smooth="yes"/>
      <point x="797" y="528"/>
      <point x="797" y="479" type="qcurve" smooth="yes"/>
      <point x="797" y="464"/>
      <point x="779" y="445"/>
      <point x="717" y="425"/>
      <point x="673" y="412" type="qcurve" smooth="yes"/>
      <point x="359" y="315"/>
      <point x="291" y="282" type="qcurve" smooth="yes"/>
      <point x="256" y="265"/>
      <point x="231" y="250"/>
    </contour>
  </outline>
</glyph>
<glyph name="uni226A" format="1">
  <advance width="1000" height="1000"/>
  <unicode hex="226A"/>
  <outline>
    <contour>
      <point x="573" y="7" type="qcurve" smooth="yes"/>
      <point x="566" y="7"/>
      <point x="525" y="42" type="qcurve" smooth="yes"/>
      <point x="492" y="71"/>
      <point x="298" y="211" type="qcurve" smooth="yes"/>
      <point x="167" y="306"/>
      <point x="130" y="312"/>
      <point x="115" y="352"/>
      <point x="115" y="365" type="qcurve" smooth="yes"/>
      <point x="115" y="379"/>
      <point x="125" y="396"/>
      <point x="156" y="406"/>
      <point x="229" y="459" type="qcurve" smooth="yes"/>
      <point x="330" y="530"/>
      <point x="515" y="669"/>
      <point x="564" y="711"/>
      <point x="571" y="711" type="qcurve" smooth="yes"/>
      <point x="587" y="711"/>
      <point x="607" y="671"/>
      <point x="607" y="658" type="qcurve" smooth="yes"/>
      <point x="607" y="643"/>
      <point x="598" y="636" type="qcurve" smooth="yes"/>
      <point x="562" y="615"/>
      <point x="502" y="569"/>
      <point x="244" y="385"/>
      <point x="203" y="358" type="qcurve"/>
      <point x="391" y="232"/>
      <point x="574" y="98"/>
      <point x="595" y="85" type="qcurve" smooth="yes"/>
      <point x="603" y="79"/>
      <point x="603" y="62" type="qcurve" smooth="yes"/>
      <point x="603" y="47"/>
      <point x="588" y="7"/>
    </contour>
    <contour>
      <point x="841" y="7" type="qcurve" smooth="yes"/>
      <point x="834" y="7"/>
      <point x="751" y="78"/>
      <point x="584" y="197" type="qcurve" smooth="yes"/>
      <point x="430" y="306"/>
      <point x="417" y="308" type="qcurve" smooth="yes"/>
      <point x="393" y="311"/>
      <point x="384" y="337" type="qcurve" smooth="yes"/>
      <point x="379" y="352"/>
      <point x="379" y="365" type="qcurve" smooth="yes"/>
      <point x="379" y="379"/>
      <point x="389" y="396"/>
      <point x="414" y="404"/>
      <point x="427" y="413" type="qcurve" smooth="yes"/>
      <point x="678" y="581"/>
      <point x="826" y="705" type="qcurve" smooth="yes"/>
      <point x="832" y="711"/>
      <point x="839" y="711" type="qcurve" smooth="yes"/>
      <point x="855" y="711"/>
      <point x="875" y="671"/>
      <point x="875" y="658" type="qcurve" smooth="yes"/>
      <point x="875" y="643"/>
      <point x="866" y="636" type="qcurve" smooth="yes"/>
      <point x="830" y="615"/>
      <point x="761" y="562"/>
      <point x="500" y="380"/>
      <point x="467" y="358" type="qcurve"/>
      <point x="699" y="203"/>
      <point x="842" y="98"/>
      <point x="863" y="85" type="qcurve" smooth="yes"/>
      <point x="871" y="79"/>
      <point x="871" y="62" type="qcurve" smooth="yes"/>
      <point x="871" y="47"/>
      <point x="856" y="7"/>
    </contour>
  </outline>
</glyph>
<glyph name="uni226E" format="1">
  <advance width="1000" height="1000"/>
  <unicode hex="226E"/>
  <outline>
    <contour>
      <point x="465" y="278" type="qcurve"/>
      <point x="465" y="463" type="line"/>
      <point x="357" y="403"/>
      <point x="294" y="370" type="qcurve"/>
      <point x="355" y="338"/>
    </contour>
    <contour>
      <point x="501" y="-140" type="qcurve" smooth="yes"/>
      <point x="465" y="-140"/>
      <point x="465" y="-115" type="qcurve" smooth="yes"/>
      <point x="465" y="197" type="line"/>
      <point x="254" y="316"/>
      <point x="237" y="320" type="qcurve" smooth="yes"/>
      <point x="212" y="323"/>
      <point x="203" y="350" type="qcurve" smooth="yes"/>
      <point x="198" y="367"/>
      <point x="198" y="381" type="qcurve" smooth="yes"/>
      <point x="198" y="391"/>
      <point x="202" y="400" type="qcurve" smooth="yes"/>
      <point x="210" y="411"/>
      <point x="252" y="425"/>
      <point x="378" y="496" type="qcurve" smooth="yes"/>
      <point x="465" y="546" type="line"/>
      <point x="465" y="875" type="line" smooth="yes"/>
      <point x="465" y="900"/>
      <point x="501" y="900" type="qcurve" smooth="yes"/>
      <point x="536" y="900"/>
      <point x="536" y="875" type="qcurve" smooth="yes"/>
      <point x="536" y="586" type="line"/>
      <point x="679" y="668"/>
      <point x="731" y="711" type="qcurve" smooth="yes"/>
      <point x="737" y="715"/>
      <point x="742" y="715" type="qcurve" smooth="yes"/>
      <point x="756" y="715"/>
      <point x="769" y="679"/>
      <point x="769" y="662" type="qcurve" smooth="yes"/>
      <point x="769" y="642"/>
      <point x="759" y="631" type="qcurve"/>
      <point x="693" y="594" type="line"/>
      <point x="536" y="503" type="line"/>
      <point x="536" y="238" type="line"/>
      <point x="573" y="218" type="line" smooth="yes"/>
      <point x="665" y="166"/>
      <point x="716" y="136" type="qcurve" smooth="yes"/>
      <point x="759" y="112" type="line"/>
      <point x="770" y="100"/>
      <point x="770" y="75" type="qcurve" smooth="yes"/>
      <point x="770" y="59"/>
      <point x="759" y="26"/>
      <point x="747" y="26" type="qcurve" smooth="yes"/>
      <point x="742" y="26"/>
      <point x="710" y="48" type="qcurve" smooth="yes"/>
      <point x="654" y="89"/>
      <point x="536" y="156" type="qcurve"/>
      <point x="536" y="-115" type="line" smooth="yes"/>
      <point x="536" y="-131"/>
      <point x="517" y="-138" type="qcurve" smooth="yes"/>
      <point x="509" y="-140"/>
    </contour>
  </outline>
</glyph>
<glyph name="uni2273" format="1">
  <advance width="1000" height="1000"/>
  <unicode hex="2273"/>
  <outline>
    <contour>
      <point x="665" y="19" type="qcurve" smooth="yes"/>
      <point x="575" y="19"/>
      <point x="401" y="104"/>
      <point x="331" y="104" type="qcurve" smooth="yes"/>
      <point x="262" y="104"/>
      <point x="218" y="67" type="qcurve" smooth="yes"/>
      <point x="208" y="59"/>
      <point x="198" y="59" type="qcurve" smooth="yes"/>
      <point x="180" y="59"/>
      <point x="180" y="78" type="qcurve" smooth="yes"/>
      <point x="180" y="107"/>
      <point x="286" y="180"/>
      <point x="334" y="180" type="qcurve" smooth="yes"/>
      <point x="421" y="180"/>
      <point x="595" y="95"/>
      <point x="665" y="95" type="qcurve" smooth="yes"/>
      <point x="734" y="95"/>
      <point x="778" y="132" type="qcurve" smooth="yes"/>
      <point x="788" y="140"/>
      <point x="798" y="140" type="qcurve" smooth="yes"/>
      <point x="816" y="140"/>
      <point x="816" y="122" type="qcurve" smooth="yes"/>
      <point x="816" y="92"/>
      <point x="712" y="19"/>
    </contour>
    <contour>
      <point x="226" y="238" type="qcurve" smooth="yes"/>
      <point x="212" y="238"/>
      <point x="196" y="277"/>
      <point x="196" y="296" type="qcurve" smooth="yes"/>
      <point x="196" y="317"/>
      <point x="209" y="322" type="qcurve" smooth="yes"/>
      <point x="232" y="328"/>
      <point x="267" y="342"/>
      <point x="534" y="433"/>
      <point x="688" y="477" type="qcurve"/>
      <point x="665" y="484"/>
      <point x="554" y="516"/>
      <point x="337" y="581"/>
      <point x="240" y="617"/>
      <point x="213" y="626" type="qcurve" smooth="yes"/>
      <point x="198" y="632"/>
      <point x="198" y="672" type="qcurve" smooth="yes"/>
      <point x="198" y="713"/>
      <point x="223" y="713" type="qcurve" smooth="yes"/>
      <point x="227" y="713"/>
      <point x="262" y="693"/>
      <point x="309" y="674" type="qcurve" smooth="yes"/>
      <point x="477" y="606"/>
      <point x="758" y="526" type="qcurve" smooth="yes"/>
      <point x="796" y="516"/>
      <point x="796" y="467" type="qcurve" smooth="yes"/>
      <point x="796" y="452"/>
      <point x="778" y="433"/>
      <point x="716" y="413"/>
      <point x="358" y="303"/>
      <point x="255" y="253"/>
      <point x="230" y="238"/>
    </contour>
  </outline>
</glyph>
<glyph name="reflexsubset" format="1">
  <advance width="1000" height="1000"/>
  <unicode hex="2286"/>
  <outline>
    <contour>
      <point x="822" y="13" type="qcurve" smooth="yes"/>
      <point x="188" y="13" type="line" smooth="yes"/>
      <point x="162" y="13"/>
      <point x="162" y="51" type="qcurve" smooth="yes"/>
      <point x="162" y="87"/>
      <point x="188" y="87" type="qcurve" smooth="yes"/>
      <point x="822" y="87" type="line" smooth="yes"/>
      <point x="848" y="87"/>
      <point x="848" y="13"/>
    </contour>
    <contour>
      <point x="820" y="209" type="qcurve" smooth="yes"/>
      <point x="386" y="209" type="line" smooth="yes"/>
      <point x="323" y="209"/>
      <point x="208" y="266"/>
      <point x="137" y="379"/>
      <point x="137" y="545"/>
      <point x="210" y="658"/>
      <point x="325" y="717"/>
      <point x="386" y="717" type="qcurve" smooth="yes"/>
      <point x="820" y="717" type="line" smooth="yes"/>
      <point x="846" y="717"/>
      <point x="846" y="643"/>
      <point x="820" y="643" type="qcurve" smooth="yes"/>
      <point x="388" y="643" type="line" smooth="yes"/>
      <point x="344" y="643"/>
      <point x="265" y="601"/>
      <point x="215" y="521"/>
      <point x="215" y="401"/>
      <point x="265" y="322"/>
      <point x="344" y="283"/>
      <point x="388" y="283" type="qcurve" smooth="yes"/>
      <point x="820" y="283" type="line" smooth="yes"/>
      <point x="846" y="283"/>
      <point x="846" y="209"/>
    </contour>
  </outline>
</glyph>
<glyph name="reflexsuperset" format="1">
  <advance width="1000" height="1000"/>
  <unicode hex="2287"/>
  <outline>
    <contour>
      <point x="809" y="13" type="qcurve" smooth="yes"/>
      <point x="175" y="13" type="line" smooth="yes"/>
      <point x="149" y="13"/>
      <point x="149" y="51" type="qcurve" smooth="yes"/>
      <point x="149" y="87"/>
      <point x="175" y="87" type="qcurve" smooth="yes"/>
      <point x="809" y="87" type="line" smooth="yes"/>
      <point x="835" y="87"/>
      <point x="835" y="13"/>
    </contour>
    <contour>
      <point x="611" y="209" type="qcurve" smooth="yes"/>
      <point x="177" y="209" type="line" smooth="yes"/>
      <point x="151" y="209"/>
      <point x="151" y="247" type="qcurve" smooth="yes"/>
      <point x="151" y="283"/>
      <point x="177" y="283" type="qcurve" smooth="yes"/>
      <point x="609" y="283" type="line" smooth="yes"/>
      <point x="653" y="283"/>
      <point x="692" y="302" type="qcurve" smooth="yes"/>
      <point x="782" y="346"/>
      <point x="782" y="461" type="qcurve" smooth="yes"/>
      <point x="782" y="575"/>
      <point x="693" y="622" type="qcurve" smooth="yes"/>
      <point x="654" y="643"/>
      <point x="609" y="643" type="qcurve" smooth="yes"/>
      <point x="177" y="643" type="line" smooth="yes"/>
      <point x="151" y="643"/>
      <point x="151" y="681" type="qcurve" smooth="yes"/>
      <point x="151" y="717"/>
      <point x="177" y="717" type="qcurve" smooth="yes"/>
      <point x="611" y="717" type="line" smooth="yes"/>
      <point x="673" y="717"/>
      <point x="787" y="658"/>
      <point x="860" y="545"/>
      <point x="860" y="379"/>
      <point x="789" y="266"/>
      <point x="675" y="209"/>
    </contour>
  </outline>
</glyph>
<glyph name="circleplus" format="1">
  <advance width="1000" height="1000"/>
  <unicode hex="2295"/>
  <outline>
    <contour>
      <point x="466" y="76"/>
      <point x="466" y="98" type="qcurve" smooth="yes"/>
      <point x="466" y="335" type="line"/>
      <point x="230" y="335" type="line" smooth="yes"/>
      <point x="219" y="335"/>
      <point x="208" y="357"/>
      <point x="208" y="381"/>
      <point x="219" y="401"/>
      <point x="230" y="401" type="qcurve" smooth="yes"/>
      <point x="466" y="401" type="line"/>
      <point x="466" y="638" type="line" smooth="yes"/>
      <point x="466" y="650"/>
      <point x="489" y="661"/>
      <point x="501" y="661" type="qcurve" smooth="yes"/>
      <point x="512" y="661"/>
      <point x="534" y="650"/>
      <point x="534" y="638" type="qcurve" smooth="yes"/>
      <point x="534" y="401" type="line"/>
      <point x="770" y="401" type="line" smooth="yes"/>
      <point x="792" y="401"/>
      <point x="792" y="335"/>
      <point x="770" y="335" type="qcurve" smooth="yes"/>
      <point x="534" y="335" type="line"/>
      <point x="534" y="98" type="line" smooth="yes"/>
      <point x="534" y="76"/>
    </contour>
    <contour>
      <point x="633" y="53"/>
      <point x="817" y="237"/>
      <point x="817" y="503"/>
      <point x="633" y="687"/>
      <point x="367" y="687"/>
      <point x="183" y="503"/>
      <point x="183" y="237"/>
      <point x="367" y="53"/>
    </contour>
    <contour>
      <point x="342" y="-14"/>
      <point x="116" y="212"/>
      <point x="116" y="528"/>
      <point x="342" y="754"/>
      <point x="658" y="754"/>
      <point x="884" y="528"/>
      <point x="884" y="212"/>
      <point x="658" y="-14"/>
    </contour>
  </outline>
</glyph>
<glyph name="uni2296" format="1">
  <advance width="1000" height="1000"/>
  <unicode hex="2296"/>
  <outline>
    <contour>
      <point x="770" y="335" type="qcurve" smooth="yes"/>
      <point x="230" y="335" type="line" smooth="yes"/>
      <point x="219" y="335"/>
      <point x="208" y="357"/>
      <point x="208" y="381"/>
      <point x="219" y="401"/>
      <point x="230" y="401" type="qcurve" smooth="yes"/>
      <point x="770" y="401" type="line" smooth="yes"/>
      <point x="792" y="401"/>
      <point x="792" y="335"/>
    </contour>
    <contour>
      <point x="633" y="53"/>
      <point x="817" y="237"/>
      <point x="817" y="503"/>
      <point x="633" y="687"/>
      <point x="367" y="687"/>
      <point x="183" y="503"/>
      <point x="183" y="237"/>
      <point x="367" y="53"/>
    </contour>
    <contour>
      <point x="342" y="-14"/>
      <point x="116" y="212"/>
      <point x="116" y="528"/>
      <point x="342" y="754"/>
      <point x="658" y="754"/>
      <point x="884" y="528"/>
      <point x="884" y="212"/>
      <point x="658" y="-14"/>
    </contour>
  </outline>
</glyph>
<glyph name="uni2298" format="1">
  <advance width="1000" height="1000"/>
  <unicode hex="2298"/>
  <outline>
    <contour>
      <point x="311" y="142" type="qcurve" smooth="yes"/>
      <point x="301" y="142"/>
      <point x="274" y="169"/>
      <point x="274" y="179" type="qcurve" smooth="yes"/>
      <point x="274" y="188"/>
      <point x="279" y="193" type="qcurve" smooth="yes"/>
      <point x="675" y="589" type="line" smooth="yes"/>
      <point x="680" y="594"/>
      <point x="700" y="594"/>
      <point x="726" y="568"/>
      <point x="726" y="548"/>
      <point x="721" y="543" type="qcurve" smooth="yes"/>
      <point x="325" y="147" type="line" smooth="yes"/>
      <point x="320" y="142"/>
    </contour>
    <contour>
      <point x="633" y="53"/>
      <point x="817" y="237"/>
      <point x="817" y="503"/>
      <point x="633" y="687"/>
      <point x="367" y="687"/>
      <point x="183" y="503"/>
      <point x="183" y="237"/>
      <point x="367" y="53"/>
    </contour>
    <contour>
      <point x="342" y="-14"/>
      <point x="116" y="212"/>
      <point x="116" y="528"/>
      <point x="342" y="754"/>
      <point x="658" y="754"/>
      <point x="884" y="528"/>
      <point x="884" y="212"/>
      <point x="658" y="-14"/>
    </contour>
  </outline>
</glyph>
<glyph name="uni229D" format="1">
  <advance width="1000" height="1000"/>
  <unicode hex="229D"/>
  <outline>
    <contour>
      <point x="500" y="-14" type="qcurve" smooth="yes"/>
      <point x="394" y="-14"/>
      <point x="220" y="90"/>
      <point x="116" y="264"/>
      <point x="116" y="370" type="qcurve" smooth="yes"/>
      <point x="116" y="477"/>
      <point x="220" y="650"/>
      <point x="394" y="754"/>
      <point x="500" y="754" type="qcurve" smooth="yes"/>
      <point x="607" y="754"/>
      <point x="780" y="650"/>
      <point x="884" y="477"/>
      <point x="884" y="370" type="qcurve" smooth="yes"/>
      <point x="884" y="264"/>
      <point x="780" y="90"/>
      <point x="607" y="-14"/>
    </contour>
    <contour>
      <point x="633" y="53"/>
      <point x="817" y="237"/>
      <point x="817" y="503"/>
      <point x="633" y="687"/>
      <point x="367" y="687"/>
      <point x="183" y="503"/>
      <point x="183" y="237"/>
      <point x="367" y="53"/>
    </contour>
    <contour>
      <point x="770" y="335" type="qcurve" smooth="yes"/>
      <point x="230" y="335" type="line" smooth="yes"/>
      <point x="211" y="335"/>
      <point x="209" y="368" type="qcurve" smooth="yes"/>
      <point x="209" y="401"/>
      <point x="230" y="401" type="qcurve" smooth="yes"/>
      <point x="770" y="401" type="line" smooth="yes"/>
      <point x="792" y="401"/>
      <point x="792" y="335"/>
    </contour>
  </outline>
</glyph>
<glyph name="uni22A0" format="1">
  <advance width="1000" height="1000"/>
  <unicode hex="22A0"/>
  <outline>
    <contour>
      <point x="292" y="122" type="qcurve" smooth="yes"/>
      <point x="282" y="122"/>
      <point x="254" y="150"/>
      <point x="254" y="160" type="qcurve" smooth="yes"/>
      <point x="254" y="169"/>
      <point x="259" y="174" type="qcurve" smooth="yes"/>
      <point x="453" y="368" type="line"/>
      <point x="258" y="563" type="line" smooth="yes"/>
      <point x="253" y="568"/>
      <point x="253" y="588"/>
      <point x="281" y="616"/>
      <point x="291" y="616" type="qcurve" smooth="yes"/>
      <point x="300" y="616"/>
      <point x="305" y="611" type="qcurve" smooth="yes"/>
      <point x="500" y="416" type="line"/>
      <point x="695" y="611" type="line" smooth="yes"/>
      <point x="702" y="615"/>
      <point x="712" y="615" type="qcurve" smooth="yes"/>
      <point x="721" y="615"/>
      <point x="749" y="589"/>
      <point x="749" y="578" type="qcurve" smooth="yes"/>
      <point x="749" y="568"/>
      <point x="743" y="562" type="qcurve" smooth="yes"/>
      <point x="548" y="368" type="line"/>
      <point x="739" y="176" type="line" smooth="yes"/>
      <point x="744" y="171"/>
      <point x="744" y="162" type="qcurve" smooth="yes"/>
      <point x="744" y="152"/>
      <point x="716" y="124"/>
      <point x="696" y="124"/>
      <point x="691" y="129" type="qcurve" smooth="yes"/>
      <point x="500" y="320" type="line"/>
      <point x="306" y="127" type="line" smooth="yes"/>
      <point x="301" y="122"/>
    </contour>
    <contour>
      <point x="866" y="3" type="line"/>
      <point x="866" y="734" type="line"/>
      <point x="135" y="734" type="line"/>
      <point x="135" y="3" type="line"/>
    </contour>
    <contour>
      <point x="938" y="-69" type="line"/>
      <point x="63" y="-69" type="line"/>
      <point x="63" y="806" type="line"/>
      <point x="938" y="806" type="line"/>
    </contour>
  </outline>
</glyph>
<glyph name="uni22C4" format="1">
  <advance width="1000" height="1000"/>
  <unicode hex="22C4"/>
  <outline>
    <contour>
      <point x="499" y="312" type="line"/>
      <point x="565" y="378" type="line"/>
      <point x="500" y="443" type="line"/>
      <point x="434" y="377" type="line"/>
    </contour>
    <contour>
      <point x="499" y="230" type="line"/>
      <point x="352" y="377" type="line"/>
      <point x="500" y="523" type="line"/>
      <point x="645" y="378" type="line"/>
    </contour>
  </outline>
</glyph>
<glyph name="uni2303" format="1">
  <advance width="500" height="500"/>
  <unicode hex="2303"/>
  <outline>
    <contour>
      <point x="385" y="534" type="qcurve" smooth="yes"/>
      <point x="357" y="534"/>
      <point x="250" y="720" type="qcurve"/>
      <point x="143" y="534"/>
      <point x="115" y="534" type="qcurve" smooth="yes"/>
      <point x="102" y="534"/>
      <point x="74" y="556"/>
      <point x="74" y="567" type="qcurve" smooth="yes"/>
      <point x="74" y="577"/>
      <point x="86" y="594"/>
      <point x="107" y="618"/>
      <point x="138" y="661"/>
      <point x="198" y="748"/>
      <point x="220" y="796" type="qcurve" smooth="yes"/>
      <point x="227" y="814"/>
      <point x="251" y="814" type="qcurve" smooth="yes"/>
      <point x="274" y="814"/>
      <point x="281" y="796" type="qcurve" smooth="yes"/>
      <point x="311" y="734"/>
      <point x="393" y="618"/>
      <point x="426" y="579"/>
      <point x="426" y="568" type="qcurve" smooth="yes"/>
      <point x="426" y="556"/>
      <point x="398" y="534"/>
    </contour>
  </outline>
</glyph>
<glyph name="uni2318" format="1">
  <advance width="1000" height="1000"/>
  <unicode hex="2318"/>
  <outline>
    <contour>
      <point x="762" y="-45" type="qcurve" smooth="yes"/>
      <point x="698" y="-45"/>
      <point x="609" y="46"/>
      <point x="609" y="108" type="qcurve" smooth="yes"/>
      <point x="609" y="198" type="line"/>
      <point x="392" y="198" type="line"/>
      <point x="392" y="108" type="line" smooth="yes"/>
      <point x="392" y="46"/>
      <point x="303" y="-45"/>
      <point x="239" y="-45" type="qcurve" smooth="yes"/>
      <point x="175" y="-45"/>
      <point x="86" y="46"/>
      <point x="86" y="108" type="qcurve" smooth="yes"/>
      <point x="86" y="172"/>
      <point x="176" y="262"/>
      <point x="239" y="262" type="qcurve" smooth="yes"/>
      <point x="328" y="262" type="line"/>
      <point x="328" y="477" type="line"/>
      <point x="239" y="477" type="line" smooth="yes"/>
      <point x="176" y="477"/>
      <point x="86" y="567"/>
      <point x="86" y="630" type="qcurve" smooth="yes"/>
      <point x="86" y="693"/>
      <point x="176" y="783"/>
      <point x="239" y="783" type="qcurve" smooth="yes"/>
      <point x="302" y="783"/>
      <point x="392" y="693"/>
      <point x="392" y="630" type="qcurve" smooth="yes"/>
      <point x="392" y="541" type="line"/>
      <point x="609" y="541" type="line"/>
      <point x="609" y="630" type="line" smooth="yes"/>
      <point x="609" y="693"/>
      <point x="699" y="783"/>
      <point x="762" y="783" type="qcurve" smooth="yes"/>
      <point x="825" y="783"/>
      <point x="915" y="693"/>
      <point x="915" y="630" type="qcurve" smooth="yes"/>
      <point x="915" y="567"/>
      <point x="825" y="477"/>
      <point x="762" y="477" type="qcurve" smooth="yes"/>
      <point x="673" y="477" type="line"/>
      <point x="673" y="262" type="line"/>
      <point x="762" y="262" type="line" smooth="yes"/>
      <point x="825" y="262"/>
      <point x="915" y="172"/>
      <point x="915" y="108" type="qcurve" smooth="yes"/>
      <point x="915" y="46"/>
      <point x="826" y="-45"/>
    </contour>
    <contour>
      <point x="239" y="19" type="qcurve" smooth="yes"/>
      <point x="276" y="19"/>
      <point x="328" y="71"/>
      <point x="328" y="108" type="qcurve" smooth="yes"/>
      <point x="328" y="198" type="line"/>
      <point x="239" y="198" type="line" smooth="yes"/>
      <point x="202" y="198"/>
      <point x="150" y="146"/>
      <point x="150" y="108" type="qcurve" smooth="yes"/>
      <point x="150" y="70"/>
      <point x="201" y="19"/>
    </contour>
    <contour>
      <point x="609" y="262" type="line"/>
      <point x="609" y="477" type="line"/>
      <point x="392" y="477" type="line"/>
      <point x="392" y="262" type="line"/>
    </contour>
    <contour>
      <point x="762" y="541" type="line" smooth="yes"/>
      <point x="800" y="541"/>
      <point x="851" y="592"/>
      <point x="851" y="630" type="qcurve" smooth="yes"/>
      <point x="851" y="668"/>
      <point x="800" y="719"/>
      <point x="763" y="719" type="qcurve" smooth="yes"/>
      <point x="725" y="719"/>
      <point x="673" y="667"/>
      <point x="673" y="630" type="qcurve" smooth="yes"/>
      <point x="673" y="541" type="line"/>
    </contour>
    <contour>
      <point x="328" y="541" type="line"/>
      <point x="328" y="630" type="line" smooth="yes"/>
      <point x="328" y="667"/>
      <point x="276" y="719"/>
      <point x="239" y="719" type="qcurve" smooth="yes"/>
      <point x="201" y="719"/>
      <point x="150" y="668"/>
      <point x="150" y="630" type="qcurve" smooth="yes"/>
      <point x="150" y="592"/>
      <point x="201" y="541"/>
      <point x="239" y="541" type="qcurve" smooth="yes"/>
    </contour>
    <contour>
      <point x="763" y="19" type="qcurve" smooth="yes"/>
      <point x="800" y="19"/>
      <point x="851" y="70"/>
      <point x="851" y="108" type="qcurve" smooth="yes"/>
      <point x="851" y="146"/>
      <point x="799" y="198"/>
      <point x="762" y="198" type="qcurve" smooth="yes"/>
      <point x="673" y="198" type="line"/>
      <point x="673" y="108" type="line" smooth="yes"/>
      <point x="673" y="71"/>
      <point x="725" y="19"/>
    </contour>
  </outline>
</glyph>
